{"glyphs":{"0":{"ha":847,"x_min":76,"x_max":771,"o":"m 771 250 q 751 152 771 197 q 698 73 732 107 q 618 19 664 39 q 521 0 572 0 l 326 0 q 228 19 274 0 q 149 72 183 39 q 96 151 115 106 q 76 250 76 197 l 76 847 q 96 944 76 899 q 149 1024 115 990 q 228 1078 183 1058 q 326 1097 274 1097 l 521 1097 q 618 1078 572 1097 q 698 1024 664 1058 q 751 944 732 990 q 771 847 771 899 l 771 250 m 576 286 l 576 811 q 479 908 576 908 l 368 908 q 271 811 271 908 l 271 286 q 368 189 271 189 l 479 189 q 551 215 526 189 q 576 286 576 240 z "},"1":{"ha":347,"x_min":76,"x_max":271,"o":"m 271 0 l 76 0 l 76 1097 l 271 1097 l 271 0 z "},"2":{"ha":847,"x_min":76,"x_max":771,"o":"m 771 0 l 76 0 l 76 82 q 108 210 76 144 q 196 326 140 275 l 519 621 q 564 678 551 651 q 576 742 576 706 l 576 811 q 479 908 576 908 l 368 908 q 297 885 324 908 q 271 822 271 863 l 76 872 q 96 954 76 914 q 149 1026 115 994 q 228 1078 183 1058 q 326 1097 274 1097 l 521 1097 q 618 1078 572 1097 q 698 1024 664 1058 q 751 944 732 990 q 771 847 771 899 l 771 713 q 749 597 771 650 q 668 492 726 544 l 365 218 q 355 206 358 211 q 349 197 351 201 q 346 189 346 192 l 771 189 l 771 0 z "},"3":{"ha":847,"x_min":76,"x_max":771,"o":"m 771 250 q 751 152 771 197 q 699 73 732 107 q 619 19 665 39 q 521 0 574 0 l 326 0 q 230 18 274 0 q 153 67 186 36 q 100 138 119 97 q 76 224 81 178 l 271 272 q 295 213 271 236 q 368 189 319 189 l 479 189 q 576 286 576 189 l 576 357 q 479 454 576 454 l 375 454 l 375 643 l 479 643 q 576 740 576 643 l 576 811 q 479 908 576 908 l 368 908 q 296 882 321 908 q 271 824 271 856 l 76 874 q 102 959 82 918 q 155 1031 122 1000 q 231 1079 188 1061 q 326 1097 274 1097 l 521 1097 q 618 1078 572 1097 q 698 1024 664 1058 q 751 944 732 990 q 771 847 771 899 l 771 721 q 745 616 771 661 q 679 551 719 571 q 747 483 724 525 q 771 378 771 440 l 771 250 z "},"4":{"ha":847,"x_min":76,"x_max":771,"o":"m 771 233 l 660 233 l 660 0 l 465 0 l 465 233 l 76 233 l 76 415 l 465 1097 l 660 1097 l 660 422 l 771 422 l 771 233 m 465 422 l 465 732 l 296 422 l 465 422 z "},"5":{"ha":847,"x_min":76,"x_max":771,"o":"m 771 250 q 751 152 771 197 q 698 73 732 107 q 618 19 664 39 q 521 0 572 0 l 326 0 q 157 56 222 0 q 76 200 92 113 l 271 251 q 297 205 275 221 q 368 189 319 189 l 479 189 q 576 286 576 189 l 576 386 q 479 483 576 483 l 346 483 q 290 469 310 483 q 264 433 271 454 l 76 492 l 179 1097 l 753 1097 l 753 908 l 344 908 l 303 672 l 521 672 q 618 653 572 672 q 698 599 664 633 q 751 519 732 565 q 771 422 771 474 l 771 250 z "},"6":{"ha":847,"x_min":76,"x_max":771,"o":"m 771 250 q 751 152 771 197 q 698 73 732 107 q 618 19 664 39 q 521 0 572 0 l 326 0 q 228 19 274 0 q 149 72 183 39 q 96 151 115 106 q 76 250 76 197 l 76 847 q 96 944 76 899 q 149 1024 115 990 q 228 1078 183 1058 q 326 1097 274 1097 l 521 1097 q 617 1078 572 1097 q 694 1028 661 1060 q 746 956 726 997 q 769 869 765 915 l 576 821 q 550 885 574 861 q 479 908 526 908 l 368 908 q 271 811 271 908 l 271 643 l 521 643 q 618 624 572 643 q 698 570 664 604 q 751 490 732 536 q 771 393 771 444 l 771 250 m 576 286 l 576 357 q 479 454 576 454 l 368 454 q 271 357 271 454 l 271 286 q 368 189 271 189 l 479 189 q 576 286 576 189 z "},"7":{"ha":847,"x_min":76,"x_max":771,"o":"m 771 1097 l 771 918 l 406 0 l 197 0 l 561 908 l 76 908 l 76 1097 l 771 1097 z "},"8":{"ha":847,"x_min":76,"x_max":771,"o":"m 771 250 q 751 152 771 197 q 698 73 732 107 q 618 19 664 39 q 521 0 572 0 l 326 0 q 228 19 274 0 q 149 73 183 39 q 96 152 115 107 q 76 250 76 197 l 76 371 q 83 438 76 410 q 103 488 90 467 q 132 523 115 508 q 168 550 149 538 q 136 572 153 558 q 106 607 119 586 q 85 657 93 628 q 76 726 76 686 l 76 847 q 96 944 76 899 q 149 1024 115 990 q 229 1078 183 1058 q 326 1097 275 1097 l 521 1097 q 618 1078 572 1097 q 698 1024 664 1058 q 751 944 732 990 q 771 847 771 899 l 771 726 q 763 658 771 688 q 741 608 754 629 q 711 573 728 588 q 679 550 694 558 q 714 523 697 538 q 743 488 731 508 q 763 438 756 467 q 771 371 771 410 l 771 250 m 576 740 l 576 811 q 479 908 576 908 l 368 908 q 271 811 271 908 l 271 740 q 368 643 271 643 l 479 643 q 551 668 525 643 q 576 740 576 693 m 576 286 l 576 357 q 479 454 576 454 l 368 454 q 271 357 271 454 l 271 286 q 368 189 271 189 l 479 189 q 551 214 525 189 q 576 286 576 239 z "},"9":{"ha":847,"x_min":76,"x_max":771,"o":"m 771 250 q 751 152 771 197 q 698 73 732 107 q 618 19 664 39 q 521 0 572 0 l 326 0 q 230 18 274 0 q 153 67 186 36 q 101 140 121 99 q 78 228 82 182 l 271 276 q 297 213 274 236 q 368 189 321 189 l 479 189 q 576 286 576 189 l 576 454 l 326 454 q 228 474 274 454 q 149 527 183 493 q 96 606 115 561 q 76 704 76 651 l 76 847 q 96 944 76 899 q 149 1024 115 990 q 228 1078 183 1058 q 326 1097 274 1097 l 521 1097 q 618 1078 572 1097 q 698 1025 664 1058 q 751 946 732 992 q 771 847 771 900 l 771 250 m 576 740 l 576 811 q 479 908 576 908 l 368 908 q 271 811 271 908 l 271 740 q 368 643 271 643 l 479 643 q 576 740 576 643 z "},"\u0000":{"ha":0,"x_min":0,"x_max":0,"o":""},"\r":{"ha":1389,"x_min":0,"x_max":0,"o":""}," ":{"ha":458,"x_min":0,"x_max":0,"o":""},"Ð":{"ha":847,"x_min":76,"x_max":771,"o":"m 771 250 q 751 152 771 197 q 698 73 732 107 q 618 19 664 39 q 521 0 572 0 l 76 0 l 76 189 l 132 189 l 132 454 l 76 454 l 76 643 l 132 643 l 132 908 l 76 908 l 76 1097 l 521 1097 q 618 1078 572 1097 q 698 1024 664 1058 q 751 944 732 990 q 771 847 771 899 l 771 250 m 576 286 l 576 811 q 479 908 576 908 l 326 908 l 326 643 l 438 643 l 438 454 l 326 454 l 326 189 l 479 189 q 576 286 576 189 z "},"ð":{"ha":715,"x_min":69,"x_max":646,"o":"m 646 194 q 631 117 646 153 q 590 55 617 81 q 528 15 564 29 q 451 0 493 0 l 264 0 q 187 15 222 0 q 125 55 151 29 q 84 117 99 81 q 69 194 69 153 l 69 625 q 84 703 69 667 q 125 765 99 739 q 187 805 151 790 q 264 819 222 819 l 333 819 l 275 896 l 140 863 l 106 1003 l 179 1021 l 121 1097 l 336 1097 l 360 1065 l 499 1100 l 532 960 l 456 940 l 600 753 q 633 694 621 726 q 646 624 646 661 l 646 194 m 465 246 l 465 574 q 396 644 465 644 l 319 644 q 250 574 250 644 l 250 246 q 319 175 250 175 l 396 175 q 465 246 465 175 z "},"Ł":{"ha":847,"x_min":0,"x_max":771,"o":"m 771 0 l 76 0 l 76 429 l 35 419 l 0 576 l 76 594 l 76 1097 l 271 1097 l 271 643 l 382 669 l 421 515 l 271 478 l 271 189 l 771 189 l 771 0 z "},"ł":{"ha":333,"x_min":0,"x_max":354,"o":"m 354 497 l 257 474 l 257 0 l 76 0 l 76 428 l 35 418 l 0 575 l 76 593 l 76 1097 l 257 1097 l 257 638 l 315 651 l 354 497 z "},"Š":{"ha":847,"x_min":76,"x_max":771,"o":"m 650 1342 l 493 1167 l 357 1167 l 199 1340 l 340 1375 l 425 1283 l 508 1376 l 650 1342 m 771 250 q 751 152 771 197 q 698 73 732 107 q 618 19 664 39 q 521 0 572 0 l 326 0 q 231 18 274 0 q 155 67 188 36 q 102 140 122 99 q 76 231 82 182 l 271 279 q 297 213 274 236 q 368 189 321 189 l 479 189 q 576 286 576 189 l 576 324 q 563 378 576 360 q 514 413 550 397 l 261 514 q 192 549 225 528 q 133 602 160 571 q 92 674 107 633 q 76 765 76 714 l 76 847 q 96 944 76 899 q 149 1024 115 990 q 228 1078 183 1058 q 326 1097 274 1097 l 521 1097 q 617 1078 574 1097 q 694 1028 661 1060 q 747 955 726 996 q 771 869 767 914 l 576 821 q 550 885 574 861 q 479 908 526 908 l 368 908 q 271 811 271 908 l 271 797 q 281 727 271 750 q 328 690 292 704 l 589 586 q 720 499 669 554 q 771 357 771 443 l 771 250 z "},"š":{"ha":715,"x_min":69,"x_max":646,"o":"m 583 1064 l 425 889 l 289 889 l 132 1063 l 274 1097 l 357 1006 l 442 1099 l 583 1064 m 646 194 q 631 117 646 153 q 591 55 617 81 q 530 15 565 29 q 453 0 494 0 l 264 0 q 187 15 222 0 q 126 54 151 29 q 85 115 100 79 q 69 192 69 150 l 250 238 q 269 190 253 206 q 321 175 285 175 l 396 175 q 465 239 465 175 l 465 244 q 456 272 465 260 q 421 293 446 283 l 217 368 q 165 395 192 378 q 117 438 139 413 q 83 496 96 463 q 69 569 69 529 l 69 625 q 84 702 69 667 q 124 764 99 738 q 185 805 150 790 q 263 819 221 819 l 453 819 q 530 805 494 819 q 591 765 565 790 q 631 705 617 740 q 646 628 646 669 l 465 582 q 396 644 461 644 l 319 644 q 267 629 283 644 q 250 588 250 614 l 250 579 q 258 548 250 560 q 289 528 265 536 l 504 449 q 558 422 532 439 q 603 381 583 406 q 634 323 622 356 q 646 249 646 290 l 646 194 z "},"Ý":{"ha":847,"x_min":76,"x_max":771,"o":"m 586 1322 l 374 1151 l 300 1225 l 476 1440 l 586 1322 m 771 1031 q 736 883 771 961 l 521 404 l 521 0 l 326 0 l 326 404 l 111 883 q 84 960 92 924 q 76 1032 76 996 l 76 1097 l 271 1097 l 271 1054 q 275 1009 271 1033 q 289 964 279 985 l 424 650 l 558 964 q 572 1010 568 986 q 576 1054 576 1033 l 576 1097 l 771 1097 l 771 1031 z "},"ý":{"ha":694,"x_min":28,"x_max":667,"o":"m 513 1044 l 300 874 l 226 946 l 404 1161 l 513 1044 m 667 819 l 408 -99 q 372 -180 396 -146 q 318 -235 349 -214 q 251 -267 288 -257 q 176 -278 215 -278 l 101 -278 l 101 -103 l 157 -103 q 250 -31 229 -103 l 258 0 l 28 819 l 213 819 l 333 346 q 338 335 335 342 q 346 329 340 329 q 355 335 353 329 q 358 346 357 342 l 482 819 l 667 819 z "},"\t":{"ha":1389,"x_min":0,"x_max":0,"o":""},"\n":{"ha":1389,"x_min":0,"x_max":0,"o":""},"Þ":{"ha":847,"x_min":76,"x_max":771,"o":"m 771 478 q 751 380 771 425 q 698 301 732 335 q 618 247 664 267 q 521 228 572 228 l 271 228 l 271 0 l 76 0 l 76 1097 l 271 1097 l 271 871 l 521 871 q 618 851 572 871 q 698 798 664 832 q 751 718 732 764 q 771 621 771 672 l 771 478 m 576 514 l 576 585 q 479 682 576 682 l 271 682 l 271 417 l 479 417 q 576 514 576 417 z "},"þ":{"ha":726,"x_min":69,"x_max":657,"o":"m 657 194 q 642 117 657 153 q 602 55 628 81 q 541 15 576 29 q 464 0 506 0 l 368 0 q 301 15 336 0 q 250 50 267 29 l 250 -278 l 69 -278 l 69 819 l 69 1097 l 250 1097 l 250 774 q 303 808 269 796 q 368 819 336 819 l 464 819 q 541 805 506 819 q 602 765 576 790 q 642 703 628 739 q 657 625 657 667 l 657 194 m 476 246 l 476 574 q 407 644 476 644 l 319 644 q 250 574 250 644 l 250 246 q 319 176 250 176 l 407 176 q 476 246 476 176 z "},"Ž":{"ha":847,"x_min":76,"x_max":771,"o":"m 660 1340 l 503 1167 l 367 1167 l 208 1339 l 350 1374 l 435 1283 l 518 1375 l 660 1340 m 771 0 l 76 0 l 76 181 l 543 910 l 76 910 l 76 1099 l 771 1097 l 771 917 l 306 189 l 771 189 l 771 0 z "},"ž":{"ha":711,"x_min":69,"x_max":642,"o":"m 589 1064 l 431 889 l 294 889 l 138 1063 l 279 1097 l 363 1006 l 447 1099 l 589 1064 m 642 0 l 69 0 l 69 139 l 413 644 l 69 644 l 69 819 l 642 819 l 642 681 l 300 175 l 642 175 l 642 0 z "},"\u0010":{"ha":1389,"x_min":0,"x_max":0,"o":""},"\u0011":{"ha":1389,"x_min":0,"x_max":0,"o":""},"\u0012":{"ha":1389,"x_min":0,"x_max":0,"o":""},"\u0013":{"ha":1389,"x_min":0,"x_max":0,"o":""},"\u0014":{"ha":1389,"x_min":0,"x_max":0,"o":""},"½":{"ha":1113,"x_min":69,"x_max":1043,"o":"m 1043 0 l 606 0 l 606 65 q 626 149 606 107 q 681 224 646 192 l 871 401 q 893 430 888 417 q 899 461 899 443 l 899 503 q 857 546 899 546 l 792 546 q 762 533 772 546 q 751 489 751 521 l 606 528 q 619 590 606 561 q 653 642 632 619 q 705 678 675 665 q 768 692 735 692 l 882 692 q 944 678 915 692 q 996 642 974 665 q 1031 590 1018 619 q 1043 525 1043 560 l 1043 444 q 1028 368 1043 403 q 978 300 1014 333 l 832 164 q 818 146 818 151 l 1043 146 l 1043 0 m 675 1099 l 343 0 l 183 0 l 515 1099 l 675 1099 m 219 406 l 69 406 l 69 1097 l 219 1097 l 219 406 z "},"¼":{"ha":1029,"x_min":69,"x_max":960,"o":"m 960 140 l 896 140 l 896 0 l 750 0 l 750 140 l 522 140 l 522 269 l 757 692 l 896 692 l 896 286 l 960 286 l 960 140 m 675 1099 l 343 0 l 183 0 l 515 1099 l 675 1099 m 219 406 l 69 406 l 69 1097 l 219 1097 l 219 406 m 750 286 l 750 407 l 685 286 l 750 286 z "},"¹":{"ha":289,"x_min":69,"x_max":219,"o":"m 219 406 l 69 406 l 69 1097 l 219 1097 l 219 406 z "},"¾":{"ha":1283,"x_min":69,"x_max":1214,"o":"m 1214 140 l 1149 140 l 1149 0 l 1004 0 l 1004 140 l 776 140 l 776 269 l 1011 692 l 1149 692 l 1149 286 l 1214 286 l 1214 140 m 929 1099 l 597 0 l 438 0 l 769 1099 l 929 1099 m 508 572 q 496 508 508 538 q 462 455 483 478 q 410 419 440 432 q 347 406 381 406 l 225 406 q 163 420 190 406 q 115 458 135 435 q 83 510 94 482 q 69 568 71 539 l 215 606 q 224 564 215 576 q 257 551 233 551 l 322 551 q 364 594 364 551 l 364 636 q 322 679 364 679 l 246 679 l 246 824 l 322 824 q 364 867 364 824 l 364 910 q 322 951 364 951 l 257 951 q 215 896 215 951 l 69 935 q 122 1051 78 1006 q 233 1097 167 1097 l 347 1097 q 410 1084 381 1097 q 461 1049 439 1071 q 496 996 483 1026 q 508 931 508 965 l 508 856 q 497 797 508 824 q 467 753 486 769 q 508 649 508 715 l 508 572 m 1004 286 l 1004 407 l 939 286 l 1004 286 z "},"³":{"ha":578,"x_min":69,"x_max":508,"o":"m 508 572 q 496 508 508 538 q 462 455 483 478 q 410 419 440 432 q 347 406 381 406 l 225 406 q 163 420 190 406 q 115 458 135 435 q 83 510 94 482 q 69 568 71 539 l 215 606 q 224 564 215 576 q 257 551 233 551 l 322 551 q 364 594 364 551 l 364 636 q 322 679 364 679 l 246 679 l 246 824 l 322 824 q 364 867 364 824 l 364 910 q 322 951 364 951 l 257 951 q 215 896 215 951 l 69 935 q 122 1051 78 1006 q 233 1097 167 1097 l 347 1097 q 410 1084 381 1097 q 461 1049 439 1071 q 496 996 483 1026 q 508 931 508 965 l 508 856 q 497 797 508 824 q 467 753 486 769 q 508 649 508 715 l 508 572 z "},"²":{"ha":576,"x_min":69,"x_max":507,"o":"m 507 406 l 69 406 l 69 471 q 90 556 69 513 q 144 631 110 599 l 333 807 q 356 835 350 822 q 363 868 363 849 l 363 910 q 321 951 363 951 l 256 951 q 225 940 236 951 q 214 896 214 928 l 69 933 q 82 996 69 967 q 117 1048 94 1025 q 169 1084 139 1071 q 232 1097 199 1097 l 344 1097 q 408 1084 378 1097 q 460 1049 438 1071 q 494 996 482 1026 q 507 931 507 965 l 507 850 q 492 774 507 810 q 442 706 478 739 l 296 569 q 282 551 281 556 l 507 551 l 507 406 z "},"¦":{"ha":611,"x_min":229,"x_max":382,"o":"m 382 643 l 229 643 l 229 1194 l 382 1194 l 382 643 m 382 -97 l 229 -97 l 229 454 l 382 454 l 382 -97 z "},"−":{"ha":736,"x_min":76,"x_max":660,"o":"m 660 454 l 76 454 l 76 643 l 660 643 l 660 454 z "},"×":{"ha":744,"x_min":90,"x_max":654,"o":"m 654 397 l 522 267 l 372 418 l 221 267 l 90 397 l 242 549 l 90 700 l 221 831 l 372 679 l 522 831 l 654 700 l 503 549 l 654 397 z "},"\u001e":{"ha":1389,"x_min":0,"x_max":0,"o":""},"\u001f":{"ha":1389,"x_min":0,"x_max":0,"o":""},"!":{"ha":347,"x_min":76,"x_max":271,"o":"m 271 286 l 76 286 l 76 1097 l 271 1097 l 271 286 m 271 0 l 76 0 l 76 189 l 271 189 l 271 0 z "},"\"":{"ha":542,"x_min":63,"x_max":479,"o":"m 479 1181 l 444 833 l 333 833 l 299 1181 l 479 1181 m 243 1181 l 208 833 l 97 833 l 63 1181 l 243 1181 z "},"#":{"ha":904,"x_min":42,"x_max":863,"o":"m 863 825 l 833 658 l 718 658 l 679 438 l 796 438 l 767 271 l 650 271 l 621 103 l 444 103 l 474 271 l 333 271 l 304 104 l 128 104 l 157 271 l 42 271 l 71 438 l 186 438 l 225 658 l 111 658 l 140 825 l 254 825 l 285 993 l 461 993 l 431 825 l 571 825 l 601 992 l 778 992 l 747 825 l 863 825 m 542 658 l 401 658 l 363 438 l 503 438 l 542 658 z "},"$":{"ha":819,"x_min":76,"x_max":743,"o":"m 743 778 l 553 731 q 526 793 553 772 q 463 814 500 814 l 357 814 q 268 725 268 814 q 278 670 268 689 q 319 638 288 651 l 568 539 q 638 503 606 524 q 693 456 669 483 q 730 394 717 429 q 743 317 743 360 l 743 242 q 724 147 743 192 q 673 70 706 103 q 597 19 640 38 q 503 0 553 0 l 490 0 l 490 -99 l 332 -99 l 332 0 l 318 0 q 153 61 215 0 q 76 222 92 122 l 268 269 q 293 207 267 228 q 357 186 319 186 l 463 186 q 533 212 513 186 q 553 285 553 238 q 540 338 553 321 q 494 368 528 354 l 254 464 q 126 556 175 496 q 76 707 76 617 l 76 758 q 95 853 76 808 q 147 930 114 897 q 224 981 179 963 q 318 1000 268 1000 l 332 1000 l 332 1097 l 490 1097 l 490 1000 l 503 1000 q 592 983 550 1000 q 665 937 633 967 q 718 866 697 907 q 743 778 739 825 z "},"%":{"ha":1385,"x_min":69,"x_max":1315,"o":"m 1315 174 q 1302 106 1315 138 q 1265 50 1289 74 q 1210 13 1242 26 q 1143 -1 1179 -1 l 1035 -1 q 967 13 999 -1 q 913 50 936 26 q 877 106 890 74 q 864 174 864 138 l 864 518 q 877 586 864 554 q 913 642 890 618 q 967 679 936 665 q 1035 693 999 693 l 1143 693 q 1210 679 1179 693 q 1265 642 1242 665 q 1302 586 1289 618 q 1315 518 1315 554 l 1315 174 m 935 1099 l 603 0 l 443 0 l 775 1099 l 935 1099 m 521 578 q 508 510 521 542 q 471 456 494 479 q 416 418 447 432 q 350 404 385 404 l 240 404 q 174 417 204 404 q 119 454 143 431 q 83 510 96 478 q 69 579 69 542 l 69 922 q 83 990 69 958 q 119 1046 96 1022 q 174 1083 143 1069 q 240 1097 204 1097 l 350 1097 q 416 1083 385 1097 q 471 1046 447 1069 q 508 990 494 1022 q 521 922 521 958 l 521 578 m 1165 197 l 1165 494 q 1117 544 1165 544 l 1061 544 q 1013 494 1013 544 l 1013 197 q 1061 147 1013 147 l 1117 147 q 1165 197 1165 147 m 372 601 l 372 899 q 324 949 372 949 l 267 949 q 218 899 218 949 l 218 601 q 267 553 218 553 l 324 553 q 372 601 372 553 z "},"&":{"ha":864,"x_min":76,"x_max":801,"o":"m 801 0 q 753 1 779 0 q 700 6 726 1 q 651 23 674 11 q 617 57 629 35 q 590 31 607 42 q 555 13 574 19 q 516 3 536 6 q 479 0 496 0 l 326 0 q 228 19 274 0 q 149 72 182 39 q 96 151 115 106 q 76 250 76 197 l 76 378 q 108 483 76 440 q 196 551 139 526 q 126 623 149 575 q 104 721 104 671 l 104 847 q 124 944 104 899 q 177 1024 143 990 q 256 1078 211 1058 q 354 1097 301 1097 l 465 1097 q 556 1080 513 1097 q 632 1033 599 1063 q 688 962 665 1003 q 715 874 710 921 l 521 824 q 491 886 521 864 q 424 908 461 908 l 396 908 q 334 893 354 908 q 306 854 314 878 q 299 800 299 831 q 299 740 299 769 q 396 643 299 643 l 521 643 l 521 713 l 715 713 l 715 643 l 801 643 l 801 454 l 715 454 l 715 275 q 801 189 715 189 l 801 0 m 521 454 l 368 454 q 271 357 271 454 l 271 286 q 284 227 271 247 q 318 199 297 207 q 367 190 339 190 q 424 189 394 189 q 492 209 464 189 q 521 272 521 229 l 521 454 z "},"'":{"ha":306,"x_min":63,"x_max":243,"o":"m 243 1181 l 208 833 l 97 833 l 63 1181 l 243 1181 z "},"(":{"ha":528,"x_min":76,"x_max":451,"o":"m 451 -58 l 290 -97 q 199 53 239 -22 q 131 206 158 128 q 90 369 104 285 q 76 547 76 453 q 90 725 76 640 q 131 889 104 810 q 199 1043 158 968 q 290 1193 239 1118 l 451 1153 q 376 1018 410 1093 q 317 863 342 943 q 280 701 293 783 q 267 547 267 619 q 280 392 267 474 q 317 231 293 311 q 376 76 342 151 q 451 -58 410 1 z "},")":{"ha":528,"x_min":76,"x_max":451,"o":"m 451 547 q 438 369 451 453 q 397 206 424 285 q 329 53 369 128 q 238 -97 289 -22 l 76 -58 q 152 76 118 1 q 210 231 186 151 q 248 392 235 311 q 261 547 261 474 q 248 701 261 619 q 210 863 235 783 q 152 1018 186 943 q 76 1153 118 1093 l 238 1193 q 329 1043 289 1118 q 397 889 369 968 q 438 725 424 810 q 451 547 451 640 z "},"*":{"ha":500,"x_min":42,"x_max":458,"o":"m 458 811 l 414 736 l 299 796 l 293 665 l 206 665 l 200 797 l 85 736 l 42 811 l 153 882 l 42 951 l 85 1028 l 201 965 l 206 1097 l 293 1097 l 297 965 l 414 1028 l 458 951 l 346 882 l 458 811 z "},"+":{"ha":736,"x_min":76,"x_max":660,"o":"m 660 457 l 463 457 l 463 257 l 274 257 l 274 457 l 76 457 l 76 640 l 274 640 l 274 840 l 463 840 l 463 640 l 660 640 l 660 457 z "},",":{"ha":347,"x_min":0,"x_max":271,"o":"m 271 146 l 110 -201 l 0 -158 l 93 215 l 271 146 z "},"-":{"ha":444,"x_min":28,"x_max":417,"o":"m 417 382 l 28 382 l 28 571 l 417 571 l 417 382 z "},".":{"ha":347,"x_min":76,"x_max":271,"o":"m 271 0 l 76 0 l 76 189 l 271 189 l 271 0 z "},"/":{"ha":551,"x_min":0,"x_max":551,"o":"m 551 1194 l 160 -97 l 0 -97 l 392 1194 l 551 1194 z "},":":{"ha":347,"x_min":76,"x_max":271,"o":"m 271 454 l 76 454 l 76 643 l 271 643 l 271 454 m 271 0 l 76 0 l 76 189 l 271 189 l 271 0 z "},";":{"ha":347,"x_min":0,"x_max":271,"o":"m 271 454 l 76 454 l 76 643 l 271 643 l 271 454 m 271 146 l 110 -201 l 0 -158 l 93 215 l 271 146 z "},"<":{"ha":875,"x_min":90,"x_max":785,"o":"m 785 157 l 90 447 l 90 647 l 785 936 l 785 724 l 324 546 l 785 368 l 785 157 z "},"=":{"ha":736,"x_min":76,"x_max":660,"o":"m 660 643 l 76 643 l 76 829 l 660 829 l 660 643 m 660 265 l 76 265 l 76 454 l 660 454 l 660 265 z "},">":{"ha":875,"x_min":90,"x_max":785,"o":"m 785 447 l 90 157 l 90 368 l 551 546 l 90 724 l 90 936 l 785 647 l 785 447 z "},"?":{"ha":806,"x_min":63,"x_max":729,"o":"m 729 763 q 706 656 729 707 q 646 572 682 604 l 471 414 q 435 368 444 390 q 425 313 425 346 l 425 286 l 231 286 l 231 354 q 251 449 231 403 q 304 525 272 496 l 486 690 q 535 794 535 735 l 535 811 q 438 908 535 908 l 354 908 q 283 883 306 908 q 257 824 260 858 l 63 874 q 85 958 65 917 q 138 1029 104 999 q 215 1078 171 1060 q 313 1097 260 1097 l 479 1097 q 576 1078 531 1097 q 656 1024 622 1058 q 710 944 690 990 q 729 847 729 899 l 729 763 m 425 0 l 231 0 l 231 189 l 425 189 l 425 0 z "},"@":{"ha":1411,"x_min":49,"x_max":1363,"o":"m 1338 413 q 1324 351 1332 383 q 1305 288 1315 319 q 1283 228 1294 257 q 1260 179 1272 200 q 1144 51 1217 103 q 981 0 1072 0 l 960 0 q 858 24 893 0 q 806 86 822 47 q 728 23 771 46 q 628 0 686 0 l 528 0 q 453 15 486 0 q 399 56 421 29 q 369 117 378 82 q 368 194 361 153 l 389 307 q 417 383 396 349 q 467 444 438 418 q 535 485 497 471 q 615 500 574 500 l 811 500 l 824 575 q 764 649 838 649 l 696 649 q 638 633 657 649 q 611 588 619 618 l 453 629 l 454 640 q 531 772 469 724 q 679 819 593 819 l 850 819 q 978 765 935 819 q 1008 628 1022 711 l 946 269 q 948 178 935 206 q 1015 151 961 151 q 1065 163 1043 151 q 1103 191 1086 174 q 1134 231 1121 208 q 1158 276 1147 253 q 1182 343 1172 306 q 1199 413 1192 381 q 1197 622 1218 524 q 1123 792 1176 719 q 987 908 1069 865 q 800 950 904 950 q 598 908 696 950 q 421 792 500 865 q 287 622 342 719 q 213 413 232 524 q 212 204 193 301 q 283 34 231 107 q 418 -81 335 -39 q 611 -124 501 -124 q 740 -108 681 -124 q 849 -68 800 -92 l 903 -178 q 758 -235 836 -211 q 588 -258 679 -258 q 348 -204 454 -258 q 172 -56 242 -150 q 76 162 103 38 q 74 426 49 286 q 169 689 99 568 q 339 898 239 810 q 560 1035 439 986 q 810 1085 682 1085 q 1047 1033 939 1085 q 1228 890 1156 981 q 1332 676 1301 799 q 1338 413 1363 553 m 781 329 l 642 329 q 556 256 568 329 l 553 244 q 561 189 546 206 q 614 172 576 172 l 679 172 q 738 189 718 172 q 765 244 758 206 l 781 329 z "},"A":{"ha":847,"x_min":76,"x_max":771,"o":"m 771 0 l 569 0 l 533 182 l 314 182 l 278 0 l 76 0 l 329 1097 l 518 1097 l 771 0 m 497 371 l 438 681 q 433 694 436 686 q 424 703 431 703 q 414 694 417 703 q 410 681 411 686 l 350 371 l 497 371 z "},"B":{"ha":847,"x_min":76,"x_max":771,"o":"m 771 250 q 751 152 771 197 q 698 73 732 107 q 618 19 664 39 q 521 0 572 0 l 76 0 l 76 189 l 132 189 l 132 908 l 76 908 l 76 1097 l 521 1097 q 618 1078 572 1097 q 698 1024 664 1058 q 751 944 732 990 q 771 847 771 899 l 771 732 q 761 655 771 686 q 737 603 751 624 q 706 569 722 582 q 678 550 690 557 q 708 529 692 542 q 738 497 724 517 q 761 446 751 476 q 771 368 771 415 l 771 250 m 576 739 l 576 811 q 479 908 576 908 l 326 908 l 326 642 l 479 642 q 576 739 576 642 m 576 286 l 576 356 q 479 453 576 453 l 326 453 l 326 189 l 479 189 q 551 215 526 189 q 576 286 576 240 z "},"C":{"ha":847,"x_min":76,"x_max":771,"o":"m 771 226 q 747 141 767 182 q 694 69 726 100 q 617 19 661 38 q 521 0 572 0 l 326 0 q 228 19 274 0 q 149 73 183 39 q 96 152 115 107 q 76 250 76 197 l 76 847 q 96 944 76 899 q 149 1024 115 990 q 228 1078 183 1058 q 326 1097 274 1097 l 521 1097 q 617 1078 572 1097 q 694 1028 661 1060 q 747 956 726 997 q 771 868 767 914 l 576 819 q 551 882 576 856 q 479 908 526 908 l 368 908 q 271 811 271 908 l 271 286 q 368 189 271 189 l 479 189 q 551 212 525 189 q 576 275 576 235 l 771 226 z "},"D":{"ha":847,"x_min":76,"x_max":771,"o":"m 771 250 q 751 152 771 197 q 698 73 732 107 q 618 19 664 39 q 521 0 572 0 l 76 0 l 76 189 l 132 189 l 132 908 l 76 908 l 76 1097 l 521 1097 q 618 1078 572 1097 q 698 1024 664 1058 q 751 944 732 990 q 771 847 771 899 l 771 250 m 576 286 l 576 811 q 479 908 576 908 l 326 908 l 326 189 l 479 189 q 576 286 576 189 z "},"E":{"ha":847,"x_min":76,"x_max":771,"o":"m 771 0 l 76 0 l 76 1097 l 771 1097 l 771 908 l 271 908 l 271 643 l 632 643 l 632 454 l 271 454 l 271 189 l 771 189 l 771 0 z "},"F":{"ha":847,"x_min":76,"x_max":771,"o":"m 771 908 l 271 908 l 271 643 l 632 643 l 632 454 l 271 454 l 271 0 l 76 0 l 76 1097 l 771 1097 l 771 908 z "},"G":{"ha":847,"x_min":76,"x_max":771,"o":"m 771 250 q 751 152 771 197 q 698 73 732 107 q 618 19 664 39 q 521 0 572 0 l 326 0 q 228 19 274 0 q 149 73 183 39 q 96 152 115 107 q 76 250 76 197 l 76 847 q 96 944 76 899 q 149 1024 115 990 q 228 1078 183 1058 q 326 1097 274 1097 l 521 1097 q 615 1080 572 1097 q 691 1032 658 1063 q 744 960 724 1001 q 771 872 764 919 l 576 824 q 551 883 576 857 q 479 908 526 908 l 368 908 q 271 811 271 908 l 271 286 q 368 189 271 189 l 479 189 q 576 286 576 189 l 576 390 l 438 390 l 438 579 l 771 579 l 771 250 z "},"H":{"ha":847,"x_min":76,"x_max":771,"o":"m 771 0 l 576 0 l 576 454 l 271 454 l 271 0 l 76 0 l 76 1097 l 271 1097 l 271 643 l 576 643 l 576 1097 l 771 1097 l 771 0 z "},"I":{"ha":347,"x_min":76,"x_max":271,"o":"m 271 0 l 76 0 l 76 1097 l 271 1097 l 271 0 z "},"J":{"ha":847,"x_min":76,"x_max":771,"o":"m 771 250 q 751 152 771 197 q 698 73 732 107 q 618 19 664 39 q 521 0 572 0 l 326 0 q 233 17 276 0 q 156 65 189 35 q 103 137 124 96 q 76 226 82 178 l 271 275 q 296 214 271 239 q 368 189 321 189 l 479 189 q 576 286 576 189 l 576 1097 l 771 1097 l 771 250 z "},"K":{"ha":847,"x_min":76,"x_max":771,"o":"m 771 0 l 576 0 l 576 40 q 572 80 576 60 q 556 119 567 100 l 357 457 l 271 347 l 271 0 l 76 0 l 76 1097 l 271 1097 l 271 628 l 542 965 q 570 1012 564 993 q 576 1060 576 1031 l 576 1097 l 771 1097 l 771 1038 q 758 960 771 997 q 711 882 744 924 l 492 610 l 733 199 q 764 133 757 160 q 771 74 771 107 l 771 0 z "},"L":{"ha":847,"x_min":76,"x_max":771,"o":"m 771 0 l 76 0 l 76 1097 l 271 1097 l 271 189 l 771 189 l 771 0 z "},"M":{"ha":847,"x_min":76,"x_max":771,"o":"m 771 0 l 576 0 l 576 522 q 575 533 576 525 q 568 540 574 540 q 560 534 564 540 q 556 525 557 528 l 439 210 q 433 199 436 204 q 424 194 431 194 q 414 199 417 194 q 408 210 411 204 l 292 524 q 288 532 290 526 q 279 538 285 538 q 272 531 274 538 q 271 521 271 525 l 271 0 l 76 0 l 76 1097 l 257 1097 l 411 667 q 416 656 413 664 q 424 649 419 649 q 431 656 428 649 q 436 667 435 664 l 590 1097 l 771 1097 l 771 0 z "},"N":{"ha":847,"x_min":76,"x_max":771,"o":"m 771 0 l 589 0 l 271 639 l 271 0 l 76 0 l 76 1097 l 260 1097 l 576 456 l 576 1097 l 771 1097 l 771 0 z "},"O":{"ha":847,"x_min":76,"x_max":771,"o":"m 771 250 q 751 152 771 197 q 698 73 732 107 q 618 19 664 39 q 521 0 572 0 l 326 0 q 228 19 274 0 q 149 72 183 39 q 96 151 115 106 q 76 250 76 197 l 76 847 q 96 944 76 899 q 149 1024 115 990 q 228 1078 183 1058 q 326 1097 274 1097 l 521 1097 q 618 1078 572 1097 q 698 1024 664 1058 q 751 944 732 990 q 771 847 771 899 l 771 250 m 576 286 l 576 811 q 479 908 576 908 l 368 908 q 271 811 271 908 l 271 286 q 368 189 271 189 l 479 189 q 551 215 526 189 q 576 286 576 240 z "},"P":{"ha":847,"x_min":76,"x_max":771,"o":"m 771 704 q 751 606 771 651 q 698 527 732 561 q 618 474 664 493 q 521 454 572 454 l 271 454 l 271 0 l 76 0 l 76 1097 l 521 1097 q 618 1078 572 1097 q 698 1024 664 1058 q 751 944 732 990 q 771 847 771 899 l 771 704 m 576 740 l 576 811 q 479 908 576 908 l 271 908 l 271 643 l 479 643 q 576 740 576 643 z "},"Q":{"ha":847,"x_min":76,"x_max":771,"o":"m 771 -28 l 578 -28 l 556 4 q 518 0 540 0 l 326 0 q 228 19 274 0 q 149 73 183 39 q 96 152 115 107 q 76 250 76 197 l 76 847 q 96 944 76 899 q 149 1024 115 990 q 228 1078 182 1058 q 326 1097 274 1097 l 521 1097 q 618 1078 572 1097 q 698 1025 664 1058 q 751 946 732 992 q 771 847 771 900 l 771 250 q 749 144 771 188 q 699 76 726 100 l 771 -28 m 576 278 l 576 811 q 479 908 576 908 l 368 908 q 271 811 271 908 l 271 286 q 368 189 271 189 l 429 189 l 314 357 l 508 357 l 564 274 q 576 278 576 257 z "},"R":{"ha":847,"x_min":76,"x_max":771,"o":"m 771 0 l 563 0 l 396 454 l 271 454 l 271 0 l 76 0 l 76 1097 l 521 1097 q 618 1078 572 1097 q 698 1024 664 1058 q 751 944 732 990 q 771 847 771 899 l 771 706 q 726 539 771 601 q 601 457 681 476 l 771 0 m 576 740 l 576 811 q 551 883 576 858 q 479 908 525 908 l 271 908 l 271 643 l 479 643 q 576 740 576 643 z "},"S":{"ha":847,"x_min":76,"x_max":771,"o":"m 771 250 q 751 152 771 197 q 698 73 732 107 q 618 19 664 39 q 521 0 572 0 l 326 0 q 231 18 274 0 q 155 67 188 36 q 102 140 122 99 q 76 231 82 182 l 271 279 q 297 213 274 236 q 368 189 321 189 l 479 189 q 576 286 576 189 l 576 324 q 563 378 576 360 q 514 413 550 397 l 261 514 q 192 549 225 528 q 133 602 160 571 q 92 674 107 633 q 76 765 76 714 l 76 847 q 96 944 76 899 q 149 1024 115 990 q 228 1078 183 1058 q 326 1097 274 1097 l 521 1097 q 617 1078 574 1097 q 694 1028 661 1060 q 747 955 726 996 q 771 869 767 914 l 576 821 q 550 885 574 861 q 479 908 526 908 l 368 908 q 271 811 271 908 l 271 797 q 281 727 271 750 q 328 690 292 704 l 589 586 q 720 499 669 554 q 771 357 771 443 l 771 250 z "},"T":{"ha":847,"x_min":76,"x_max":771,"o":"m 771 908 l 521 908 l 521 0 l 326 0 l 326 908 l 76 908 l 76 1097 l 771 1097 l 771 908 z "},"U":{"ha":847,"x_min":76,"x_max":771,"o":"m 771 250 q 751 152 771 197 q 698 73 732 107 q 618 19 664 39 q 521 0 572 0 l 326 0 q 228 19 274 0 q 149 73 182 39 q 96 152 115 107 q 76 250 76 197 l 76 1097 l 271 1097 l 271 286 q 368 189 271 189 l 479 189 q 576 286 576 189 l 576 1097 l 771 1097 l 771 250 z "},"V":{"ha":847,"x_min":76,"x_max":771,"o":"m 771 1097 l 517 0 l 331 0 l 76 1097 l 278 1097 l 410 476 q 414 463 411 472 q 424 454 417 454 q 433 463 431 454 q 438 476 436 472 l 569 1097 l 771 1097 z "},"W":{"ha":849,"x_min":76,"x_max":772,"o":"m 772 1097 l 711 0 l 528 0 l 439 329 q 435 340 438 335 q 425 344 432 344 q 415 340 418 344 q 411 329 413 335 l 321 0 l 139 0 l 76 1097 l 272 1097 l 303 563 q 304 553 303 558 q 311 547 306 547 q 319 553 317 547 q 324 563 322 558 l 410 881 q 415 891 411 886 q 425 896 418 896 q 435 891 432 896 q 440 881 439 886 l 525 563 q 529 553 526 558 q 538 547 532 547 q 544 553 543 547 q 546 563 546 558 l 576 1097 l 772 1097 z "},"X":{"ha":847,"x_min":76,"x_max":771,"o":"m 771 0 l 576 0 l 576 40 q 572 83 576 61 q 557 124 568 104 l 424 360 l 293 126 q 276 83 282 106 q 271 40 271 61 l 271 0 l 76 0 l 76 64 q 85 136 76 100 q 111 203 93 172 l 315 549 l 111 896 q 85 963 93 926 q 76 1035 76 999 l 76 1097 l 271 1097 l 271 1058 q 276 1015 271 1038 q 293 972 282 993 l 424 742 l 557 975 q 572 1016 568 994 q 576 1058 576 1038 l 576 1097 l 771 1097 l 771 1035 q 763 963 771 999 q 738 896 756 926 l 533 550 l 738 203 q 763 136 756 172 q 771 64 771 100 l 771 0 z "},"Y":{"ha":847,"x_min":76,"x_max":771,"o":"m 771 1031 q 736 883 771 961 l 521 404 l 521 0 l 326 0 l 326 404 l 111 883 q 84 960 92 924 q 76 1032 76 996 l 76 1097 l 271 1097 l 271 1054 q 275 1009 271 1033 q 289 964 279 985 l 424 650 l 558 964 q 572 1010 568 986 q 576 1054 576 1033 l 576 1097 l 771 1097 l 771 1031 z "},"Z":{"ha":847,"x_min":76,"x_max":771,"o":"m 771 0 l 76 0 l 76 181 l 543 910 l 76 910 l 76 1099 l 771 1097 l 771 917 l 306 189 l 771 189 l 771 0 z "},"[":{"ha":372,"x_min":76,"x_max":400,"o":"m 400 -258 l 76 -258 l 76 1356 l 400 1356 l 400 1189 l 257 1189 l 257 -92 l 400 -92 l 400 -258 z "},"\\":{"ha":551,"x_min":0,"x_max":551,"o":"m 551 -97 l 392 -97 l 0 1194 l 160 1194 l 551 -97 z "},"]":{"ha":372,"x_min":-28,"x_max":296,"o":"m 296 -258 l -28 -258 l -28 -92 l 115 -92 l 115 1189 l -28 1189 l -28 1356 l 296 1356 l 296 -258 z "},"^":{"ha":851,"x_min":76,"x_max":775,"o":"m 775 501 l 576 501 l 419 779 l 272 501 l 76 501 l 353 1025 l 497 1025 l 775 501 z "},"_":{"ha":847,"x_min":0,"x_max":847,"o":"m 847 -278 l 0 -278 l 0 -125 l 847 -125 l 847 -278 z "},"`":{"ha":847,"x_min":133,"x_max":419,"o":"m 419 946 l 346 874 l 133 1044 l 243 1161 l 419 946 z "},"a":{"ha":692,"x_min":56,"x_max":622,"o":"m 622 0 l 476 0 l 456 49 q 413 14 442 28 q 351 0 385 0 l 250 0 q 173 15 208 0 q 111 56 138 29 q 70 118 85 82 q 56 196 56 154 l 56 307 q 70 385 56 349 q 111 447 85 421 q 173 488 138 472 q 250 503 208 503 l 442 503 l 442 574 q 372 644 442 644 l 304 644 q 251 628 267 644 q 233 582 236 613 l 63 625 l 63 638 q 117 771 63 722 q 258 819 172 819 l 428 819 q 505 805 469 819 q 567 765 540 790 q 608 703 593 739 q 622 625 622 667 l 622 0 m 442 244 l 442 326 l 306 326 q 253 310 269 326 q 236 256 236 293 l 236 244 q 306 175 236 175 l 372 175 q 442 244 442 175 z "},"b":{"ha":726,"x_min":69,"x_max":657,"o":"m 657 194 q 642 117 657 153 q 602 55 628 81 q 541 15 576 29 q 464 0 506 0 l 354 0 q 286 10 318 0 q 233 47 254 21 l 215 0 l 69 0 l 69 1097 l 250 1097 l 250 769 q 301 808 271 796 q 368 819 332 819 l 464 819 q 541 805 506 819 q 602 765 576 790 q 642 703 628 739 q 657 625 657 667 l 657 194 m 476 246 l 476 574 q 407 644 476 644 l 319 644 q 250 574 250 644 l 250 246 q 319 175 250 175 l 407 175 q 476 246 476 175 z "},"c":{"ha":715,"x_min":69,"x_max":646,"o":"m 646 192 q 631 115 646 150 q 590 54 615 79 q 529 15 564 29 q 453 0 494 0 l 263 0 q 185 15 221 0 q 124 55 150 29 q 84 117 99 81 q 69 194 69 153 l 69 625 q 84 703 69 667 q 124 765 99 739 q 185 805 150 790 q 263 819 221 819 l 453 819 q 530 805 494 819 q 591 765 565 790 q 631 705 617 740 q 646 628 646 669 l 465 582 q 396 644 461 644 l 319 644 q 250 574 250 644 l 250 246 q 319 175 250 175 l 396 175 q 465 238 461 175 l 646 192 z "},"d":{"ha":726,"x_min":69,"x_max":657,"o":"m 657 0 l 513 0 l 492 49 q 375 0 454 0 l 263 0 q 185 15 221 0 q 124 55 150 29 q 84 117 99 81 q 69 194 69 153 l 69 625 q 84 703 69 667 q 124 765 99 739 q 185 805 150 790 q 263 819 221 819 l 358 819 q 425 808 394 819 q 476 769 456 796 l 476 1097 l 657 1097 l 657 0 m 476 246 l 476 574 q 407 644 476 644 l 319 644 q 250 574 250 644 l 250 246 q 319 175 250 175 l 407 175 q 476 246 476 175 z "},"e":{"ha":706,"x_min":69,"x_max":636,"o":"m 636 317 l 250 317 l 250 246 q 321 175 250 175 l 389 175 q 440 191 425 175 q 458 238 456 207 l 629 194 l 629 182 q 574 49 629 97 q 435 0 519 0 l 265 0 q 188 15 224 0 q 125 55 151 29 q 84 117 99 81 q 69 194 69 153 l 69 625 q 84 702 69 667 q 124 764 99 738 q 185 805 150 790 q 263 819 221 819 l 442 819 q 519 805 483 819 q 581 764 556 790 q 622 701 607 738 q 636 624 636 665 l 636 317 m 456 575 q 386 644 457 644 l 321 644 q 267 628 283 644 q 250 575 250 611 l 250 493 l 456 493 l 456 575 z "},"f":{"ha":483,"x_min":21,"x_max":463,"o":"m 463 921 l 340 921 q 271 851 271 921 l 271 813 l 449 813 l 449 638 l 271 638 l 271 0 l 90 0 l 90 638 l 21 638 l 21 813 l 90 813 l 90 900 q 105 978 90 942 q 146 1040 119 1014 q 208 1081 172 1067 q 285 1096 243 1096 l 463 1096 l 463 921 z "},"g":{"ha":726,"x_min":69,"x_max":657,"o":"m 657 -85 q 642 -162 657 -126 q 602 -223 628 -197 q 540 -263 576 -249 q 463 -278 504 -278 l 285 -278 q 145 -229 200 -278 q 90 -96 90 -181 l 90 -83 l 261 -40 q 279 -87 264 -71 q 332 -103 294 -103 l 407 -103 q 476 -32 476 -103 l 476 89 q 425 53 460 68 q 358 39 390 39 l 263 39 q 185 53 221 39 q 124 94 150 68 q 84 156 99 119 q 69 233 69 192 l 69 626 q 84 703 69 668 q 124 765 99 739 q 185 805 150 790 q 263 819 221 819 l 372 819 q 441 806 408 819 q 490 774 474 793 l 511 819 l 657 819 l 657 -85 m 476 285 l 476 574 q 407 644 476 644 l 319 644 q 250 574 250 644 l 250 285 q 319 215 250 215 l 407 215 q 476 285 476 215 z "},"h":{"ha":726,"x_min":69,"x_max":657,"o":"m 657 0 l 476 0 l 476 574 q 407 644 476 644 l 319 644 q 250 574 250 644 l 250 0 l 69 0 l 69 1097 l 250 1097 l 250 769 q 301 805 267 790 q 368 819 336 819 l 463 819 q 540 805 504 819 q 601 764 575 790 q 642 701 628 738 q 657 624 657 665 l 657 0 z "},"i":{"ha":319,"x_min":69,"x_max":250,"o":"m 250 921 l 69 921 l 69 1096 l 250 1096 l 250 921 m 250 0 l 69 0 l 69 819 l 250 819 l 250 0 z "},"j":{"ha":319,"x_min":-56,"x_max":250,"o":"m 250 921 l 69 921 l 69 1096 l 250 1096 l 250 921 m 250 -103 q 201 -233 250 -187 q 69 -278 153 -278 l -56 -278 l -56 -103 l 0 -103 q 69 -33 69 -103 l 69 819 l 250 819 l 250 -103 z "},"k":{"ha":726,"x_min":69,"x_max":657,"o":"m 657 0 l 474 -1 l 474 31 q 456 90 474 63 l 296 347 l 250 294 l 250 0 l 69 0 l 69 1097 l 250 1097 l 250 517 l 442 725 q 467 757 461 744 q 474 792 474 769 l 474 819 l 657 819 l 657 774 q 645 716 657 743 q 606 657 633 689 l 429 467 l 624 149 q 650 97 643 118 q 657 51 657 76 l 657 0 z "},"l":{"ha":319,"x_min":69,"x_max":250,"o":"m 250 0 l 69 0 l 69 1097 l 250 1097 l 250 0 z "},"m":{"ha":1024,"x_min":69,"x_max":954,"o":"m 954 0 l 774 0 l 774 574 q 704 644 774 644 l 672 644 q 603 574 603 644 l 603 0 l 421 0 l 421 574 q 351 644 421 644 l 319 644 q 250 574 250 644 l 250 0 l 69 0 l 69 819 l 250 819 l 250 769 q 301 805 267 790 q 368 819 336 819 l 415 819 q 506 799 468 819 q 564 746 543 778 q 623 799 585 778 q 714 819 661 819 l 761 819 q 838 805 803 819 q 899 764 874 790 q 940 701 925 738 q 954 624 954 665 l 954 0 z "},"n":{"ha":699,"x_min":69,"x_max":629,"o":"m 629 0 l 449 0 l 449 574 q 379 644 449 644 l 319 644 q 250 574 250 644 l 250 0 l 69 0 l 69 819 l 250 819 l 250 769 q 301 805 267 790 q 368 819 336 819 l 436 819 q 513 805 478 819 q 574 764 549 790 q 615 701 600 738 q 629 624 629 665 l 629 0 z "},"o":{"ha":715,"x_min":69,"x_max":646,"o":"m 646 194 q 631 117 646 153 q 590 55 617 81 q 528 15 564 29 q 451 0 493 0 l 264 0 q 187 15 222 0 q 125 55 151 29 q 84 117 99 81 q 69 194 69 153 l 69 625 q 84 703 69 667 q 125 765 99 739 q 187 805 151 790 q 264 819 222 819 l 451 819 q 528 805 493 819 q 590 764 564 790 q 631 701 617 738 q 646 624 646 665 l 646 194 m 465 246 l 465 574 q 396 644 465 644 l 319 644 q 250 574 250 644 l 250 246 q 319 175 250 175 l 396 175 q 465 246 465 175 z "},"p":{"ha":726,"x_min":69,"x_max":657,"o":"m 657 194 q 642 117 657 153 q 602 55 628 81 q 541 15 576 29 q 464 0 506 0 l 368 0 q 301 12 332 0 q 250 50 271 24 l 250 -278 l 69 -278 l 69 819 l 214 819 l 235 771 q 287 808 256 797 q 354 819 318 819 l 464 819 q 541 805 506 819 q 602 765 576 790 q 642 703 628 739 q 657 625 657 667 l 657 194 m 476 246 l 476 574 q 407 644 476 644 l 319 644 q 250 574 250 644 l 250 246 q 319 176 250 176 l 407 176 q 476 246 476 176 z "},"q":{"ha":726,"x_min":69,"x_max":657,"o":"m 657 -278 l 476 -278 l 476 50 q 425 12 456 24 q 358 0 394 0 l 263 0 q 185 15 221 0 q 124 55 150 29 q 84 117 99 81 q 69 194 69 153 l 69 625 q 84 703 69 667 q 124 765 99 739 q 185 805 150 790 q 263 819 221 819 l 372 819 q 440 808 408 819 q 492 771 471 797 l 513 819 l 657 819 l 657 -278 m 476 246 l 476 574 q 407 644 476 644 l 319 644 q 250 574 250 644 l 250 246 q 319 176 250 176 l 407 176 q 476 246 476 176 z "},"r":{"ha":501,"x_min":69,"x_max":488,"o":"m 488 800 l 446 631 q 419 642 432 639 q 378 644 407 644 l 319 644 q 250 574 250 643 l 250 0 l 69 0 l 69 819 l 250 819 l 250 747 q 302 806 267 789 q 365 822 338 822 l 410 822 q 452 817 431 822 q 488 800 474 811 z "},"s":{"ha":715,"x_min":69,"x_max":646,"o":"m 646 194 q 631 117 646 153 q 591 55 617 81 q 530 15 565 29 q 453 0 494 0 l 264 0 q 187 15 222 0 q 126 54 151 29 q 85 115 100 79 q 69 192 69 150 l 250 238 q 269 190 253 206 q 321 175 285 175 l 396 175 q 465 239 465 175 l 465 244 q 456 272 465 260 q 421 293 446 283 l 217 368 q 165 395 192 378 q 117 438 139 413 q 83 496 96 463 q 69 569 69 529 l 69 625 q 84 702 69 667 q 124 764 99 738 q 185 805 150 790 q 263 819 221 819 l 453 819 q 530 805 494 819 q 591 765 565 790 q 631 705 617 740 q 646 628 646 669 l 465 582 q 396 644 461 644 l 319 644 q 267 629 283 644 q 250 588 250 614 l 250 579 q 258 548 250 560 q 289 528 265 536 l 504 449 q 558 422 532 439 q 603 381 583 406 q 634 323 622 356 q 646 249 646 290 l 646 194 z "},"t":{"ha":497,"x_min":21,"x_max":463,"o":"m 463 0 l 285 0 q 208 15 243 0 q 146 56 172 29 q 105 118 119 82 q 90 196 90 154 l 90 638 l 21 638 l 21 813 l 90 813 l 90 981 l 271 1026 l 271 813 l 449 813 l 449 638 l 271 638 l 271 244 q 340 175 271 175 l 463 175 l 463 0 z "},"u":{"ha":699,"x_min":69,"x_max":629,"o":"m 629 0 l 449 0 l 449 50 q 397 14 432 29 q 331 -1 363 -1 l 263 -1 q 185 14 221 -1 q 124 56 150 29 q 84 118 99 82 q 69 196 69 154 l 69 819 l 250 819 l 250 244 q 319 175 250 175 l 379 175 q 449 244 449 175 l 449 819 l 629 819 l 629 0 z "},"v":{"ha":694,"x_min":28,"x_max":667,"o":"m 667 819 l 438 0 l 258 0 l 28 819 l 213 819 l 335 360 q 339 349 336 356 q 347 343 342 343 q 356 349 354 343 q 360 360 358 356 l 482 819 l 667 819 z "},"w":{"ha":799,"x_min":28,"x_max":771,"o":"m 771 819 l 639 0 l 488 0 l 413 253 q 400 268 407 268 q 388 253 393 268 l 313 0 l 161 0 l 28 819 l 213 819 l 272 401 q 276 391 274 397 q 285 385 279 385 q 294 391 292 385 q 297 401 296 397 l 385 663 q 392 676 388 674 q 400 679 396 679 q 408 676 404 679 q 415 663 413 674 l 501 401 q 506 391 503 397 q 514 385 508 385 q 524 391 521 385 q 526 401 526 397 l 586 819 l 771 819 z "},"x":{"ha":735,"x_min":69,"x_max":665,"o":"m 665 0 l 485 0 l 485 47 q 481 80 485 63 q 469 111 478 97 l 367 267 l 268 111 q 254 78 258 96 q 250 44 250 60 l 250 0 l 69 0 l 69 54 q 100 161 69 114 l 268 411 l 100 663 q 69 768 69 710 l 69 819 l 250 819 l 250 776 q 254 744 250 763 q 268 711 258 726 l 367 557 l 469 713 q 481 742 478 725 q 485 775 485 760 l 485 819 l 665 819 l 665 768 q 658 713 665 740 q 636 663 651 686 l 467 413 l 636 161 q 658 110 651 138 q 665 54 665 82 l 665 0 z "},"y":{"ha":694,"x_min":28,"x_max":667,"o":"m 667 819 l 408 -99 q 372 -180 396 -146 q 318 -235 349 -214 q 251 -267 288 -257 q 176 -278 215 -278 l 101 -278 l 101 -103 l 157 -103 q 250 -31 229 -103 l 258 0 l 28 819 l 213 819 l 333 346 q 338 335 335 342 q 346 329 340 329 q 355 335 353 329 q 358 346 357 342 l 482 819 l 667 819 z "},"z":{"ha":711,"x_min":69,"x_max":642,"o":"m 642 0 l 69 0 l 69 139 l 413 644 l 69 644 l 69 819 l 642 819 l 642 681 l 300 175 l 642 175 l 642 0 z "},"{":{"ha":419,"x_min":21,"x_max":447,"o":"m 447 -258 l 282 -258 q 167 -217 207 -258 q 126 -103 126 -176 l 126 383 q 110 463 126 432 q 47 513 94 493 q 21 541 21 524 q 46 568 21 558 q 108 617 90 586 q 126 699 126 649 l 126 1201 q 167 1316 126 1275 q 282 1357 207 1357 l 447 1357 l 447 1196 l 351 1196 q 299 1142 299 1193 l 299 658 q 281 593 299 614 q 232 558 264 572 q 221 549 221 554 q 232 539 221 543 q 281 504 264 525 q 299 439 299 483 l 299 -43 q 351 -97 299 -97 l 447 -97 l 447 -258 z "},"|":{"ha":611,"x_min":229,"x_max":382,"o":"m 382 -97 l 229 -97 l 229 1194 l 382 1194 l 382 -97 z "},"}":{"ha":419,"x_min":-28,"x_max":400,"o":"m 374 568 q 400 541 400 558 q 372 513 400 524 q 309 463 325 493 q 293 383 293 432 l 293 -103 q 253 -217 293 -176 q 138 -258 213 -258 l -28 -258 l -28 -97 l 68 -97 q 122 -43 122 -97 l 122 439 q 139 504 122 483 q 188 539 156 525 q 188 558 211 549 q 139 593 156 572 q 122 658 122 614 l 122 1142 q 68 1196 122 1193 l -28 1196 l -28 1357 l 138 1357 q 253 1316 213 1357 q 293 1201 293 1275 l 293 699 q 311 617 293 649 q 374 568 329 586 z "},"~":{"ha":815,"x_min":69,"x_max":746,"o":"m 746 582 l 744 540 q 692 374 742 426 q 536 322 643 322 q 466 335 500 322 q 400 362 432 347 q 339 389 368 376 q 285 401 310 401 q 217 325 218 403 l 69 325 l 71 364 q 123 529 74 476 q 278 582 172 582 q 349 569 317 582 q 410 542 381 557 q 469 514 440 526 q 532 501 499 501 q 582 524 568 501 q 596 582 596 547 l 746 582 z "},"":{"ha":1389,"x_min":0,"x_max":0,"o":""},"Ä":{"ha":847,"x_min":76,"x_max":771,"o":"m 642 1167 l 474 1167 l 474 1326 l 642 1326 l 642 1167 m 369 1167 l 204 1167 l 204 1326 l 369 1326 l 369 1167 m 771 0 l 569 0 l 533 182 l 314 182 l 278 0 l 76 0 l 329 1097 l 518 1097 l 771 0 m 497 371 l 438 681 q 433 694 436 686 q 424 703 431 703 q 414 694 417 703 q 410 681 411 686 l 350 371 l 497 371 z "},"Å":{"ha":847,"x_min":76,"x_max":771,"o":"m 581 1315 q 569 1253 581 1283 q 536 1201 557 1224 q 487 1166 515 1179 q 425 1153 458 1153 q 363 1166 392 1153 q 313 1201 333 1179 q 280 1253 292 1224 q 268 1315 268 1282 q 280 1378 268 1349 q 313 1431 292 1408 q 363 1466 333 1453 q 425 1479 392 1479 q 487 1466 458 1479 q 536 1430 515 1453 q 569 1378 557 1407 q 581 1315 581 1349 m 771 0 l 569 0 l 533 182 l 314 182 l 278 0 l 76 0 l 329 1097 l 518 1097 l 771 0 m 479 1317 q 463 1358 479 1340 q 424 1375 447 1375 q 384 1358 400 1375 q 368 1317 368 1340 q 384 1276 368 1293 q 424 1258 400 1258 q 463 1276 447 1258 q 479 1317 479 1293 m 497 371 l 438 681 q 433 694 436 686 q 424 703 431 703 q 414 694 417 703 q 410 681 411 686 l 350 371 l 497 371 z "},"Ç":{"ha":847,"x_min":76,"x_max":771,"o":"m 771 226 q 747 141 767 182 q 694 69 726 100 q 617 19 661 38 q 521 0 572 0 l 486 0 l 476 -49 q 519 -53 500 -49 q 551 -71 538 -58 q 572 -106 565 -83 q 579 -164 579 -128 q 548 -254 579 -231 q 446 -278 517 -278 l 326 -278 l 326 -201 l 371 -201 q 397 -200 385 -201 q 447 -156 447 -200 q 394 -111 447 -111 l 346 -111 l 365 0 l 326 0 q 228 19 274 0 q 149 73 183 39 q 96 152 115 107 q 76 250 76 197 l 76 847 q 96 944 76 899 q 149 1024 115 990 q 228 1078 183 1058 q 326 1097 274 1097 l 521 1097 q 617 1078 572 1097 q 694 1028 661 1060 q 747 956 726 997 q 771 868 767 914 l 576 819 q 551 882 576 856 q 479 908 526 908 l 368 908 q 271 811 271 908 l 271 286 q 368 189 271 189 l 479 189 q 551 212 525 189 q 576 275 576 235 l 771 226 z "},"É":{"ha":847,"x_min":76,"x_max":771,"o":"m 625 1322 l 413 1151 l 340 1224 l 517 1439 l 625 1322 m 771 0 l 76 0 l 76 1097 l 771 1097 l 771 908 l 271 908 l 271 643 l 632 643 l 632 454 l 271 454 l 271 189 l 771 189 l 771 0 z "},"Ñ":{"ha":847,"x_min":76,"x_max":771,"o":"m 651 1333 l 651 1306 q 616 1196 649 1231 q 513 1161 583 1161 q 466 1169 489 1161 q 422 1188 443 1178 q 381 1206 400 1197 q 344 1214 361 1214 q 300 1163 300 1214 l 201 1163 l 201 1189 q 237 1299 204 1264 q 340 1333 269 1335 q 387 1325 365 1333 q 428 1307 408 1317 q 468 1289 449 1297 q 510 1281 488 1281 q 543 1296 533 1281 q 553 1333 553 1311 l 651 1333 m 771 0 l 589 0 l 271 639 l 271 0 l 76 0 l 76 1097 l 260 1097 l 576 456 l 576 1097 l 771 1097 l 771 0 z "},"Ö":{"ha":847,"x_min":76,"x_max":771,"o":"m 644 1163 l 476 1163 l 476 1322 l 644 1322 l 644 1163 m 372 1163 l 207 1163 l 207 1322 l 372 1322 l 372 1163 m 771 250 q 751 152 771 197 q 698 73 732 107 q 618 19 664 39 q 521 0 572 0 l 326 0 q 228 19 274 0 q 149 72 183 39 q 96 151 115 106 q 76 250 76 197 l 76 847 q 96 944 76 899 q 149 1024 115 990 q 228 1078 183 1058 q 326 1097 274 1097 l 521 1097 q 618 1078 572 1097 q 698 1024 664 1058 q 751 944 732 990 q 771 847 771 899 l 771 250 m 576 286 l 576 811 q 479 908 576 908 l 368 908 q 271 811 271 908 l 271 286 q 368 189 271 189 l 479 189 q 551 215 526 189 q 576 286 576 240 z "},"Ü":{"ha":847,"x_min":76,"x_max":771,"o":"m 640 1163 l 472 1163 l 472 1322 l 640 1322 l 640 1163 m 368 1163 l 201 1163 l 201 1322 l 368 1322 l 368 1163 m 771 250 q 751 152 771 197 q 698 73 732 107 q 618 19 664 39 q 521 0 572 0 l 326 0 q 228 19 274 0 q 149 73 182 39 q 96 152 115 107 q 76 250 76 197 l 76 1097 l 271 1097 l 271 286 q 368 189 271 189 l 479 189 q 576 286 576 189 l 576 1097 l 771 1097 l 771 250 z "},"á":{"ha":692,"x_min":56,"x_max":622,"o":"m 529 1044 l 317 874 l 244 946 l 421 1161 l 529 1044 m 622 0 l 476 0 l 456 49 q 413 14 442 28 q 351 0 385 0 l 250 0 q 173 15 208 0 q 111 56 138 29 q 70 118 85 82 q 56 196 56 154 l 56 307 q 70 385 56 349 q 111 447 85 421 q 173 488 138 472 q 250 503 208 503 l 442 503 l 442 574 q 372 644 442 644 l 304 644 q 251 628 267 644 q 233 582 236 613 l 63 625 l 63 638 q 117 771 63 722 q 258 819 172 819 l 428 819 q 505 805 469 819 q 567 765 540 790 q 608 703 593 739 q 622 625 622 667 l 622 0 m 442 244 l 442 326 l 306 326 q 253 310 269 326 q 236 256 236 293 l 236 244 q 306 175 236 175 l 372 175 q 442 244 442 175 z "},"à":{"ha":692,"x_min":56,"x_max":622,"o":"m 464 946 l 390 874 l 178 1044 l 288 1161 l 464 946 m 622 0 l 476 0 l 456 49 q 413 14 442 28 q 351 0 385 0 l 250 0 q 173 15 208 0 q 111 56 138 29 q 70 118 85 82 q 56 196 56 154 l 56 307 q 70 385 56 349 q 111 447 85 421 q 173 488 138 472 q 250 503 208 503 l 442 503 l 442 574 q 372 644 442 644 l 304 644 q 251 628 267 644 q 233 582 236 613 l 63 625 l 63 638 q 117 771 63 722 q 258 819 172 819 l 428 819 q 505 805 469 819 q 567 765 540 790 q 608 703 593 739 q 622 625 622 667 l 622 0 m 442 244 l 442 326 l 306 326 q 253 310 269 326 q 236 256 236 293 l 236 244 q 306 175 236 175 l 372 175 q 442 244 442 175 z "},"â":{"ha":692,"x_min":56,"x_max":622,"o":"m 567 910 l 425 875 l 340 967 l 257 874 l 115 908 l 272 1083 l 410 1083 l 567 910 m 622 0 l 476 0 l 456 49 q 413 14 442 28 q 351 0 385 0 l 250 0 q 173 15 208 0 q 111 56 138 29 q 70 118 85 82 q 56 196 56 154 l 56 307 q 70 385 56 349 q 111 447 85 421 q 173 488 138 472 q 250 503 208 503 l 442 503 l 442 574 q 372 644 442 644 l 304 644 q 251 628 267 644 q 233 582 236 613 l 63 625 l 63 638 q 117 771 63 722 q 258 819 172 819 l 428 819 q 505 805 469 819 q 567 765 540 790 q 608 703 593 739 q 622 625 622 667 l 622 0 m 442 244 l 442 326 l 306 326 q 253 310 269 326 q 236 256 236 293 l 236 244 q 306 175 236 175 l 372 175 q 442 244 442 175 z "},"ä":{"ha":692,"x_min":56,"x_max":622,"o":"m 569 889 l 401 889 l 401 1047 l 569 1047 l 569 889 m 297 889 l 131 889 l 131 1047 l 297 1047 l 297 889 m 622 0 l 476 0 l 456 49 q 413 14 442 28 q 351 0 385 0 l 250 0 q 173 15 208 0 q 111 56 138 29 q 70 118 85 82 q 56 196 56 154 l 56 307 q 70 385 56 349 q 111 447 85 421 q 173 488 138 472 q 250 503 208 503 l 442 503 l 442 574 q 372 644 442 644 l 304 644 q 251 628 267 644 q 233 582 236 613 l 63 625 l 63 638 q 117 771 63 722 q 258 819 172 819 l 428 819 q 505 805 469 819 q 567 765 540 790 q 608 703 593 739 q 622 625 622 667 l 622 0 m 442 244 l 442 326 l 306 326 q 253 310 269 326 q 236 256 236 293 l 236 244 q 306 175 236 175 l 372 175 q 442 244 442 175 z "},"ã":{"ha":692,"x_min":56,"x_max":622,"o":"m 572 1060 l 571 1032 q 537 922 569 957 q 433 886 504 886 q 385 894 408 886 q 341 913 363 903 q 301 931 319 922 q 265 940 282 940 q 219 889 219 940 l 121 889 l 122 915 q 157 1025 125 990 q 260 1060 189 1060 q 308 1051 286 1060 q 349 1033 329 1043 q 389 1015 369 1024 q 431 1007 408 1007 q 463 1022 454 1007 q 472 1060 472 1036 l 572 1060 m 622 0 l 476 0 l 456 49 q 413 14 442 28 q 351 0 385 0 l 250 0 q 173 15 208 0 q 111 56 138 29 q 70 118 85 82 q 56 196 56 154 l 56 307 q 70 385 56 349 q 111 447 85 421 q 173 488 138 472 q 250 503 208 503 l 442 503 l 442 574 q 372 644 442 644 l 304 644 q 251 628 267 644 q 233 582 236 613 l 63 625 l 63 638 q 117 771 63 722 q 258 819 172 819 l 428 819 q 505 805 469 819 q 567 765 540 790 q 608 703 593 739 q 622 625 622 667 l 622 0 m 442 244 l 442 326 l 306 326 q 253 310 269 326 q 236 256 236 293 l 236 244 q 306 175 236 175 l 372 175 q 442 244 442 175 z "},"å":{"ha":692,"x_min":56,"x_max":622,"o":"m 508 1038 q 497 975 508 1004 q 464 924 485 946 q 415 888 443 901 q 353 875 386 875 q 290 888 319 875 q 240 924 261 901 q 208 975 219 946 q 196 1038 196 1004 q 208 1100 196 1071 q 240 1152 219 1129 q 290 1188 261 1175 q 353 1201 319 1201 q 415 1188 386 1201 q 464 1152 443 1175 q 497 1100 485 1129 q 508 1038 508 1071 m 622 0 l 476 0 l 456 49 q 413 14 442 28 q 351 0 385 0 l 250 0 q 173 15 208 0 q 111 56 138 29 q 70 118 85 82 q 56 196 56 154 l 56 307 q 70 385 56 349 q 111 447 85 421 q 173 488 138 472 q 250 503 208 503 l 442 503 l 442 574 q 372 644 442 644 l 304 644 q 251 628 267 644 q 233 582 236 613 l 63 625 l 63 638 q 117 771 63 722 q 258 819 172 819 l 428 819 q 505 805 469 819 q 567 765 540 790 q 608 703 593 739 q 622 625 622 667 l 622 0 m 407 1039 q 391 1079 407 1063 q 351 1096 375 1096 q 312 1079 328 1096 q 296 1039 296 1063 q 312 998 296 1015 q 351 981 328 981 q 391 998 375 981 q 407 1039 407 1015 m 442 244 l 442 326 l 306 326 q 253 310 269 326 q 236 256 236 293 l 236 244 q 306 175 236 175 l 372 175 q 442 244 442 175 z "},"ç":{"ha":715,"x_min":69,"x_max":646,"o":"m 646 192 q 631 115 646 150 q 590 54 615 79 q 529 15 564 29 q 453 0 494 0 l 403 0 l 393 -49 q 435 -53 417 -49 q 468 -71 454 -58 q 489 -106 482 -83 q 496 -164 496 -128 q 465 -254 496 -231 q 363 -278 433 -278 l 243 -278 l 243 -201 l 288 -201 q 314 -200 301 -201 q 364 -156 364 -200 q 311 -111 364 -111 l 263 -111 l 282 0 l 263 0 q 185 15 221 0 q 124 55 150 29 q 84 117 99 81 q 69 194 69 153 l 69 625 q 84 703 69 667 q 124 765 99 739 q 185 805 150 790 q 263 819 221 819 l 453 819 q 530 805 494 819 q 591 765 565 790 q 631 705 617 740 q 646 628 646 669 l 465 582 q 396 644 461 644 l 319 644 q 250 574 250 644 l 250 246 q 319 175 250 175 l 396 175 q 465 238 461 175 l 646 192 z "},"é":{"ha":706,"x_min":69,"x_max":636,"o":"m 539 1044 l 326 874 l 253 946 l 431 1161 l 539 1044 m 636 317 l 250 317 l 250 246 q 321 175 250 175 l 389 175 q 440 191 425 175 q 458 238 456 207 l 629 194 l 629 182 q 574 49 629 97 q 435 0 519 0 l 265 0 q 188 15 224 0 q 125 55 151 29 q 84 117 99 81 q 69 194 69 153 l 69 625 q 84 702 69 667 q 124 764 99 738 q 185 805 150 790 q 263 819 221 819 l 442 819 q 519 805 483 819 q 581 764 556 790 q 622 701 607 738 q 636 624 636 665 l 636 317 m 456 575 q 386 644 457 644 l 321 644 q 267 628 283 644 q 250 575 250 611 l 250 493 l 456 493 l 456 575 z "},"è":{"ha":706,"x_min":69,"x_max":636,"o":"m 486 946 l 413 874 l 200 1044 l 310 1161 l 486 946 m 636 317 l 250 317 l 250 246 q 321 175 250 175 l 389 175 q 440 191 425 175 q 458 238 456 207 l 629 194 l 629 182 q 574 49 629 97 q 435 0 519 0 l 265 0 q 188 15 224 0 q 125 55 151 29 q 84 117 99 81 q 69 194 69 153 l 69 625 q 84 702 69 667 q 124 764 99 738 q 185 805 150 790 q 263 819 221 819 l 442 819 q 519 805 483 819 q 581 764 556 790 q 622 701 607 738 q 636 624 636 665 l 636 317 m 456 575 q 386 644 457 644 l 321 644 q 267 628 283 644 q 250 575 250 611 l 250 493 l 456 493 l 456 575 z "},"ê":{"ha":706,"x_min":69,"x_max":636,"o":"m 582 910 l 440 875 l 357 967 l 272 874 l 131 908 l 289 1083 l 425 1083 l 582 910 m 636 317 l 250 317 l 250 246 q 321 175 250 175 l 389 175 q 440 191 425 175 q 458 238 456 207 l 629 194 l 629 182 q 574 49 629 97 q 435 0 519 0 l 265 0 q 188 15 224 0 q 125 55 151 29 q 84 117 99 81 q 69 194 69 153 l 69 625 q 84 702 69 667 q 124 764 99 738 q 185 805 150 790 q 263 819 221 819 l 442 819 q 519 805 483 819 q 581 764 556 790 q 622 701 607 738 q 636 624 636 665 l 636 317 m 456 575 q 386 644 457 644 l 321 644 q 267 628 283 644 q 250 575 250 611 l 250 493 l 456 493 l 456 575 z "},"ë":{"ha":706,"x_min":69,"x_max":636,"o":"m 576 886 l 408 886 l 408 1044 l 576 1044 l 576 886 m 304 886 l 138 886 l 138 1044 l 304 1044 l 304 886 m 636 317 l 250 317 l 250 246 q 321 175 250 175 l 389 175 q 440 191 425 175 q 458 238 456 207 l 629 194 l 629 182 q 574 49 629 97 q 435 0 519 0 l 265 0 q 188 15 224 0 q 125 55 151 29 q 84 117 99 81 q 69 194 69 153 l 69 625 q 84 702 69 667 q 124 764 99 738 q 185 805 150 790 q 263 819 221 819 l 442 819 q 519 805 483 819 q 581 764 556 790 q 622 701 607 738 q 636 624 636 665 l 636 317 m 456 575 q 386 644 457 644 l 321 644 q 267 628 283 644 q 250 575 250 611 l 250 493 l 456 493 l 456 575 z "},"í":{"ha":319,"x_min":22,"x_max":308,"o":"m 308 1044 l 96 874 l 22 946 l 200 1161 l 308 1044 m 250 0 l 69 0 l 69 819 l 250 819 l 250 0 z "},"ì":{"ha":319,"x_min":7,"x_max":293,"o":"m 293 946 l 219 874 l 7 1044 l 117 1161 l 293 946 m 250 0 l 69 0 l 69 819 l 250 819 l 250 0 z "},"î":{"ha":319,"x_min":-53,"x_max":371,"o":"m 371 908 l 238 874 l 160 965 l 81 872 l -53 907 l 96 1083 l 224 1083 l 371 908 m 250 0 l 69 0 l 69 819 l 250 819 l 250 0 z "},"ï":{"ha":319,"x_min":-58,"x_max":379,"o":"m 379 889 l 211 889 l 211 1047 l 379 1047 l 379 889 m 107 889 l -58 889 l -58 1047 l 107 1047 l 107 889 m 250 0 l 69 0 l 69 819 l 250 819 l 250 0 z "},"ñ":{"ha":699,"x_min":69,"x_max":629,"o":"m 585 1060 l 583 1032 q 548 922 581 957 q 444 886 515 886 q 398 894 421 886 q 353 913 375 903 q 313 931 332 922 q 276 940 293 940 q 232 889 232 940 l 133 889 l 133 915 q 169 1025 136 990 q 272 1060 201 1060 q 319 1051 297 1060 q 360 1033 340 1043 q 400 1015 381 1024 q 442 1007 419 1007 q 475 1022 465 1007 q 485 1060 485 1036 l 585 1060 m 629 0 l 449 0 l 449 574 q 379 644 449 644 l 319 644 q 250 574 250 644 l 250 0 l 69 0 l 69 819 l 250 819 l 250 769 q 301 805 267 790 q 368 819 336 819 l 436 819 q 513 805 478 819 q 574 764 549 790 q 615 701 600 738 q 629 624 629 665 l 629 0 z "},"ó":{"ha":715,"x_min":69,"x_max":646,"o":"m 515 1044 l 303 874 l 229 946 l 406 1161 l 515 1044 m 646 194 q 631 117 646 153 q 590 55 617 81 q 528 15 564 29 q 451 0 493 0 l 264 0 q 187 15 222 0 q 125 55 151 29 q 84 117 99 81 q 69 194 69 153 l 69 625 q 84 703 69 667 q 125 765 99 739 q 187 805 151 790 q 264 819 222 819 l 451 819 q 528 805 493 819 q 590 764 564 790 q 631 701 617 738 q 646 624 646 665 l 646 194 m 465 246 l 465 574 q 396 644 465 644 l 319 644 q 250 574 250 644 l 250 246 q 319 175 250 175 l 396 175 q 465 246 465 175 z "},"ò":{"ha":715,"x_min":69,"x_max":646,"o":"m 486 946 l 414 874 l 201 1044 l 310 1161 l 486 946 m 646 194 q 631 117 646 153 q 590 55 617 81 q 528 15 564 29 q 451 0 493 0 l 264 0 q 187 15 222 0 q 125 55 151 29 q 84 117 99 81 q 69 194 69 153 l 69 625 q 84 703 69 667 q 125 765 99 739 q 187 805 151 790 q 264 819 222 819 l 451 819 q 528 805 493 819 q 590 764 564 790 q 631 701 617 738 q 646 624 646 665 l 646 194 m 465 246 l 465 574 q 396 644 465 644 l 319 644 q 250 574 250 644 l 250 246 q 319 175 250 175 l 396 175 q 465 246 465 175 z "},"ô":{"ha":715,"x_min":69,"x_max":646,"o":"m 583 910 l 442 875 l 357 967 l 274 874 l 132 908 l 289 1083 l 425 1083 l 583 910 m 646 194 q 631 117 646 153 q 590 55 617 81 q 528 15 564 29 q 451 0 493 0 l 264 0 q 187 15 222 0 q 125 55 151 29 q 84 117 99 81 q 69 194 69 153 l 69 625 q 84 703 69 667 q 125 765 99 739 q 187 805 151 790 q 264 819 222 819 l 451 819 q 528 805 493 819 q 590 764 564 790 q 631 701 617 738 q 646 624 646 665 l 646 194 m 465 246 l 465 574 q 396 644 465 644 l 319 644 q 250 574 250 644 l 250 246 q 319 175 250 175 l 396 175 q 465 246 465 175 z "},"ö":{"ha":715,"x_min":69,"x_max":646,"o":"m 576 889 l 408 889 l 408 1047 l 576 1047 l 576 889 m 304 889 l 139 889 l 139 1047 l 304 1047 l 304 889 m 646 194 q 631 117 646 153 q 590 55 617 81 q 528 15 564 29 q 451 0 493 0 l 264 0 q 187 15 222 0 q 125 55 151 29 q 84 117 99 81 q 69 194 69 153 l 69 625 q 84 703 69 667 q 125 765 99 739 q 187 805 151 790 q 264 819 222 819 l 451 819 q 528 805 493 819 q 590 764 564 790 q 631 701 617 738 q 646 624 646 665 l 646 194 m 465 246 l 465 574 q 396 644 465 644 l 319 644 q 250 574 250 644 l 250 246 q 319 175 250 175 l 396 175 q 465 246 465 175 z "},"õ":{"ha":715,"x_min":69,"x_max":646,"o":"m 581 1060 l 581 1032 q 545 922 578 957 q 442 886 513 886 q 394 894 417 886 q 350 913 371 903 q 310 931 329 922 q 274 940 290 940 q 229 889 229 940 l 131 889 l 131 915 q 166 1025 133 990 q 269 1060 199 1060 q 316 1051 294 1060 q 358 1033 338 1043 q 397 1015 378 1024 q 439 1007 417 1007 q 472 1022 463 1007 q 482 1060 481 1036 l 581 1060 m 646 194 q 631 117 646 153 q 590 55 617 81 q 528 15 564 29 q 451 0 493 0 l 264 0 q 187 15 222 0 q 125 55 151 29 q 84 117 99 81 q 69 194 69 153 l 69 625 q 84 703 69 667 q 125 765 99 739 q 187 805 151 790 q 264 819 222 819 l 451 819 q 528 805 493 819 q 590 764 564 790 q 631 701 617 738 q 646 624 646 665 l 646 194 m 465 246 l 465 574 q 396 644 465 644 l 319 644 q 250 574 250 644 l 250 246 q 319 175 250 175 l 396 175 q 465 246 465 175 z "},"ú":{"ha":699,"x_min":69,"x_max":629,"o":"m 503 1044 l 290 874 l 218 946 l 394 1161 l 503 1044 m 629 0 l 449 0 l 449 50 q 397 14 432 29 q 331 -1 363 -1 l 263 -1 q 185 14 221 -1 q 124 56 150 29 q 84 118 99 82 q 69 196 69 154 l 69 819 l 250 819 l 250 244 q 319 175 250 175 l 379 175 q 449 244 449 175 l 449 819 l 629 819 l 629 0 z "},"ù":{"ha":699,"x_min":69,"x_max":629,"o":"m 488 946 l 415 874 l 203 1044 l 311 1161 l 488 946 m 629 0 l 449 0 l 449 50 q 397 14 432 29 q 331 -1 363 -1 l 263 -1 q 185 14 221 -1 q 124 56 150 29 q 84 118 99 82 q 69 196 69 154 l 69 819 l 250 819 l 250 244 q 319 175 250 175 l 379 175 q 449 244 449 175 l 449 819 l 629 819 l 629 0 z "},"û":{"ha":699,"x_min":69,"x_max":629,"o":"m 578 910 l 436 875 l 353 967 l 268 874 l 126 908 l 285 1083 l 421 1083 l 578 910 m 629 0 l 449 0 l 449 50 q 397 14 432 29 q 331 -1 363 -1 l 263 -1 q 185 14 221 -1 q 124 56 150 29 q 84 118 99 82 q 69 196 69 154 l 69 819 l 250 819 l 250 244 q 319 175 250 175 l 379 175 q 449 244 449 175 l 449 819 l 629 819 l 629 0 z "},"ü":{"ha":699,"x_min":69,"x_max":629,"o":"m 571 889 l 404 889 l 404 1047 l 571 1047 l 571 889 m 300 889 l 133 889 l 133 1047 l 300 1047 l 300 889 m 629 0 l 449 0 l 449 50 q 397 14 432 29 q 331 -1 363 -1 l 263 -1 q 185 14 221 -1 q 124 56 150 29 q 84 118 99 82 q 69 196 69 154 l 69 819 l 250 819 l 250 244 q 319 175 250 175 l 379 175 q 449 244 449 175 l 449 819 l 629 819 l 629 0 z "},"†":{"ha":469,"x_min":63,"x_max":407,"o":"m 407 871 l 282 871 l 282 411 l 188 411 l 188 871 l 63 871 l 63 958 l 188 958 l 188 1097 l 282 1097 l 282 958 l 407 958 l 407 871 z "},"°":{"ha":557,"x_min":56,"x_max":501,"o":"m 501 876 q 484 790 501 831 q 436 719 467 749 q 365 672 406 689 q 278 654 324 654 q 191 672 232 654 q 120 719 150 689 q 73 790 90 749 q 56 876 56 831 q 73 963 56 922 q 120 1034 90 1004 q 191 1081 150 1064 q 278 1099 232 1099 q 365 1081 324 1099 q 436 1034 406 1064 q 484 964 467 1004 q 501 876 501 924 m 367 878 q 341 941 367 914 q 278 968 315 968 q 214 941 240 968 q 188 878 188 914 q 214 814 188 840 q 278 788 240 788 q 341 814 315 788 q 367 878 367 840 z "},"¢":{"ha":715,"x_min":69,"x_max":646,"o":"m 646 374 q 631 297 646 332 q 590 236 615 261 q 529 197 564 211 q 453 182 494 182 l 435 182 l 435 85 l 279 85 l 279 182 l 263 182 q 185 197 221 182 q 124 237 150 211 q 84 299 99 263 q 69 376 69 335 l 69 807 q 84 885 69 849 q 124 947 99 921 q 185 987 150 972 q 263 1001 221 1001 l 279 1001 l 279 1097 l 435 1097 l 435 1001 l 453 1001 q 530 987 494 1001 q 591 947 565 972 q 631 887 617 922 q 646 810 646 851 l 465 764 q 447 811 463 796 q 397 826 432 826 l 321 826 q 250 756 250 826 l 250 428 q 321 357 250 357 l 397 357 q 447 372 432 357 q 465 419 463 388 l 646 374 z "},"£":{"ha":842,"x_min":76,"x_max":765,"o":"m 765 869 l 571 821 q 545 883 569 858 q 474 908 521 908 l 424 908 q 351 882 376 908 q 325 818 325 856 q 333 737 325 782 q 351 643 340 692 l 528 643 l 528 454 l 386 454 q 390 297 401 358 q 329 206 378 236 q 315 196 321 200 q 311 189 308 192 l 751 189 l 751 0 l 76 0 l 76 189 q 135 214 108 197 q 179 260 163 231 q 201 337 196 290 q 194 454 206 383 l 76 454 l 76 643 l 160 643 q 151 693 156 665 q 142 749 146 721 q 135 803 138 776 q 132 849 132 829 q 151 942 132 897 q 203 1022 169 988 q 282 1076 236 1056 q 382 1097 328 1097 l 515 1097 q 613 1078 568 1097 q 690 1028 657 1060 q 742 956 722 997 q 765 869 761 914 z "},"§":{"ha":681,"x_min":69,"x_max":611,"o":"m 611 908 l 435 864 q 417 910 432 897 q 375 922 403 922 l 306 922 q 260 910 274 922 q 247 868 247 899 q 279 825 247 836 l 478 751 q 576 678 540 728 q 611 560 611 629 l 611 510 q 599 438 611 472 q 560 376 586 403 q 590 334 579 356 q 606 289 600 313 q 609 265 608 278 q 611 240 610 253 l 611 186 q 597 112 611 146 q 559 53 583 78 q 501 14 535 28 q 428 0 468 0 l 254 0 q 181 14 214 0 q 123 53 147 28 q 84 113 99 78 q 69 189 69 147 l 247 233 q 263 187 249 200 q 306 174 278 174 l 376 174 q 422 188 408 174 q 435 233 435 201 q 424 258 435 250 q 397 274 413 267 l 208 343 q 108 417 147 365 q 69 535 69 468 l 69 588 q 83 660 69 625 q 124 722 96 696 q 92 765 103 744 q 76 808 82 785 q 72 832 74 819 q 69 857 71 844 l 69 911 q 83 985 69 951 q 122 1044 97 1019 q 179 1083 146 1069 q 253 1097 213 1097 l 428 1097 q 501 1083 467 1097 q 559 1044 535 1069 q 597 985 583 1019 q 611 908 611 950 m 435 547 q 431 570 435 563 q 419 585 426 578 q 410 590 415 588 q 400 594 406 592 q 390 599 394 597 q 378 603 385 600 q 356 611 371 606 q 325 624 342 617 q 297 635 310 631 q 279 639 283 639 q 260 628 267 639 q 251 602 254 617 q 247 573 247 588 q 246 550 246 558 q 258 516 246 526 q 292 497 271 506 q 313 489 299 494 q 343 478 328 483 q 373 467 360 471 q 390 463 386 463 q 410 472 401 463 q 424 494 418 481 q 432 522 429 507 q 435 547 435 536 z "},"•":{"ha":475,"x_min":0,"x_max":336,"o":"m 336 549 q 323 483 336 514 q 287 430 310 453 q 233 394 264 407 q 168 381 203 381 q 103 394 133 381 q 49 430 72 407 q 13 483 26 453 q 0 549 0 514 q 13 614 0 583 q 49 667 26 644 q 103 703 72 690 q 168 717 133 717 q 233 703 203 717 q 287 667 264 690 q 323 614 310 644 q 336 549 336 583 z "},"¶":{"ha":653,"x_min":76,"x_max":576,"o":"m 576 0 l 382 0 l 382 451 l 326 451 q 228 471 274 451 q 149 524 183 490 q 96 603 115 557 q 76 701 76 649 l 76 847 q 96 944 76 899 q 149 1024 115 990 q 228 1078 183 1058 q 326 1097 274 1097 l 576 1097 l 576 0 z "},"ß":{"ha":707,"x_min":69,"x_max":638,"o":"m 638 194 q 623 117 638 153 q 582 56 608 82 q 520 15 556 29 q 443 0 485 0 l 304 0 l 304 175 l 388 175 q 457 244 457 175 l 457 407 q 388 476 457 476 l 304 476 l 304 651 l 388 651 q 440 674 424 651 q 457 735 457 697 l 457 853 q 396 922 457 922 l 319 922 q 266 905 282 922 q 250 851 250 888 l 250 0 l 69 0 l 69 900 q 84 978 69 942 q 125 1040 99 1014 q 187 1082 151 1067 q 264 1097 222 1097 l 443 1097 q 520 1083 485 1097 q 582 1042 556 1068 q 623 980 608 1015 q 638 903 638 944 l 638 732 q 628 660 638 690 q 604 611 618 631 q 574 581 590 592 q 544 564 558 569 q 575 546 558 557 q 606 515 592 535 q 628 466 619 496 q 638 394 638 436 l 638 194 z "},"®":{"ha":1260,"x_min":76,"x_max":1183,"o":"m 1183 547 q 1140 331 1183 432 q 1021 156 1096 231 q 845 38 946 81 q 629 -6 744 -6 q 413 38 514 -6 q 238 156 313 81 q 119 331 163 231 q 76 547 76 432 q 119 763 76 661 q 238 939 163 864 q 413 1058 313 1014 q 629 1101 514 1101 q 845 1058 744 1101 q 1021 939 946 1014 q 1140 763 1096 864 q 1183 547 1183 663 m 1076 547 q 1042 722 1076 640 q 947 865 1007 804 q 804 960 886 925 q 629 994 722 994 q 455 960 536 994 q 313 865 374 925 q 218 722 253 804 q 183 547 183 640 q 218 373 183 454 q 313 231 253 292 q 455 136 374 171 q 629 101 536 101 q 804 136 722 101 q 947 231 886 171 q 1042 373 1007 292 q 1076 547 1076 454 m 867 190 l 732 190 l 624 485 l 543 485 l 543 190 l 417 190 l 417 901 l 704 901 q 767 889 738 901 q 819 854 797 876 q 854 802 842 832 q 867 739 867 772 l 867 647 q 838 540 867 579 q 757 486 808 500 l 867 190 m 740 669 l 740 715 q 724 763 740 747 q 678 779 707 779 l 543 779 l 543 607 l 678 607 q 740 669 740 607 z "},"©":{"ha":1260,"x_min":76,"x_max":1183,"o":"m 1183 547 q 1140 331 1183 432 q 1021 156 1096 231 q 845 38 946 81 q 629 -6 744 -6 q 413 38 514 -6 q 238 156 313 81 q 119 331 163 231 q 76 547 76 432 q 119 763 76 661 q 238 939 163 864 q 413 1058 313 1014 q 629 1101 514 1101 q 845 1058 744 1101 q 1021 939 946 1014 q 1140 763 1096 864 q 1183 547 1183 663 m 1076 547 q 1042 722 1076 640 q 947 865 1007 804 q 804 960 886 925 q 629 994 722 994 q 455 960 536 994 q 313 865 374 925 q 218 722 253 804 q 183 547 183 640 q 218 373 183 454 q 313 231 253 292 q 455 136 374 171 q 629 101 536 101 q 804 136 722 101 q 947 231 886 171 q 1042 373 1007 292 q 1076 547 1076 454 m 885 349 q 871 279 885 311 q 834 224 857 247 q 779 189 811 201 q 710 176 747 176 l 539 176 q 413 226 463 176 q 364 351 364 275 l 364 740 q 413 866 364 817 q 539 915 463 915 l 710 915 q 779 902 747 915 q 834 866 811 889 q 871 812 857 843 q 885 743 885 781 l 721 701 q 658 757 719 757 l 590 757 q 542 742 557 757 q 528 693 528 726 l 528 399 q 542 350 528 365 q 590 335 557 335 l 658 335 q 721 390 719 335 l 885 349 z "},"™":{"ha":868,"x_min":63,"x_max":806,"o":"m 806 549 l 708 549 l 708 810 q 708 816 708 813 q 704 819 707 819 q 700 817 701 819 q 699 811 699 814 l 640 654 q 632 646 638 646 q 625 654 625 646 l 567 811 q 564 815 565 813 q 560 818 563 818 q 556 815 557 818 q 556 810 556 811 l 556 549 l 458 549 l 458 1097 l 549 1097 l 625 882 q 628 876 626 879 q 632 874 629 874 q 636 876 635 874 q 639 882 638 879 l 715 1097 l 806 1097 l 806 549 m 410 1003 l 285 1003 l 285 549 l 188 549 l 188 1003 l 63 1003 l 63 1097 l 410 1097 l 410 1003 z "},"´":{"ha":847,"x_min":231,"x_max":517,"o":"m 517 1044 l 304 874 l 231 946 l 408 1161 l 517 1044 z "},"¨":{"ha":847,"x_min":139,"x_max":576,"o":"m 576 889 l 408 889 l 408 1047 l 576 1047 l 576 889 m 304 889 l 139 889 l 139 1047 l 304 1047 l 304 889 z "},"≠":{"ha":736,"x_min":76,"x_max":660,"o":"m 660 265 l 363 265 l 307 79 l 147 79 l 203 265 l 76 265 l 76 454 l 260 454 l 317 643 l 76 643 l 76 829 l 372 829 l 429 1018 l 589 1018 l 532 829 l 660 829 l 660 643 l 476 643 l 419 454 l 660 454 l 660 265 z "},"Æ":{"ha":1097,"x_min":76,"x_max":1021,"o":"m 1021 0 l 569 0 l 533 182 l 314 182 l 278 0 l 76 0 l 329 1097 l 1021 1097 l 1021 908 l 561 908 l 622 643 l 882 643 l 882 454 l 667 454 l 728 189 l 1021 189 l 1021 0 m 497 371 l 438 681 q 433 694 436 686 q 424 703 431 703 q 414 694 417 703 q 410 681 411 686 l 350 371 l 497 371 z "},"Ø":{"ha":847,"x_min":76,"x_max":771,"o":"m 771 250 q 751 152 771 197 q 698 73 732 107 q 618 19 664 39 q 521 0 572 0 l 336 0 l 307 -97 l 147 -97 l 189 40 q 107 128 138 74 q 76 250 76 183 l 76 847 q 96 944 76 899 q 149 1024 115 990 q 228 1078 183 1058 q 326 1097 274 1097 l 510 1097 l 539 1194 l 699 1194 l 657 1057 q 740 969 710 1024 q 771 847 771 914 l 771 250 m 576 790 l 394 189 l 479 189 q 551 215 526 189 q 576 286 576 240 l 576 790 m 453 908 l 368 908 q 271 811 271 908 l 271 310 l 453 908 z "},"∞":{"ha":915,"x_min":76,"x_max":839,"o":"m 839 546 q 824 463 839 500 q 783 398 810 425 q 720 356 757 371 q 640 342 683 342 q 538 368 582 342 q 458 436 493 394 q 378 369 424 396 q 276 342 333 342 q 132 399 188 342 q 76 549 76 456 q 92 631 76 593 q 134 695 107 668 q 198 737 161 722 q 276 751 235 751 q 378 724 333 751 q 456 657 422 697 q 536 725 492 699 q 639 751 581 751 q 719 736 682 751 q 783 694 756 721 q 824 629 810 667 q 839 546 839 592 m 688 547 q 671 595 688 578 q 628 613 654 613 q 578 594 600 613 q 538 549 556 576 q 579 501 557 521 q 629 482 601 482 q 671 499 654 482 q 688 547 688 517 m 378 546 q 335 593 358 574 q 286 613 313 613 q 243 595 260 613 q 226 546 226 578 q 244 499 226 515 q 286 482 261 482 q 336 500 314 482 q 378 546 358 518 z "},"±":{"ha":736,"x_min":76,"x_max":660,"o":"m 660 601 l 463 601 l 463 401 l 274 401 l 274 601 l 76 601 l 76 785 l 274 785 l 274 985 l 463 985 l 463 785 l 660 785 l 660 601 m 660 106 l 76 106 l 76 294 l 660 294 l 660 106 z "},"≤":{"ha":738,"x_min":76,"x_max":661,"o":"m 661 336 l 78 581 l 78 751 l 661 996 l 661 788 l 331 665 l 661 543 l 661 336 m 660 106 l 76 106 l 76 294 l 660 294 l 660 106 z "},"≥":{"ha":738,"x_min":76,"x_max":661,"o":"m 660 581 l 76 336 l 76 543 l 407 665 l 76 788 l 76 996 l 660 751 l 660 581 m 661 106 l 78 106 l 78 294 l 661 294 l 661 106 z "},"¥":{"ha":847,"x_min":76,"x_max":771,"o":"m 771 285 l 521 285 l 521 0 l 326 0 l 326 285 l 79 285 l 79 451 l 306 451 l 274 521 l 79 521 l 79 688 l 200 688 l 111 883 q 84 960 92 924 q 76 1032 76 996 l 76 1097 l 271 1097 l 271 1054 q 275 1009 271 1033 q 289 964 279 985 l 424 650 l 558 964 q 572 1010 568 986 q 576 1054 576 1033 l 576 1097 l 771 1097 l 771 1031 q 736 883 771 961 l 647 688 l 771 688 l 771 521 l 574 521 l 542 451 l 771 451 l 771 285 z "},"µ":{"ha":699,"x_min":69,"x_max":629,"o":"m 629 196 q 615 118 629 154 q 574 56 600 82 q 513 14 549 29 q 436 -1 478 -1 l 368 -1 q 301 14 336 -1 q 250 50 267 29 l 250 -278 l 69 -278 l 69 819 l 250 819 l 250 244 q 319 175 250 175 l 379 175 q 449 244 449 175 l 449 819 l 629 819 l 629 196 z "},"∂":{"ha":715,"x_min":69,"x_max":646,"o":"m 646 194 q 631 117 646 153 q 590 55 617 81 q 528 15 564 29 q 451 0 493 0 l 264 0 q 187 15 222 0 q 125 55 151 29 q 84 117 99 81 q 69 194 69 153 l 69 625 q 84 703 69 667 q 125 765 99 739 q 187 805 151 790 q 264 819 222 819 l 333 819 l 121 1097 l 336 1097 l 600 753 q 633 694 621 726 q 646 624 646 661 l 646 194 m 465 246 l 465 574 q 396 644 465 644 l 319 644 q 250 574 250 644 l 250 246 q 319 175 250 175 l 396 175 q 465 246 465 175 z "},"∑":{"ha":822,"x_min":76,"x_max":746,"o":"m 746 -276 l 76 -276 l 76 -87 l 431 411 l 76 908 l 76 1097 l 746 1097 l 746 908 l 319 908 l 669 411 l 319 -87 l 746 -87 l 746 -276 z "},"∏":{"ha":875,"x_min":69,"x_max":806,"o":"m 806 908 l 743 908 l 743 -278 l 549 -278 l 549 908 l 326 908 l 326 -278 l 132 -278 l 132 908 l 69 908 l 69 1097 l 806 1097 l 806 908 z "},"π":{"ha":742,"x_min":63,"x_max":679,"o":"m 679 644 l 631 644 l 631 0 l 450 0 l 450 644 l 292 644 l 292 0 l 111 0 l 111 644 l 63 644 l 63 819 l 679 819 l 679 644 z "},"∫":{"ha":493,"x_min":-97,"x_max":590,"o":"m 590 1342 l 569 1189 l 501 1189 q 417 1115 425 1189 l 254 -37 q 180 -186 242 -132 q 24 -240 118 -240 l -97 -240 l -76 -87 l -8 -87 q 50 -66 28 -87 q 78 -8 72 -44 l 238 1125 q 265 1212 243 1172 q 320 1281 288 1251 q 394 1326 353 1310 q 483 1342 436 1342 l 590 1342 z "},"ª":{"ha":456,"x_min":35,"x_max":414,"o":"m 414 549 l 317 549 l 303 581 q 274 558 293 567 q 233 549 256 549 l 165 549 q 72 585 108 549 q 35 679 35 622 l 35 754 q 72 848 35 811 q 165 885 108 885 l 293 885 l 293 932 q 247 979 293 979 l 201 979 q 166 969 176 979 q 154 939 156 958 l 39 967 l 39 976 q 76 1065 39 1033 q 169 1097 113 1097 l 283 1097 q 377 1061 340 1097 q 414 967 414 1025 l 414 549 m 293 713 l 293 767 l 203 767 q 156 719 156 767 l 156 713 q 203 665 156 665 l 247 665 q 293 713 293 665 z "},"º":{"ha":469,"x_min":42,"x_max":428,"o":"m 428 679 q 391 585 428 622 q 297 549 354 549 l 172 549 q 78 585 115 549 q 42 678 42 621 l 42 967 q 78 1061 42 1025 q 172 1097 115 1097 l 297 1097 q 391 1060 354 1097 q 428 967 428 1024 l 428 679 m 307 713 l 307 932 q 260 979 307 979 l 210 979 q 163 932 163 979 l 163 713 q 210 665 163 665 l 260 665 q 307 713 307 665 z "},"Ω":{"ha":847,"x_min":76,"x_max":771,"o":"m 771 0 l 465 0 l 465 229 q 547 269 518 238 q 576 364 576 301 l 576 811 q 479 908 576 908 l 368 908 q 295 883 319 908 q 271 811 271 857 l 271 364 q 301 269 271 301 q 383 228 331 236 l 383 0 l 76 0 l 76 189 l 189 189 l 189 193 q 103 281 129 221 q 76 444 76 340 l 76 847 q 96 944 76 899 q 149 1024 115 990 q 228 1078 183 1058 q 326 1097 274 1097 l 521 1097 q 618 1078 572 1097 q 698 1024 664 1058 q 751 944 732 990 q 771 847 771 899 l 771 444 q 744 281 771 340 q 660 194 718 221 l 660 189 l 771 189 l 771 0 z "},"æ":{"ha":1076,"x_min":56,"x_max":1007,"o":"m 1007 317 l 622 317 l 622 229 q 692 175 628 175 l 760 175 q 812 191 797 175 q 829 238 826 207 l 1000 194 l 1000 182 q 946 49 1000 97 q 806 0 892 0 l 653 0 q 572 14 610 0 q 519 51 535 28 q 495 31 511 40 q 460 14 479 21 q 422 3 442 7 q 388 0 403 0 l 250 0 q 173 15 208 0 q 111 56 138 29 q 70 118 85 82 q 56 196 56 154 l 56 307 q 70 385 56 349 q 111 447 85 421 q 173 488 138 472 q 250 503 208 503 l 440 503 l 440 593 q 372 644 432 644 l 304 644 q 251 628 267 644 q 233 582 236 613 l 63 625 l 63 638 q 117 771 63 722 q 258 819 172 819 l 421 819 q 482 809 450 819 q 532 778 514 799 q 581 809 549 799 q 640 819 613 819 l 813 819 q 890 805 854 819 q 952 764 926 790 q 992 701 978 738 q 1007 624 1007 665 l 1007 317 m 826 575 q 757 644 828 644 l 692 644 q 622 592 628 644 l 622 493 l 826 493 l 826 575 m 440 228 l 440 326 l 306 326 q 253 310 269 326 q 236 256 236 293 l 236 244 q 306 175 236 175 l 372 175 q 440 228 435 175 z "},"ø":{"ha":715,"x_min":69,"x_max":646,"o":"m 646 194 q 631 117 646 153 q 590 55 617 81 q 528 15 564 29 q 451 0 493 0 l 301 0 l 272 -97 l 135 -97 l 171 22 q 97 91 125 46 q 69 194 69 136 l 69 625 q 84 703 69 667 q 125 765 99 739 q 187 805 151 790 q 264 819 222 819 l 413 819 l 443 917 l 581 917 l 544 797 q 618 728 590 774 q 646 624 646 682 l 646 194 m 360 644 l 319 644 q 250 574 250 644 l 250 283 l 360 644 m 465 246 l 465 538 l 356 175 l 396 175 q 465 246 465 175 z "},"¿":{"ha":806,"x_min":76,"x_max":743,"o":"m 575 908 l 381 908 l 381 1097 l 575 1097 l 575 908 m 743 224 q 721 139 740 179 q 668 68 701 99 q 590 19 635 38 q 493 0 546 0 l 326 0 q 228 19 274 0 q 149 73 183 39 q 96 152 115 107 q 76 250 76 197 l 76 335 q 100 442 76 390 q 160 525 124 493 l 335 683 q 371 729 361 707 q 381 785 381 751 l 381 811 l 575 811 l 575 743 q 554 648 575 694 q 501 572 533 601 l 319 407 q 271 303 271 363 l 271 286 q 368 189 271 189 l 451 189 q 523 214 500 189 q 549 274 546 239 l 743 224 z "},"¡":{"ha":347,"x_min":76,"x_max":271,"o":"m 271 903 l 76 903 l 76 1097 l 271 1097 l 271 903 m 271 0 l 76 0 l 76 806 l 271 806 l 271 0 z "},"¬":{"ha":847,"x_min":76,"x_max":771,"o":"m 771 267 l 576 267 l 576 579 l 76 579 l 76 768 l 771 768 l 771 267 z "},"√":{"ha":700,"x_min":56,"x_max":700,"o":"m 700 1194 l 424 0 l 275 0 l 163 492 l 56 492 l 56 646 l 288 646 l 350 368 l 539 1194 l 700 1194 z "},"ƒ":{"ha":639,"x_min":-194,"x_max":611,"o":"m 611 1096 l 581 921 l 458 921 q 376 851 389 921 l 368 806 l 546 806 l 515 631 l 338 631 l 213 -83 q 184 -160 206 -125 q 132 -222 163 -196 q 63 -263 101 -249 q -17 -278 25 -278 l -194 -278 l -164 -103 l -42 -103 q 40 -33 28 -103 l 157 631 l 88 631 l 119 806 l 189 806 l 206 900 q 234 978 213 942 q 286 1040 256 1014 q 355 1081 317 1067 q 435 1096 393 1096 l 611 1096 z "},"≈":{"ha":739,"x_min":76,"x_max":663,"o":"m 663 661 q 584 589 624 621 q 493 557 544 557 q 422 574 456 557 q 358 611 389 590 q 297 649 326 632 q 239 665 268 665 q 149 632 190 665 q 76 557 108 599 l 76 746 q 158 821 117 793 q 256 849 200 849 q 322 832 290 849 q 385 795 354 815 q 447 758 417 775 q 508 742 476 742 q 551 751 531 742 q 592 776 572 761 q 629 810 611 792 q 663 847 647 829 l 663 661 m 663 346 q 584 274 624 306 q 493 242 544 242 q 422 258 456 242 q 358 296 389 275 q 297 333 326 317 q 239 350 268 350 q 150 317 192 350 q 76 242 108 285 l 76 431 q 158 506 117 479 q 256 533 200 533 q 322 517 290 533 q 385 480 354 500 q 447 443 417 460 q 508 426 478 426 q 551 436 531 426 q 592 461 572 446 q 629 495 611 476 q 663 533 647 514 l 663 346 z "},"∆":{"ha":915,"x_min":76,"x_max":839,"o":"m 839 86 q 750 -1 839 -1 l 171 -1 q 76 96 76 -1 q 82 139 76 121 l 339 1001 q 457 1099 368 1099 q 574 1001 547 1099 l 829 143 q 839 86 839 113 m 642 168 l 457 810 l 272 168 l 642 168 z "},"«":{"ha":782,"x_min":76,"x_max":706,"o":"m 706 158 l 525 158 l 374 410 l 525 663 l 706 663 l 556 410 l 706 158 m 410 158 l 228 158 l 76 410 l 228 663 l 410 663 l 258 410 l 410 158 z "},"»":{"ha":782,"x_min":76,"x_max":706,"o":"m 706 410 l 554 158 l 374 158 l 524 410 l 374 663 l 554 663 l 706 410 m 410 410 l 258 158 l 76 158 l 228 410 l 76 663 l 258 663 l 410 410 z "},"…":{"ha":981,"x_min":76,"x_max":904,"o":"m 904 0 l 718 0 l 718 181 l 904 181 l 904 0 m 583 0 l 397 0 l 397 181 l 583 181 l 583 0 m 263 0 l 76 0 l 76 181 l 263 181 l 263 0 z "}," ":{"ha":229,"x_min":0,"x_max":0,"o":""},"À":{"ha":847,"x_min":76,"x_max":771,"o":"m 556 1224 l 482 1151 l 269 1322 l 378 1439 l 556 1224 m 771 0 l 569 0 l 533 182 l 314 182 l 278 0 l 76 0 l 329 1097 l 518 1097 l 771 0 m 497 371 l 438 681 q 433 694 436 686 q 424 703 431 703 q 414 694 417 703 q 410 681 411 686 l 350 371 l 497 371 z "},"Ã":{"ha":847,"x_min":76,"x_max":771,"o":"m 649 1324 l 647 1296 q 613 1186 646 1221 q 508 1151 579 1151 q 462 1160 485 1151 q 417 1178 439 1168 q 376 1196 396 1188 q 340 1204 357 1204 q 296 1153 296 1204 l 197 1153 l 199 1179 q 233 1290 200 1254 q 336 1324 265 1325 q 384 1315 363 1324 q 425 1297 406 1307 q 464 1279 444 1288 q 506 1271 483 1271 q 539 1286 529 1271 q 549 1324 549 1301 l 649 1324 m 771 0 l 569 0 l 533 182 l 314 182 l 278 0 l 76 0 l 329 1097 l 518 1097 l 771 0 m 497 371 l 438 681 q 433 694 436 686 q 424 703 431 703 q 414 694 417 703 q 410 681 411 686 l 350 371 l 497 371 z "},"Õ":{"ha":847,"x_min":76,"x_max":771,"o":"m 647 1325 l 647 1297 q 612 1188 644 1222 q 508 1153 579 1153 q 460 1161 483 1153 q 417 1179 438 1169 q 376 1197 396 1189 q 340 1206 357 1206 q 296 1154 296 1206 l 197 1154 l 197 1181 q 233 1291 200 1256 q 336 1325 265 1326 q 383 1317 361 1325 q 424 1299 404 1308 q 464 1281 444 1289 q 506 1272 483 1272 q 538 1288 529 1272 q 549 1325 547 1303 l 647 1325 m 771 250 q 751 152 771 197 q 698 73 732 107 q 618 19 664 39 q 521 0 572 0 l 326 0 q 228 19 274 0 q 149 72 183 39 q 96 151 115 106 q 76 250 76 197 l 76 847 q 96 944 76 899 q 149 1024 115 990 q 228 1078 183 1058 q 326 1097 274 1097 l 521 1097 q 618 1078 572 1097 q 698 1024 664 1058 q 751 944 732 990 q 771 847 771 899 l 771 250 m 576 286 l 576 811 q 479 908 576 908 l 368 908 q 271 811 271 908 l 271 286 q 368 189 271 189 l 479 189 q 551 215 526 189 q 576 286 576 240 z "},"Œ":{"ha":1236,"x_min":76,"x_max":1160,"o":"m 1160 0 l 576 0 l 576 36 q 465 0 532 0 l 326 0 q 228 19 274 0 q 149 72 183 39 q 96 151 115 106 q 76 250 76 197 l 76 847 q 96 944 76 899 q 149 1024 115 990 q 228 1078 183 1058 q 326 1097 274 1097 l 465 1097 q 528 1088 497 1097 q 576 1061 558 1079 l 576 1097 l 1160 1097 l 1160 908 l 757 908 l 757 643 l 1021 643 l 1021 454 l 757 454 l 757 189 l 1160 189 l 1160 0 m 563 286 l 563 811 q 465 908 563 908 l 368 908 q 271 811 271 908 l 271 286 q 368 189 271 189 l 465 189 q 538 215 513 189 q 563 286 563 240 z "},"œ":{"ha":1101,"x_min":69,"x_max":1032,"o":"m 1032 317 l 646 317 l 646 246 q 717 175 646 175 l 785 175 q 837 191 822 175 q 854 238 851 207 l 1025 194 l 1025 182 q 970 49 1025 97 q 831 0 915 0 l 661 0 q 601 13 631 0 q 556 42 571 26 q 509 13 538 25 q 451 0 481 0 l 264 0 q 187 15 222 0 q 125 55 151 29 q 84 117 99 81 q 69 194 69 153 l 69 625 q 84 703 69 667 q 125 765 99 739 q 187 805 151 790 q 264 819 222 819 l 451 819 q 508 809 481 819 q 556 778 535 799 q 658 819 600 819 l 838 819 q 915 805 879 819 q 977 764 951 790 q 1017 701 1003 738 q 1032 624 1032 665 l 1032 317 m 851 575 q 782 644 853 644 l 717 644 q 663 628 679 644 q 646 575 646 611 l 646 493 l 851 493 l 851 575 m 465 246 l 465 538 l 465 574 l 465 578 q 396 644 465 644 l 319 644 q 250 574 250 644 l 250 246 q 319 175 250 175 l 396 175 q 465 246 465 175 z "},"–":{"ha":615,"x_min":28,"x_max":588,"o":"m 588 382 l 28 382 l 28 571 l 588 571 l 588 382 z "},"—":{"ha":940,"x_min":28,"x_max":913,"o":"m 913 382 l 28 382 l 28 571 l 913 571 l 913 382 z "},"“":{"ha":585,"x_min":56,"x_max":557,"o":"m 557 1171 l 476 832 l 306 892 l 453 1208 l 557 1171 m 307 1171 l 226 832 l 56 892 l 203 1208 l 307 1171 z "},"”":{"ha":599,"x_min":42,"x_max":543,"o":"m 543 1149 l 397 832 l 292 868 l 372 1208 l 543 1149 m 293 1149 l 147 832 l 42 868 l 122 1208 l 293 1149 z "},"‘":{"ha":335,"x_min":56,"x_max":307,"o":"m 307 1171 l 226 832 l 56 892 l 203 1208 l 307 1171 z "},"’":{"ha":349,"x_min":42,"x_max":293,"o":"m 293 1149 l 147 832 l 42 868 l 122 1208 l 293 1149 z "},"÷":{"ha":736,"x_min":76,"x_max":660,"o":"m 465 740 l 271 740 l 271 929 l 465 929 l 465 740 m 660 454 l 76 454 l 76 643 l 660 643 l 660 454 m 465 168 l 271 168 l 271 357 l 465 357 l 465 168 z "},"◊":{"ha":736,"x_min":61,"x_max":675,"o":"m 675 553 l 479 88 q 372 -1 442 -1 q 264 86 303 -1 l 61 550 l 264 1011 q 372 1099 303 1099 q 479 1011 442 1099 l 675 553 m 514 550 l 372 892 l 218 547 l 372 199 l 514 550 z "},"ÿ":{"ha":694,"x_min":28,"x_max":667,"o":"m 565 890 l 397 890 l 397 1049 l 565 1049 l 565 890 m 293 890 l 128 890 l 128 1049 l 293 1049 l 293 890 m 667 819 l 408 -99 q 372 -180 396 -146 q 318 -235 349 -214 q 251 -267 288 -257 q 176 -278 215 -278 l 101 -278 l 101 -103 l 157 -103 q 250 -31 229 -103 l 258 0 l 28 819 l 213 819 l 333 346 q 338 335 335 342 q 346 329 340 329 q 355 335 353 329 q 358 346 357 342 l 482 819 l 667 819 z "},"Ÿ":{"ha":847,"x_min":76,"x_max":771,"o":"m 643 1165 l 476 1165 l 476 1325 l 643 1325 l 643 1165 m 371 1165 l 206 1165 l 206 1325 l 371 1325 l 371 1165 m 771 1031 q 736 883 771 961 l 521 404 l 521 0 l 326 0 l 326 404 l 111 883 q 84 960 92 924 q 76 1032 76 996 l 76 1097 l 271 1097 l 271 1054 q 275 1009 271 1033 q 289 964 279 985 l 424 650 l 558 964 q 572 1010 568 986 q 576 1054 576 1033 l 576 1097 l 771 1097 l 771 1031 z "},"⁄":{"ha":551,"x_min":0,"x_max":551,"o":"m 551 1194 l 160 -97 l 0 -97 l 392 1194 l 551 1194 z "},"€":{"ha":882,"x_min":56,"x_max":806,"o":"m 806 226 q 781 141 801 182 q 728 69 761 100 q 651 19 696 38 q 556 0 607 0 l 375 0 q 277 19 322 0 q 198 73 232 39 q 144 152 164 107 q 125 250 125 197 l 125 346 l 56 346 l 56 507 l 125 507 l 125 590 l 56 590 l 56 751 l 125 751 l 125 847 q 144 944 125 899 q 198 1024 164 990 q 277 1078 232 1058 q 375 1097 322 1097 l 556 1097 q 651 1078 607 1097 q 728 1028 696 1060 q 781 956 761 997 q 806 868 801 914 l 611 819 q 586 882 611 856 q 514 908 561 908 l 417 908 q 319 811 319 908 l 319 751 l 528 751 l 528 590 l 319 590 l 319 507 l 528 507 l 528 346 l 319 346 l 319 286 q 417 189 319 189 l 514 189 q 585 212 560 189 q 611 275 611 235 l 806 226 z "},"‹":{"ha":486,"x_min":76,"x_max":410,"o":"m 410 158 l 228 158 l 76 410 l 228 663 l 410 663 l 258 410 l 410 158 z "},"›":{"ha":486,"x_min":76,"x_max":410,"o":"m 410 410 l 258 158 l 76 158 l 228 410 l 76 663 l 258 663 l 410 410 z "},"ﬁ":{"ha":803,"x_min":21,"x_max":733,"o":"m 733 921 l 553 921 l 553 1096 l 733 1096 l 733 921 m 733 0 l 553 0 l 553 819 l 733 819 l 733 0 m 463 921 l 340 921 q 271 851 271 921 l 271 813 l 449 813 l 449 638 l 271 638 l 271 0 l 90 0 l 90 638 l 21 638 l 21 813 l 90 813 l 90 900 q 105 978 90 942 q 146 1040 119 1014 q 208 1081 172 1067 q 285 1096 243 1096 l 463 1096 l 463 921 z "},"ﬂ":{"ha":803,"x_min":21,"x_max":733,"o":"m 733 0 l 553 0 l 553 1097 l 733 1097 l 733 0 m 463 921 l 340 921 q 271 851 271 921 l 271 813 l 449 813 l 449 638 l 271 638 l 271 0 l 90 0 l 90 638 l 21 638 l 21 813 l 90 813 l 90 900 q 105 978 90 942 q 146 1040 119 1014 q 208 1081 172 1067 q 285 1096 243 1096 l 463 1096 l 463 921 z "},"‡":{"ha":469,"x_min":63,"x_max":407,"o":"m 407 550 l 282 550 l 282 411 l 188 411 l 188 550 l 63 550 l 63 638 l 188 638 l 188 871 l 63 871 l 63 958 l 188 958 l 188 1097 l 282 1097 l 282 958 l 407 958 l 407 871 l 282 871 l 282 638 l 407 638 l 407 550 z "},"·":{"ha":347,"x_min":76,"x_max":271,"o":"m 271 454 l 76 454 l 76 643 l 271 643 l 271 454 z "},"‚":{"ha":349,"x_min":42,"x_max":293,"o":"m 293 149 l 147 -168 l 42 -132 l 122 208 l 293 149 z "},"„":{"ha":599,"x_min":42,"x_max":543,"o":"m 543 149 l 397 -168 l 292 -132 l 372 208 l 543 149 m 293 149 l 147 -168 l 42 -132 l 122 208 l 293 149 z "},"‰":{"ha":1933,"x_min":69,"x_max":1864,"o":"m 1864 174 q 1851 106 1864 138 q 1814 50 1838 74 q 1759 13 1790 26 q 1692 -1 1728 -1 l 1583 -1 q 1516 13 1547 -1 q 1462 50 1485 26 q 1426 106 1439 74 q 1413 174 1413 138 l 1413 518 q 1426 586 1413 554 q 1462 642 1439 618 q 1516 679 1485 665 q 1583 693 1547 693 l 1692 693 q 1759 679 1728 693 q 1814 642 1790 665 q 1851 586 1838 618 q 1864 518 1864 554 l 1864 174 m 1315 174 q 1302 106 1315 138 q 1265 50 1289 74 q 1210 13 1242 26 q 1143 -1 1179 -1 l 1035 -1 q 967 13 999 -1 q 913 50 936 26 q 877 106 890 74 q 864 174 864 138 l 864 518 q 877 586 864 554 q 913 642 890 618 q 967 679 936 665 q 1035 693 999 693 l 1143 693 q 1210 679 1179 693 q 1265 642 1242 665 q 1302 586 1289 618 q 1315 518 1315 554 l 1315 174 m 935 1099 l 603 0 l 443 0 l 775 1099 l 935 1099 m 521 578 q 508 510 521 542 q 471 456 494 479 q 416 418 447 432 q 350 404 385 404 l 240 404 q 174 417 204 404 q 119 454 143 431 q 83 510 96 478 q 69 579 69 542 l 69 922 q 83 990 69 958 q 119 1046 96 1022 q 174 1083 143 1069 q 240 1097 204 1097 l 350 1097 q 416 1083 385 1097 q 471 1046 447 1069 q 508 990 494 1022 q 521 922 521 958 l 521 578 m 1714 197 l 1714 494 q 1665 544 1714 544 l 1610 544 q 1561 494 1561 544 l 1561 197 q 1610 147 1561 147 l 1665 147 q 1714 197 1714 147 m 1165 197 l 1165 494 q 1117 544 1165 544 l 1061 544 q 1013 494 1013 544 l 1013 197 q 1061 147 1013 147 l 1117 147 q 1165 197 1165 147 m 372 601 l 372 899 q 324 949 372 949 l 267 949 q 218 899 218 949 l 218 601 q 267 553 218 553 l 324 553 q 372 601 372 553 z "},"Â":{"ha":847,"x_min":76,"x_max":771,"o":"m 649 1188 l 507 1153 l 424 1244 l 339 1151 l 197 1186 l 356 1361 l 492 1361 l 649 1188 m 771 0 l 569 0 l 533 182 l 314 182 l 278 0 l 76 0 l 329 1097 l 518 1097 l 771 0 m 497 371 l 438 681 q 433 694 436 686 q 424 703 431 703 q 414 694 417 703 q 410 681 411 686 l 350 371 l 497 371 z "},"Ê":{"ha":847,"x_min":76,"x_max":771,"o":"m 656 1189 l 515 1154 l 431 1246 l 346 1153 l 204 1188 l 363 1363 l 499 1363 l 656 1189 m 771 0 l 76 0 l 76 1097 l 771 1097 l 771 908 l 271 908 l 271 643 l 632 643 l 632 454 l 271 454 l 271 189 l 771 189 l 771 0 z "},"Á":{"ha":847,"x_min":76,"x_max":771,"o":"m 599 1322 l 386 1151 l 314 1224 l 490 1439 l 599 1322 m 771 0 l 569 0 l 533 182 l 314 182 l 278 0 l 76 0 l 329 1097 l 518 1097 l 771 0 m 497 371 l 438 681 q 433 694 436 686 q 424 703 431 703 q 414 694 417 703 q 410 681 411 686 l 350 371 l 497 371 z "},"Ë":{"ha":847,"x_min":76,"x_max":771,"o":"m 644 1167 l 476 1167 l 476 1326 l 644 1326 l 644 1167 m 372 1167 l 206 1167 l 206 1326 l 372 1326 l 372 1167 m 771 0 l 76 0 l 76 1097 l 771 1097 l 771 908 l 271 908 l 271 643 l 632 643 l 632 454 l 271 454 l 271 189 l 771 189 l 771 0 z "},"È":{"ha":847,"x_min":76,"x_max":771,"o":"m 550 1222 l 476 1150 l 264 1321 l 374 1438 l 550 1222 m 771 0 l 76 0 l 76 1097 l 771 1097 l 771 908 l 271 908 l 271 643 l 632 643 l 632 454 l 271 454 l 271 189 l 771 189 l 771 0 z "},"Í":{"ha":347,"x_min":56,"x_max":342,"o":"m 342 1318 l 129 1147 l 56 1219 l 232 1435 l 342 1318 m 271 0 l 76 0 l 76 1097 l 271 1097 l 271 0 z "},"Î":{"ha":347,"x_min":-53,"x_max":399,"o":"m 399 1188 l 257 1153 l 174 1244 l 89 1151 l -53 1186 l 106 1361 l 242 1361 l 399 1188 m 271 0 l 76 0 l 76 1097 l 271 1097 l 271 0 z "},"Ï":{"ha":347,"x_min":-46,"x_max":392,"o":"m 392 1168 l 225 1168 l 225 1328 l 392 1328 l 392 1168 m 119 1168 l -46 1168 l -46 1328 l 119 1328 l 119 1168 m 271 0 l 76 0 l 76 1097 l 271 1097 l 271 0 z "},"Ì":{"ha":347,"x_min":1,"x_max":286,"o":"m 286 1219 l 214 1147 l 1 1318 l 110 1435 l 286 1219 m 271 0 l 76 0 l 76 1097 l 271 1097 l 271 0 z "},"Ó":{"ha":847,"x_min":76,"x_max":771,"o":"m 599 1322 l 386 1151 l 313 1224 l 489 1439 l 599 1322 m 771 250 q 751 152 771 197 q 698 73 732 107 q 618 19 664 39 q 521 0 572 0 l 326 0 q 228 19 274 0 q 149 72 183 39 q 96 151 115 106 q 76 250 76 197 l 76 847 q 96 944 76 899 q 149 1024 115 990 q 228 1078 183 1058 q 326 1097 274 1097 l 521 1097 q 618 1078 572 1097 q 698 1024 664 1058 q 751 944 732 990 q 771 847 771 899 l 771 250 m 576 286 l 576 811 q 479 908 576 908 l 368 908 q 271 811 271 908 l 271 286 q 368 189 271 189 l 479 189 q 551 215 526 189 q 576 286 576 240 z "},"Ô":{"ha":847,"x_min":76,"x_max":771,"o":"m 649 1188 l 507 1153 l 422 1244 l 339 1151 l 197 1186 l 354 1361 l 492 1361 l 649 1188 m 771 250 q 751 152 771 197 q 698 73 732 107 q 618 19 664 39 q 521 0 572 0 l 326 0 q 228 19 274 0 q 149 72 183 39 q 96 151 115 106 q 76 250 76 197 l 76 847 q 96 944 76 899 q 149 1024 115 990 q 228 1078 183 1058 q 326 1097 274 1097 l 521 1097 q 618 1078 572 1097 q 698 1024 664 1058 q 751 944 732 990 q 771 847 771 899 l 771 250 m 576 286 l 576 811 q 479 908 576 908 l 368 908 q 271 811 271 908 l 271 286 q 368 189 271 189 l 479 189 q 551 215 526 189 q 576 286 576 240 z "},"":{"ha":1178,"x_min":35,"x_max":1143,"o":"m 1143 0 l 901 0 l 522 557 l 897 1110 l 1143 1110 l 1143 0 m 447 0 l 35 0 l 35 1110 l 444 1110 l 68 558 l 447 0 z "},"Ò":{"ha":847,"x_min":76,"x_max":771,"o":"m 538 1219 l 464 1147 l 251 1318 l 360 1435 l 538 1219 m 771 250 q 751 152 771 197 q 698 73 732 107 q 618 19 664 39 q 521 0 572 0 l 326 0 q 228 19 274 0 q 149 72 183 39 q 96 151 115 106 q 76 250 76 197 l 76 847 q 96 944 76 899 q 149 1024 115 990 q 228 1078 183 1058 q 326 1097 274 1097 l 521 1097 q 618 1078 572 1097 q 698 1024 664 1058 q 751 944 732 990 q 771 847 771 899 l 771 250 m 576 286 l 576 811 q 479 908 576 908 l 368 908 q 271 811 271 908 l 271 286 q 368 189 271 189 l 479 189 q 551 215 526 189 q 576 286 576 240 z "},"Ú":{"ha":847,"x_min":76,"x_max":771,"o":"m 607 1318 l 394 1147 l 321 1219 l 497 1435 l 607 1318 m 771 250 q 751 152 771 197 q 698 73 732 107 q 618 19 664 39 q 521 0 572 0 l 326 0 q 228 19 274 0 q 149 73 182 39 q 96 152 115 107 q 76 250 76 197 l 76 1097 l 271 1097 l 271 286 q 368 189 271 189 l 479 189 q 576 286 576 189 l 576 1097 l 771 1097 l 771 250 z "},"Û":{"ha":847,"x_min":76,"x_max":771,"o":"m 656 1183 l 514 1149 l 429 1240 l 346 1147 l 204 1182 l 361 1357 l 497 1357 l 656 1183 m 771 250 q 751 152 771 197 q 698 73 732 107 q 618 19 664 39 q 521 0 572 0 l 326 0 q 228 19 274 0 q 149 73 182 39 q 96 152 115 107 q 76 250 76 197 l 76 1097 l 271 1097 l 271 286 q 368 189 271 189 l 479 189 q 576 286 576 189 l 576 1097 l 771 1097 l 771 250 z "},"Ù":{"ha":847,"x_min":76,"x_max":771,"o":"m 532 1219 l 460 1147 l 247 1318 l 356 1435 l 532 1219 m 771 250 q 751 152 771 197 q 698 73 732 107 q 618 19 664 39 q 521 0 572 0 l 326 0 q 228 19 274 0 q 149 73 182 39 q 96 152 115 107 q 76 250 76 197 l 76 1097 l 271 1097 l 271 286 q 368 189 271 189 l 479 189 q 576 286 576 189 l 576 1097 l 771 1097 l 771 250 z "},"ı":{"ha":319,"x_min":69,"x_max":250,"o":"m 250 0 l 69 0 l 69 819 l 250 819 l 250 0 z "},"ˆ":{"ha":847,"x_min":156,"x_max":607,"o":"m 607 910 l 465 875 l 382 967 l 297 874 l 156 908 l 314 1083 l 450 1083 l 607 910 z "},"˜":{"ha":847,"x_min":163,"x_max":613,"o":"m 613 1060 l 613 1032 q 577 922 610 957 q 474 886 544 886 q 427 894 450 886 q 383 913 404 903 q 342 931 361 922 q 306 940 322 940 q 261 889 261 940 l 163 889 l 163 915 q 198 1025 165 990 q 301 1060 231 1060 q 348 1051 326 1060 q 390 1033 369 1043 q 429 1015 410 1024 q 471 1007 449 1007 q 504 1022 494 1007 q 514 1060 514 1036 l 613 1060 z "},"¯":{"ha":847,"x_min":139,"x_max":564,"o":"m 564 896 l 139 896 l 139 1029 l 564 1029 l 564 896 z "},"˘":{"ha":847,"x_min":136,"x_max":581,"o":"m 581 1072 q 516 926 575 976 q 364 875 457 875 q 208 925 268 875 q 136 1072 147 975 l 249 1072 q 290 1015 264 1029 q 358 1001 315 1001 q 431 1013 401 1001 q 474 1072 461 1025 l 581 1072 z "},"˙":{"ha":847,"x_min":297,"x_max":492,"o":"m 492 889 l 297 889 l 297 1078 l 492 1078 l 492 889 z "},"˚":{"ha":847,"x_min":201,"x_max":514,"o":"m 514 1038 q 502 975 514 1004 q 469 924 490 946 q 420 888 449 901 q 358 875 392 875 q 296 888 325 875 q 246 924 267 901 q 213 975 225 946 q 201 1038 201 1004 q 213 1100 201 1071 q 246 1152 225 1129 q 296 1188 267 1175 q 358 1201 325 1201 q 420 1188 392 1201 q 469 1152 449 1175 q 502 1100 490 1129 q 514 1038 514 1071 m 413 1039 q 397 1079 413 1063 q 358 1096 382 1096 q 319 1079 335 1096 q 303 1039 303 1063 q 319 998 303 1015 q 358 981 335 981 q 397 998 382 981 q 413 1039 413 1015 z "},"¸":{"ha":847,"x_min":297,"x_max":550,"o":"m 550 -164 q 519 -254 550 -231 q 417 -278 488 -278 l 297 -278 l 297 -201 l 342 -201 q 368 -200 356 -201 q 418 -156 418 -200 q 365 -111 418 -111 l 317 -111 l 340 29 l 463 29 l 447 -49 q 490 -53 471 -49 q 522 -71 508 -58 q 543 -106 536 -83 q 550 -164 550 -128 z "},"˝":{"ha":847,"x_min":190,"x_max":625,"o":"m 625 1071 l 478 874 l 399 921 l 504 1149 l 625 1071 m 417 1071 l 269 874 l 190 921 l 296 1149 l 417 1071 z "},"˛":{"ha":847,"x_min":239,"x_max":535,"o":"m 535 -172 l 507 -281 q 448 -307 479 -297 q 382 -317 417 -317 q 279 -280 319 -317 q 239 -181 239 -243 q 284 -65 239 -119 q 397 19 329 -11 l 494 13 q 417 -64 439 -22 q 394 -133 394 -106 q 411 -176 394 -161 q 461 -192 428 -192 q 535 -172 497 -192 z "},"ˇ":{"ha":847,"x_min":132,"x_max":583,"o":"m 583 1064 l 425 889 l 289 889 l 132 1063 l 274 1097 l 357 1006 l 442 1099 l 583 1064 z "},"¤":{"ha":919,"x_min":76,"x_max":843,"o":"m 843 294 l 715 165 l 592 289 q 528 264 561 274 q 461 254 496 254 q 328 289 393 254 l 204 165 l 76 294 l 200 418 q 175 481 185 449 q 165 549 165 514 q 200 681 165 615 l 76 806 l 204 933 l 328 808 q 461 843 393 843 q 592 808 529 843 l 715 933 l 843 804 l 719 681 q 754 549 754 618 q 745 481 754 513 q 719 417 736 449 l 843 294 m 588 549 q 551 640 588 603 q 458 676 514 676 q 369 640 406 676 q 332 550 332 603 q 369 458 332 496 q 461 421 407 421 q 510 431 488 421 q 551 458 533 440 q 578 499 568 475 q 588 549 588 522 z "},"₹":{"ha":874,"x_min":76,"x_max":797,"o":"m 797 856 l 757 694 l 660 694 q 613 535 657 593 q 490 457 568 476 l 660 0 l 451 0 l 285 454 l 160 454 l 160 617 l 368 617 q 432 639 408 617 q 463 694 456 661 l 76 694 l 117 856 l 461 856 q 429 911 453 889 q 368 933 406 933 l 76 933 l 117 1097 l 797 1097 l 757 933 l 643 933 q 653 896 650 917 q 660 856 657 875 l 797 856 z "},"⅓":{"ha":1108,"x_min":69,"x_max":1039,"o":"m 1039 167 q 1026 101 1039 132 q 992 49 1014 71 q 940 13 969 26 q 876 0 911 0 l 754 0 q 693 15 721 0 q 645 52 665 29 q 613 104 625 75 q 600 163 601 133 l 746 200 q 755 158 746 171 q 788 146 764 146 l 853 146 q 894 188 894 146 l 894 231 q 853 274 894 274 l 776 274 l 776 418 l 853 418 q 894 461 894 418 l 894 503 q 853 546 894 546 l 788 546 q 746 490 746 546 l 600 529 q 651 646 607 600 q 763 692 696 692 l 876 692 q 940 678 910 692 q 992 642 969 665 q 1026 590 1014 619 q 1039 525 1039 560 l 1039 449 q 1027 390 1039 417 q 996 347 1015 364 q 1039 243 1039 308 l 1039 167 m 675 1099 l 343 0 l 183 0 l 515 1099 l 675 1099 m 219 406 l 69 406 l 69 1097 l 219 1097 l 219 406 z "},"⅔":{"ha":1386,"x_min":69,"x_max":1317,"o":"m 1317 167 q 1304 101 1317 132 q 1270 49 1292 71 q 1219 13 1249 26 q 1156 0 1189 0 l 1033 0 q 971 15 999 0 q 923 52 943 29 q 891 104 903 75 q 878 163 879 133 l 1024 200 q 1033 158 1024 171 q 1065 146 1042 146 l 1131 146 q 1172 188 1172 146 l 1172 231 q 1131 274 1172 274 l 1054 274 l 1054 418 l 1131 418 q 1172 461 1172 418 l 1172 503 q 1131 546 1172 546 l 1065 546 q 1024 490 1024 546 l 878 529 q 931 646 886 600 q 1042 692 975 692 l 1156 692 q 1218 678 1189 692 q 1269 642 1247 665 q 1304 590 1292 619 q 1317 525 1317 560 l 1317 449 q 1306 390 1317 417 q 1275 347 1294 364 q 1317 243 1317 308 l 1317 167 m 953 1099 l 622 0 l 463 0 l 794 1099 l 953 1099 m 507 406 l 69 406 l 69 471 q 90 556 69 513 q 144 631 110 599 l 333 807 q 356 835 350 822 q 363 868 363 849 l 363 910 q 321 951 363 951 l 256 951 q 225 940 236 951 q 214 896 214 928 l 69 933 q 82 996 69 967 q 117 1048 94 1025 q 169 1084 139 1071 q 232 1097 199 1097 l 344 1097 q 408 1084 378 1097 q 460 1049 438 1071 q 494 996 482 1026 q 507 931 507 965 l 507 850 q 492 774 507 810 q 442 706 478 739 l 296 569 q 282 551 281 556 l 507 551 l 507 406 z "},"℅":{"ha":1389,"x_min":69,"x_max":1319,"o":"m 1319 174 q 1306 106 1319 138 q 1270 50 1293 74 q 1216 13 1247 26 q 1149 -1 1185 -1 l 1040 -1 q 973 13 1004 -1 q 918 50 942 26 q 881 106 894 74 q 868 174 868 138 l 868 525 q 881 593 868 561 q 918 649 894 625 q 973 686 942 672 q 1040 700 1004 700 l 1149 700 q 1216 686 1185 700 q 1270 649 1247 672 q 1306 593 1293 625 q 1319 525 1319 561 l 1319 174 m 940 1099 l 608 0 l 449 0 l 781 1099 l 940 1099 m 525 561 q 481 442 524 489 q 372 396 439 396 l 222 396 q 161 408 189 396 q 113 443 133 421 q 81 496 93 465 q 69 563 69 526 l 69 933 q 113 1053 69 1007 q 222 1100 156 1100 l 372 1100 q 481 1054 439 1100 q 525 936 524 1008 l 382 897 q 326 950 381 950 l 267 950 q 213 889 213 950 l 213 607 q 267 547 213 547 l 326 547 q 382 600 381 547 l 525 561 m 1171 197 l 1171 501 q 1122 551 1171 551 l 1067 551 q 1018 501 1018 551 l 1018 197 q 1067 147 1018 147 l 1122 147 q 1171 197 1171 147 z "},"№":{"ha":1479,"x_min":76,"x_max":1403,"o":"m 1403 528 q 1388 451 1403 486 q 1347 389 1374 415 q 1285 348 1321 363 q 1207 333 1249 333 l 1049 333 q 972 348 1007 333 q 910 388 936 363 q 869 450 883 414 q 854 528 854 486 l 854 903 q 869 981 854 944 q 910 1042 883 1017 q 972 1083 936 1068 q 1049 1097 1007 1097 l 1207 1097 q 1285 1083 1249 1097 q 1347 1042 1321 1068 q 1388 979 1374 1015 q 1403 901 1403 943 l 1403 528 m 1375 75 l 882 75 l 882 249 l 1375 249 l 1375 75 m 729 0 l 547 0 l 271 615 l 271 0 l 76 0 l 76 1097 l 260 1097 l 535 479 l 535 1097 l 729 1097 l 729 0 m 1222 579 l 1222 851 q 1206 906 1222 889 q 1151 922 1189 922 l 1104 922 q 1051 906 1068 922 q 1035 851 1035 889 l 1035 579 q 1104 508 1035 508 l 1151 508 q 1206 526 1189 508 q 1222 579 1222 543 z "},"Ć":{"ha":847,"x_min":76,"x_max":771,"o":"m 597 1324 l 385 1153 l 311 1225 l 489 1440 l 597 1324 m 771 226 q 747 141 767 182 q 694 69 726 100 q 617 19 661 38 q 521 0 572 0 l 326 0 q 228 19 274 0 q 149 73 183 39 q 96 152 115 107 q 76 250 76 197 l 76 847 q 96 944 76 899 q 149 1024 115 990 q 228 1078 183 1058 q 326 1097 274 1097 l 521 1097 q 617 1078 572 1097 q 694 1028 661 1060 q 747 956 726 997 q 771 868 767 914 l 576 819 q 551 882 576 856 q 479 908 526 908 l 368 908 q 271 811 271 908 l 271 286 q 368 189 271 189 l 479 189 q 551 212 525 189 q 576 275 576 235 l 771 226 z "},"ć":{"ha":715,"x_min":69,"x_max":646,"o":"m 517 1044 l 304 874 l 231 946 l 408 1161 l 517 1044 m 646 192 q 631 115 646 150 q 590 54 615 79 q 529 15 564 29 q 453 0 494 0 l 263 0 q 185 15 221 0 q 124 55 150 29 q 84 117 99 81 q 69 194 69 153 l 69 625 q 84 703 69 667 q 124 765 99 739 q 185 805 150 790 q 263 819 221 819 l 453 819 q 530 805 494 819 q 591 765 565 790 q 631 705 617 740 q 646 628 646 669 l 465 582 q 396 644 461 644 l 319 644 q 250 574 250 644 l 250 246 q 319 175 250 175 l 396 175 q 465 238 461 175 l 646 192 z "},"Ĺ":{"ha":847,"x_min":76,"x_max":771,"o":"m 525 1322 l 313 1151 l 239 1224 l 417 1439 l 525 1322 m 771 0 l 76 0 l 76 1097 l 271 1097 l 271 189 l 771 189 l 771 0 z "},"ĺ":{"ha":319,"x_min":33,"x_max":319,"o":"m 319 1322 l 107 1151 l 33 1224 l 211 1439 l 319 1322 m 250 0 l 69 0 l 69 1097 l 250 1097 l 250 0 z "},"Ń":{"ha":847,"x_min":76,"x_max":771,"o":"m 593 1322 l 381 1151 l 307 1224 l 485 1439 l 593 1322 m 771 0 l 589 0 l 271 639 l 271 0 l 76 0 l 76 1097 l 260 1097 l 576 456 l 576 1097 l 771 1097 l 771 0 z "},"ń":{"ha":699,"x_min":69,"x_max":629,"o":"m 518 1044 l 306 874 l 232 946 l 410 1161 l 518 1044 m 629 0 l 449 0 l 449 574 q 379 644 449 644 l 319 644 q 250 574 250 644 l 250 0 l 69 0 l 69 819 l 250 819 l 250 769 q 301 805 267 790 q 368 819 336 819 l 436 819 q 513 805 478 819 q 574 764 549 790 q 615 701 600 738 q 629 624 629 665 l 629 0 z "},"Ŕ":{"ha":847,"x_min":76,"x_max":771,"o":"m 589 1322 l 376 1151 l 303 1224 l 481 1439 l 589 1322 m 771 0 l 563 0 l 396 454 l 271 454 l 271 0 l 76 0 l 76 1097 l 521 1097 q 618 1078 572 1097 q 698 1024 664 1058 q 751 944 732 990 q 771 847 771 899 l 771 706 q 726 539 771 601 q 601 457 681 476 l 771 0 m 576 740 l 576 811 q 551 883 576 858 q 479 908 525 908 l 271 908 l 271 643 l 479 643 q 576 740 576 643 z "},"ŕ":{"ha":501,"x_min":69,"x_max":488,"o":"m 428 1044 l 215 874 l 142 946 l 319 1161 l 428 1044 m 488 800 l 446 631 q 419 642 432 639 q 378 644 407 644 l 319 644 q 250 574 250 643 l 250 0 l 69 0 l 69 819 l 250 819 l 250 747 q 302 806 267 789 q 365 822 338 822 l 410 822 q 452 817 431 822 q 488 800 474 811 z "},"Ś":{"ha":847,"x_min":76,"x_max":771,"o":"m 588 1322 l 375 1151 l 301 1224 l 479 1439 l 588 1322 m 771 250 q 751 152 771 197 q 698 73 732 107 q 618 19 664 39 q 521 0 572 0 l 326 0 q 231 18 274 0 q 155 67 188 36 q 102 140 122 99 q 76 231 82 182 l 271 279 q 297 213 274 236 q 368 189 321 189 l 479 189 q 576 286 576 189 l 576 324 q 563 378 576 360 q 514 413 550 397 l 261 514 q 192 549 225 528 q 133 602 160 571 q 92 674 107 633 q 76 765 76 714 l 76 847 q 96 944 76 899 q 149 1024 115 990 q 228 1078 183 1058 q 326 1097 274 1097 l 521 1097 q 617 1078 574 1097 q 694 1028 661 1060 q 747 955 726 996 q 771 869 767 914 l 576 821 q 550 885 574 861 q 479 908 526 908 l 368 908 q 271 811 271 908 l 271 797 q 281 727 271 750 q 328 690 292 704 l 589 586 q 720 499 669 554 q 771 357 771 443 l 771 250 z "},"ś":{"ha":715,"x_min":69,"x_max":646,"o":"m 517 1044 l 304 874 l 231 946 l 408 1161 l 517 1044 m 646 194 q 631 117 646 153 q 591 55 617 81 q 530 15 565 29 q 453 0 494 0 l 264 0 q 187 15 222 0 q 126 54 151 29 q 85 115 100 79 q 69 192 69 150 l 250 238 q 269 190 253 206 q 321 175 285 175 l 396 175 q 465 239 465 175 l 465 244 q 456 272 465 260 q 421 293 446 283 l 217 368 q 165 395 192 378 q 117 438 139 413 q 83 496 96 463 q 69 569 69 529 l 69 625 q 84 702 69 667 q 124 764 99 738 q 185 805 150 790 q 263 819 221 819 l 453 819 q 530 805 494 819 q 591 765 565 790 q 631 705 617 740 q 646 628 646 669 l 465 582 q 396 644 461 644 l 319 644 q 267 629 283 644 q 250 588 250 614 l 250 579 q 258 548 250 560 q 289 528 265 536 l 504 449 q 558 422 532 439 q 603 381 583 406 q 634 323 622 356 q 646 249 646 290 l 646 194 z "},"Ź":{"ha":847,"x_min":76,"x_max":771,"o":"m 603 1318 l 390 1147 l 317 1219 l 494 1435 l 603 1318 m 771 0 l 76 0 l 76 181 l 543 910 l 76 910 l 76 1099 l 771 1097 l 771 917 l 306 189 l 771 189 l 771 0 z "},"ź":{"ha":711,"x_min":69,"x_max":642,"o":"m 538 1044 l 325 874 l 251 946 l 429 1161 l 538 1044 m 642 0 l 69 0 l 69 139 l 413 644 l 69 644 l 69 819 l 642 819 l 642 681 l 300 175 l 642 175 l 642 0 z "},"Ẃ":{"ha":847,"x_min":76,"x_max":772,"o":"m 588 1318 l 375 1147 l 301 1219 l 479 1435 l 588 1318 m 772 1097 l 711 0 l 528 0 l 439 329 q 435 340 438 335 q 425 344 432 344 q 415 340 418 344 q 411 329 413 335 l 321 0 l 139 0 l 76 1097 l 272 1097 l 303 563 q 304 553 303 558 q 311 547 306 547 q 319 553 317 547 q 324 563 322 558 l 410 881 q 415 891 411 886 q 425 896 418 896 q 435 891 432 896 q 440 881 439 886 l 525 563 q 529 553 526 558 q 538 547 532 547 q 544 553 543 547 q 546 563 546 558 l 576 1097 l 772 1097 z "},"ẃ":{"ha":799,"x_min":28,"x_max":771,"o":"m 557 1044 l 344 874 l 271 946 l 449 1161 l 557 1044 m 771 819 l 639 0 l 488 0 l 413 253 q 400 268 407 268 q 388 253 393 268 l 313 0 l 161 0 l 28 819 l 213 819 l 272 401 q 276 391 274 397 q 285 385 279 385 q 294 391 292 385 q 297 401 296 397 l 385 663 q 392 676 388 674 q 400 679 396 679 q 408 676 404 679 q 415 663 413 674 l 501 401 q 506 391 503 397 q 514 385 508 385 q 524 391 521 385 q 526 401 526 397 l 586 819 l 771 819 z "},"Ǽ":{"ha":1097,"x_min":76,"x_max":1021,"o":"m 726 1322 l 514 1151 l 440 1224 l 618 1439 l 726 1322 m 1021 0 l 569 0 l 533 182 l 314 182 l 278 0 l 76 0 l 329 1097 l 1021 1097 l 1021 908 l 561 908 l 622 643 l 882 643 l 882 454 l 667 454 l 728 189 l 1021 189 l 1021 0 m 497 371 l 438 681 q 433 694 436 686 q 424 703 431 703 q 414 694 417 703 q 410 681 411 686 l 350 371 l 497 371 z "},"ǽ":{"ha":1076,"x_min":56,"x_max":1007,"o":"m 707 1046 l 494 875 l 421 947 l 599 1163 l 707 1046 m 1007 317 l 622 317 l 622 229 q 692 175 628 175 l 760 175 q 812 191 797 175 q 829 238 826 207 l 1000 194 l 1000 182 q 946 49 1000 97 q 806 0 892 0 l 653 0 q 572 14 610 0 q 519 51 535 28 q 495 31 511 40 q 460 14 479 21 q 422 3 442 7 q 388 0 403 0 l 250 0 q 173 15 208 0 q 111 56 138 29 q 70 118 85 82 q 56 196 56 154 l 56 307 q 70 385 56 349 q 111 447 85 421 q 173 488 138 472 q 250 503 208 503 l 440 503 l 440 593 q 372 644 432 644 l 304 644 q 251 628 267 644 q 233 582 236 613 l 63 625 l 63 638 q 117 771 63 722 q 258 819 172 819 l 421 819 q 482 809 450 819 q 532 778 514 799 q 581 809 549 799 q 640 819 613 819 l 813 819 q 890 805 854 819 q 952 764 926 790 q 992 701 978 738 q 1007 624 1007 665 l 1007 317 m 826 575 q 757 644 828 644 l 692 644 q 622 592 628 644 l 622 493 l 826 493 l 826 575 m 440 228 l 440 326 l 306 326 q 253 310 269 326 q 236 256 236 293 l 236 244 q 306 175 236 175 l 372 175 q 440 228 435 175 z "},"Ǿ":{"ha":847,"x_min":76,"x_max":771,"o":"m 588 1318 l 375 1147 l 301 1219 l 479 1435 l 588 1318 m 771 250 q 751 152 771 197 q 698 73 732 107 q 618 19 664 39 q 521 0 572 0 l 336 0 l 307 -97 l 147 -97 l 189 40 q 107 128 138 74 q 76 250 76 183 l 76 847 q 96 944 76 899 q 149 1024 115 990 q 228 1078 183 1058 q 326 1097 274 1097 l 510 1097 l 539 1194 l 699 1194 l 657 1057 q 740 969 710 1024 q 771 847 771 914 l 771 250 m 576 790 l 394 189 l 479 189 q 551 215 526 189 q 576 286 576 240 l 576 790 m 453 908 l 368 908 q 271 811 271 908 l 271 310 l 453 908 z "},"ǿ":{"ha":715,"x_min":69,"x_max":646,"o":"m 510 1044 l 297 874 l 224 946 l 401 1161 l 510 1044 m 646 194 q 631 117 646 153 q 590 55 617 81 q 528 15 564 29 q 451 0 493 0 l 301 0 l 272 -97 l 135 -97 l 171 22 q 97 91 125 46 q 69 194 69 136 l 69 625 q 84 703 69 667 q 125 765 99 739 q 187 805 151 790 q 264 819 222 819 l 413 819 l 443 917 l 581 917 l 544 797 q 618 728 590 774 q 646 624 646 682 l 646 194 m 360 644 l 319 644 q 250 574 250 644 l 250 283 l 360 644 m 465 246 l 465 538 l 356 175 l 396 175 q 465 246 465 175 z "},"Ǻ":{"ha":847,"x_min":76,"x_max":771,"o":"m 581 1585 l 368 1414 l 294 1486 l 471 1701 l 581 1585 m 771 0 l 569 0 l 533 182 l 314 182 l 278 0 l 76 0 l 328 1093 q 284 1149 300 1115 q 268 1221 268 1182 q 280 1284 268 1254 q 313 1336 292 1314 q 363 1372 333 1358 q 425 1385 392 1385 q 487 1372 458 1385 q 536 1335 515 1358 q 569 1283 557 1313 q 581 1221 581 1254 q 564 1149 581 1182 q 519 1092 547 1115 l 771 0 m 479 1222 q 463 1263 479 1246 q 424 1281 447 1281 q 384 1263 400 1281 q 368 1222 368 1246 q 384 1181 368 1199 q 424 1164 400 1164 q 463 1181 447 1164 q 479 1222 479 1199 m 497 371 l 438 681 q 433 694 436 686 q 424 703 431 703 q 414 694 417 703 q 410 681 411 686 l 350 371 l 497 371 z "},"ǻ":{"ha":678,"x_min":56,"x_max":622,"o":"m 507 1401 l 294 1231 l 221 1303 l 399 1518 l 507 1401 m 508 1038 q 497 975 508 1004 q 464 924 485 946 q 415 888 443 901 q 353 875 386 875 q 290 888 319 875 q 240 924 261 901 q 208 975 219 946 q 196 1038 196 1004 q 208 1100 196 1071 q 240 1152 219 1129 q 290 1188 261 1175 q 353 1201 319 1201 q 415 1188 386 1201 q 464 1152 443 1175 q 497 1100 485 1129 q 508 1038 508 1071 m 622 0 l 476 0 l 456 49 q 413 14 442 28 q 351 0 385 0 l 250 0 q 173 15 208 0 q 111 56 138 29 q 70 118 85 82 q 56 196 56 154 l 56 307 q 70 385 56 349 q 111 447 85 421 q 173 488 138 472 q 250 503 208 503 l 442 503 l 442 574 q 372 644 442 644 l 304 644 q 251 628 267 644 q 233 582 236 613 l 63 625 l 63 638 q 117 771 63 722 q 258 819 172 819 l 428 819 q 505 805 469 819 q 567 765 540 790 q 608 703 593 739 q 622 625 622 667 l 622 0 m 407 1039 q 391 1079 407 1063 q 351 1096 375 1096 q 312 1079 328 1096 q 296 1039 296 1063 q 312 998 296 1015 q 351 981 328 981 q 391 998 375 981 q 407 1039 407 1015 m 442 244 l 442 326 l 306 326 q 253 310 269 326 q 236 256 236 293 l 236 244 q 306 175 236 175 l 372 175 q 442 244 442 175 z "},"Č":{"ha":847,"x_min":76,"x_max":771,"o":"m 653 1340 l 494 1165 l 358 1165 l 201 1339 l 343 1374 l 428 1282 l 511 1375 l 653 1340 m 771 226 q 747 141 767 182 q 694 69 726 100 q 617 19 661 38 q 521 0 572 0 l 326 0 q 228 19 274 0 q 149 73 183 39 q 96 152 115 107 q 76 250 76 197 l 76 847 q 96 944 76 899 q 149 1024 115 990 q 228 1078 183 1058 q 326 1097 274 1097 l 521 1097 q 617 1078 572 1097 q 694 1028 661 1060 q 747 956 726 997 q 771 868 767 914 l 576 819 q 551 882 576 856 q 479 908 526 908 l 368 908 q 271 811 271 908 l 271 286 q 368 189 271 189 l 479 189 q 551 212 525 189 q 576 275 576 235 l 771 226 z "},"č":{"ha":715,"x_min":69,"x_max":646,"o":"m 589 1064 l 431 889 l 294 889 l 138 1063 l 279 1097 l 363 1006 l 447 1099 l 589 1064 m 646 192 q 631 115 646 150 q 590 54 615 79 q 529 15 564 29 q 453 0 494 0 l 263 0 q 185 15 221 0 q 124 55 150 29 q 84 117 99 81 q 69 194 69 153 l 69 625 q 84 703 69 667 q 124 765 99 739 q 185 805 150 790 q 263 819 221 819 l 453 819 q 530 805 494 819 q 591 765 565 790 q 631 705 617 740 q 646 628 646 669 l 465 582 q 396 644 461 644 l 319 644 q 250 574 250 644 l 250 246 q 319 175 250 175 l 396 175 q 465 238 461 175 l 646 192 z "},"Ě":{"ha":847,"x_min":76,"x_max":771,"o":"m 658 1342 l 500 1167 l 364 1167 l 207 1340 l 349 1375 l 433 1283 l 517 1376 l 658 1342 m 771 0 l 76 0 l 76 1097 l 771 1097 l 771 908 l 271 908 l 271 643 l 632 643 l 632 454 l 271 454 l 271 189 l 771 189 l 771 0 z "},"ě":{"ha":706,"x_min":69,"x_max":636,"o":"m 585 1064 l 426 889 l 290 889 l 133 1063 l 275 1097 l 358 1006 l 443 1099 l 585 1064 m 636 317 l 250 317 l 250 246 q 321 175 250 175 l 389 175 q 440 191 425 175 q 458 238 456 207 l 629 194 l 629 182 q 574 49 629 97 q 435 0 519 0 l 265 0 q 188 15 224 0 q 125 55 151 29 q 84 117 99 81 q 69 194 69 153 l 69 625 q 84 702 69 667 q 124 764 99 738 q 185 805 150 790 q 263 819 221 819 l 442 819 q 519 805 483 819 q 581 764 556 790 q 622 701 607 738 q 636 624 636 665 l 636 317 m 456 575 q 386 644 457 644 l 321 644 q 267 628 283 644 q 250 575 250 611 l 250 493 l 456 493 l 456 575 z "},"Ň":{"ha":847,"x_min":76,"x_max":771,"o":"m 651 1340 l 493 1165 l 357 1165 l 200 1339 l 342 1374 l 426 1282 l 510 1375 l 651 1340 m 771 0 l 589 0 l 271 639 l 271 0 l 76 0 l 76 1097 l 260 1097 l 576 456 l 576 1097 l 771 1097 l 771 0 z "},"ň":{"ha":699,"x_min":69,"x_max":629,"o":"m 583 1064 l 425 889 l 289 889 l 132 1063 l 274 1097 l 357 1006 l 442 1099 l 583 1064 m 629 0 l 449 0 l 449 574 q 379 644 449 644 l 319 644 q 250 574 250 644 l 250 0 l 69 0 l 69 819 l 250 819 l 250 769 q 301 805 267 790 q 368 819 336 819 l 436 819 q 513 805 478 819 q 574 764 549 790 q 615 701 600 738 q 629 624 629 665 l 629 0 z "},"Ř":{"ha":847,"x_min":76,"x_max":771,"o":"m 646 1340 l 488 1165 l 351 1165 l 194 1339 l 336 1374 l 421 1282 l 504 1375 l 646 1340 m 771 0 l 563 0 l 396 454 l 271 454 l 271 0 l 76 0 l 76 1097 l 521 1097 q 618 1078 572 1097 q 698 1024 664 1058 q 751 944 732 990 q 771 847 771 899 l 771 706 q 726 539 771 601 q 601 457 681 476 l 771 0 m 576 740 l 576 811 q 551 883 576 858 q 479 908 525 908 l 271 908 l 271 643 l 479 643 q 576 740 576 643 z "},"ř":{"ha":501,"x_min":54,"x_max":506,"o":"m 506 1064 l 347 889 l 211 889 l 54 1063 l 196 1097 l 279 1006 l 364 1099 l 506 1064 m 488 800 l 446 631 q 419 642 432 639 q 378 644 407 644 l 319 644 q 250 574 250 643 l 250 0 l 69 0 l 69 819 l 250 819 l 250 747 q 302 806 267 789 q 365 822 338 822 l 410 822 q 452 817 431 822 q 488 800 474 811 z "},"Ť":{"ha":847,"x_min":76,"x_max":771,"o":"m 650 1340 l 492 1165 l 356 1165 l 199 1339 l 340 1374 l 425 1282 l 508 1375 l 650 1340 m 771 908 l 521 908 l 521 0 l 326 0 l 326 908 l 76 908 l 76 1097 l 771 1097 l 771 908 z "},"ť":{"ha":585,"x_min":21,"x_max":626,"o":"m 626 1174 l 504 917 l 417 946 l 481 1225 l 626 1174 m 463 0 l 285 0 q 208 15 243 0 q 146 56 172 29 q 105 118 119 82 q 90 196 90 154 l 90 638 l 21 638 l 21 813 l 90 813 l 90 981 l 271 1026 l 271 813 l 449 813 l 449 638 l 271 638 l 271 244 q 340 175 271 175 l 463 175 l 463 0 z "},"Ď":{"ha":847,"x_min":76,"x_max":771,"o":"m 639 1340 l 481 1165 l 344 1165 l 188 1339 l 329 1374 l 414 1282 l 497 1375 l 639 1340 m 771 250 q 751 152 771 197 q 698 73 732 107 q 618 19 664 39 q 521 0 572 0 l 76 0 l 76 189 l 132 189 l 132 908 l 76 908 l 76 1097 l 521 1097 q 618 1078 572 1097 q 698 1024 664 1058 q 751 944 732 990 q 771 847 771 899 l 771 250 m 576 286 l 576 811 q 479 908 576 908 l 326 908 l 326 189 l 479 189 q 576 286 576 189 z "},"ď":{"ha":949,"x_min":69,"x_max":949,"o":"m 949 1040 l 813 754 l 717 788 l 788 1097 l 949 1040 m 657 0 l 513 0 l 492 49 q 375 0 454 0 l 263 0 q 185 15 221 0 q 124 55 150 29 q 84 117 99 81 q 69 194 69 153 l 69 625 q 84 703 69 667 q 124 765 99 739 q 185 805 150 790 q 263 819 221 819 l 358 819 q 425 808 394 819 q 476 769 456 796 l 476 1097 l 657 1097 l 657 0 m 476 246 l 476 574 q 407 644 476 644 l 319 644 q 250 574 250 644 l 250 246 q 319 175 250 175 l 407 175 q 476 246 476 175 z "},"Ģ":{"ha":847,"x_min":76,"x_max":771,"o":"m 771 250 q 751 152 771 197 q 698 73 732 107 q 618 19 664 39 q 521 0 572 0 l 326 0 q 228 19 274 0 q 149 73 183 39 q 96 152 115 107 q 76 250 76 197 l 76 847 q 96 944 76 899 q 149 1024 115 990 q 228 1078 183 1058 q 326 1097 274 1097 l 521 1097 q 615 1080 572 1097 q 691 1032 658 1063 q 744 960 724 1001 q 771 872 764 919 l 576 824 q 551 883 576 857 q 479 908 526 908 l 368 908 q 271 811 271 908 l 271 286 q 368 189 271 189 l 479 189 q 576 286 576 189 l 576 390 l 438 390 l 438 579 l 771 579 l 771 250 m 536 -118 l 400 -404 l 303 -371 l 374 -61 l 536 -118 z "},"ģ":{"ha":726,"x_min":69,"x_max":657,"o":"m 513 1188 l 442 879 l 279 936 l 415 1222 l 513 1188 m 657 -85 q 642 -162 657 -126 q 602 -223 628 -197 q 540 -263 576 -249 q 463 -278 504 -278 l 285 -278 q 145 -229 200 -278 q 90 -96 90 -181 l 90 -83 l 261 -40 q 279 -87 264 -71 q 332 -103 294 -103 l 407 -103 q 476 -32 476 -103 l 476 89 q 425 53 460 68 q 358 39 390 39 l 263 39 q 185 53 221 39 q 124 94 150 68 q 84 156 99 119 q 69 233 69 192 l 69 626 q 84 703 69 668 q 124 765 99 739 q 185 805 150 790 q 263 819 221 819 l 372 819 q 441 806 408 819 q 490 774 474 793 l 511 819 l 657 819 l 657 -85 m 476 285 l 476 574 q 407 644 476 644 l 319 644 q 250 574 250 644 l 250 285 q 319 215 250 215 l 407 215 q 476 285 476 215 z "},"Ķ":{"ha":847,"x_min":76,"x_max":771,"o":"m 771 0 l 576 0 l 576 40 q 572 80 576 60 q 556 119 567 100 l 357 457 l 271 347 l 271 0 l 76 0 l 76 1097 l 271 1097 l 271 628 l 542 965 q 570 1012 564 993 q 576 1060 576 1031 l 576 1097 l 771 1097 l 771 1038 q 758 960 771 997 q 711 882 744 924 l 492 610 l 733 199 q 764 133 757 160 q 771 74 771 107 l 771 0 m 522 -118 l 386 -404 l 289 -371 l 360 -61 l 522 -118 z "},"ķ":{"ha":726,"x_min":69,"x_max":657,"o":"m 657 0 l 474 -1 l 474 31 q 456 90 474 63 l 296 347 l 250 294 l 250 0 l 69 0 l 69 1097 l 250 1097 l 250 517 l 442 725 q 467 757 461 744 q 474 792 474 769 l 474 819 l 657 819 l 657 774 q 645 716 657 743 q 606 657 633 689 l 429 467 l 624 149 q 650 97 643 118 q 657 51 657 76 l 657 0 m 460 -118 l 324 -404 l 226 -371 l 297 -61 l 460 -118 z "},"Ļ":{"ha":847,"x_min":76,"x_max":771,"o":"m 771 0 l 76 0 l 76 1097 l 271 1097 l 271 189 l 771 189 l 771 0 m 515 -118 l 379 -404 l 282 -371 l 353 -61 l 515 -118 z "},"ļ":{"ha":319,"x_min":33,"x_max":267,"o":"m 250 0 l 69 0 l 69 1097 l 250 1097 l 250 0 m 267 -118 l 131 -404 l 33 -371 l 104 -61 l 267 -118 z "},"Ņ":{"ha":847,"x_min":76,"x_max":771,"o":"m 771 0 l 589 0 l 271 639 l 271 0 l 76 0 l 76 1097 l 260 1097 l 576 456 l 576 1097 l 771 1097 l 771 0 m 524 -118 l 388 -404 l 290 -371 l 361 -61 l 524 -118 z "},"ņ":{"ha":699,"x_min":69,"x_max":629,"o":"m 629 0 l 449 0 l 449 574 q 379 644 449 644 l 319 644 q 250 574 250 644 l 250 0 l 69 0 l 69 819 l 250 819 l 250 769 q 301 805 267 790 q 368 819 336 819 l 436 819 q 513 805 478 819 q 574 764 549 790 q 615 701 600 738 q 629 624 629 665 l 629 0 m 446 -118 l 310 -404 l 213 -371 l 283 -61 l 446 -118 z "},"Ŗ":{"ha":847,"x_min":76,"x_max":771,"o":"m 771 0 l 563 0 l 396 454 l 271 454 l 271 0 l 76 0 l 76 1097 l 521 1097 q 618 1078 572 1097 q 698 1024 664 1058 q 751 944 732 990 q 771 847 771 899 l 771 706 q 726 539 771 601 q 601 457 681 476 l 771 0 m 522 -118 l 386 -404 l 289 -371 l 360 -61 l 522 -118 m 576 740 l 576 811 q 551 883 576 858 q 479 908 525 908 l 271 908 l 271 643 l 479 643 q 576 740 576 643 z "},"ŗ":{"ha":501,"x_min":69,"x_max":488,"o":"m 488 800 l 446 631 q 419 642 432 639 q 378 644 407 644 l 319 644 q 250 574 250 643 l 250 0 l 69 0 l 69 819 l 250 819 l 250 747 q 302 806 267 789 q 365 822 338 822 l 410 822 q 452 817 431 822 q 488 800 474 811 m 365 -118 l 229 -404 l 132 -371 l 203 -61 l 365 -118 z "},"Ș":{"ha":847,"x_min":76,"x_max":771,"o":"m 771 250 q 751 152 771 197 q 698 73 732 107 q 618 19 664 39 q 521 0 572 0 l 326 0 q 231 18 274 0 q 155 67 188 36 q 102 140 122 99 q 76 231 82 182 l 271 279 q 297 213 274 236 q 368 189 321 189 l 479 189 q 576 286 576 189 l 576 324 q 563 378 576 360 q 514 413 550 397 l 261 514 q 192 549 225 528 q 133 602 160 571 q 92 674 107 633 q 76 765 76 714 l 76 847 q 96 944 76 899 q 149 1024 115 990 q 228 1078 183 1058 q 326 1097 274 1097 l 521 1097 q 617 1078 574 1097 q 694 1028 661 1060 q 747 955 726 996 q 771 869 767 914 l 576 821 q 550 885 574 861 q 479 908 526 908 l 368 908 q 271 811 271 908 l 271 797 q 281 727 271 750 q 328 690 292 704 l 589 586 q 720 499 669 554 q 771 357 771 443 l 771 250 m 535 -118 l 399 -404 l 301 -371 l 372 -61 l 535 -118 z "},"ș":{"ha":715,"x_min":69,"x_max":646,"o":"m 646 194 q 631 117 646 153 q 591 55 617 81 q 530 15 565 29 q 453 0 494 0 l 264 0 q 187 15 222 0 q 126 54 151 29 q 85 115 100 79 q 69 192 69 150 l 250 238 q 269 190 253 206 q 321 175 285 175 l 396 175 q 465 239 465 175 l 465 244 q 456 272 465 260 q 421 293 446 283 l 217 368 q 165 395 192 378 q 117 438 139 413 q 83 496 96 463 q 69 569 69 529 l 69 625 q 84 702 69 667 q 124 764 99 738 q 185 805 150 790 q 263 819 221 819 l 453 819 q 530 805 494 819 q 591 765 565 790 q 631 705 617 740 q 646 628 646 669 l 465 582 q 396 644 461 644 l 319 644 q 267 629 283 644 q 250 588 250 614 l 250 579 q 258 548 250 560 q 289 528 265 536 l 504 449 q 558 422 532 439 q 603 381 583 406 q 634 323 622 356 q 646 249 646 290 l 646 194 m 475 -118 l 339 -404 l 242 -371 l 313 -61 l 475 -118 z "},"Ț":{"ha":847,"x_min":76,"x_max":771,"o":"m 771 908 l 521 908 l 521 0 l 326 0 l 326 908 l 76 908 l 76 1097 l 771 1097 l 771 908 m 508 -118 l 372 -404 l 275 -371 l 346 -61 l 508 -118 z "},"ț":{"ha":497,"x_min":21,"x_max":463,"o":"m 463 0 l 285 0 q 208 15 243 0 q 146 56 172 29 q 105 118 119 82 q 90 196 90 154 l 90 638 l 21 638 l 21 813 l 90 813 l 90 981 l 271 1026 l 271 813 l 449 813 l 449 638 l 271 638 l 271 244 q 340 175 271 175 l 463 175 l 463 0 m 356 -118 l 219 -404 l 122 -371 l 193 -61 l 356 -118 z "},"Ş":{"ha":847,"x_min":76,"x_max":771,"o":"m 771 250 q 751 152 771 197 q 698 73 732 107 q 618 19 664 39 q 521 0 572 0 l 475 0 l 465 -49 q 508 -53 489 -49 q 540 -71 526 -58 q 561 -106 554 -83 q 568 -164 568 -128 q 537 -254 568 -231 q 435 -278 506 -278 l 315 -278 l 315 -201 l 360 -201 q 386 -200 374 -201 q 436 -156 436 -200 q 383 -111 436 -111 l 335 -111 l 354 0 l 326 0 q 231 18 274 0 q 155 67 188 36 q 102 140 122 99 q 76 231 82 182 l 271 279 q 297 213 274 236 q 368 189 321 189 l 479 189 q 576 286 576 189 l 576 324 q 563 378 576 360 q 514 413 550 397 l 261 514 q 192 549 225 528 q 133 602 160 571 q 92 674 107 633 q 76 765 76 714 l 76 847 q 96 944 76 899 q 149 1024 115 990 q 228 1078 183 1058 q 326 1097 274 1097 l 521 1097 q 617 1078 574 1097 q 694 1028 661 1060 q 747 955 726 996 q 771 869 767 914 l 576 821 q 550 885 574 861 q 479 908 526 908 l 368 908 q 271 811 271 908 l 271 797 q 281 727 271 750 q 328 690 292 704 l 589 586 q 720 499 669 554 q 771 357 771 443 l 771 250 z "},"ş":{"ha":715,"x_min":69,"x_max":646,"o":"m 646 194 q 631 117 646 153 q 591 55 617 81 q 530 15 565 29 q 453 0 494 0 l 411 0 l 401 -49 q 444 -53 425 -49 q 476 -71 463 -58 q 497 -106 490 -83 q 504 -164 504 -128 q 473 -254 504 -231 q 371 -278 442 -278 l 251 -278 l 251 -201 l 296 -201 q 322 -200 310 -201 q 372 -156 372 -200 q 319 -111 372 -111 l 271 -111 l 290 0 l 264 0 q 187 15 222 0 q 126 54 151 29 q 85 115 100 79 q 69 192 69 150 l 250 238 q 269 190 253 206 q 321 175 285 175 l 396 175 q 465 239 465 175 l 465 244 q 456 272 465 260 q 421 293 446 283 l 217 368 q 165 395 192 378 q 117 438 139 413 q 83 496 96 463 q 69 569 69 529 l 69 625 q 84 702 69 667 q 124 764 99 738 q 185 805 150 790 q 263 819 221 819 l 453 819 q 530 805 494 819 q 591 765 565 790 q 631 705 617 740 q 646 628 646 669 l 465 582 q 396 644 461 644 l 319 644 q 267 629 283 644 q 250 588 250 614 l 250 579 q 258 548 250 560 q 289 528 265 536 l 504 449 q 558 422 532 439 q 603 381 583 406 q 634 323 622 356 q 646 249 646 290 l 646 194 z "},"Ţ":{"ha":847,"x_min":76,"x_max":771,"o":"m 771 908 l 521 908 l 521 0 l 486 0 l 476 -49 q 519 -53 500 -49 q 551 -71 538 -58 q 572 -106 565 -83 q 579 -164 579 -128 q 548 -254 579 -231 q 446 -278 517 -278 l 326 -278 l 326 -201 l 371 -201 q 397 -200 385 -201 q 447 -156 447 -200 q 394 -111 447 -111 l 346 -111 l 365 0 l 326 0 l 326 908 l 76 908 l 76 1097 l 771 1097 l 771 908 z "},"ţ":{"ha":497,"x_min":21,"x_max":463,"o":"m 174 33 q 113 101 135 58 q 90 196 90 143 l 90 638 l 21 638 l 21 813 l 90 813 l 90 981 l 271 1026 l 271 813 l 449 813 l 449 638 l 271 638 l 271 244 q 340 175 271 175 l 463 175 l 463 0 l 290 0 l 281 -49 q 323 -53 304 -49 q 356 -71 342 -58 q 376 -106 369 -83 q 383 -164 383 -128 q 351 -256 383 -235 q 250 -278 319 -278 l 131 -278 l 131 -201 l 201 -200 q 240 -189 229 -200 q 251 -157 251 -178 q 240 -124 251 -136 q 201 -111 228 -111 l 150 -111 l 174 33 z "},"Ľ":{"ha":847,"x_min":76,"x_max":771,"o":"m 629 1053 l 493 767 l 396 800 l 467 1108 l 629 1053 m 771 0 l 76 0 l 76 1097 l 271 1097 l 271 189 l 771 189 l 771 0 z "},"ľ":{"ha":519,"x_min":69,"x_max":547,"o":"m 547 1056 l 411 769 l 314 803 l 385 1113 l 547 1056 m 250 0 l 69 0 l 69 1097 l 250 1097 l 250 0 z "},"ŉ":{"ha":831,"x_min":0,"x_max":761,"o":"m 233 1056 l 97 769 l 0 803 l 71 1113 l 233 1056 m 761 0 l 581 0 l 581 574 q 511 644 581 644 l 451 644 q 382 574 382 644 l 382 0 l 201 0 l 201 819 l 382 819 l 382 769 q 433 805 399 790 q 500 819 468 819 l 568 819 q 645 805 610 819 q 706 764 681 790 q 747 701 732 738 q 761 624 761 665 l 761 0 z "},"Ą":{"ha":847,"x_min":76,"x_max":771,"o":"m 771 0 l 711 0 q 649 -70 667 -33 q 631 -133 631 -107 q 647 -176 631 -161 q 697 -192 664 -192 q 771 -172 733 -192 l 743 -281 q 684 -307 715 -297 q 618 -317 653 -317 q 515 -280 556 -317 q 475 -181 475 -243 q 509 -80 475 -128 q 596 0 543 -32 l 569 0 l 533 182 l 314 182 l 278 0 l 76 0 l 329 1097 l 518 1097 l 771 0 m 497 371 l 438 681 q 433 694 436 686 q 424 703 431 703 q 414 694 417 703 q 410 681 411 686 l 350 371 l 497 371 z "},"ą":{"ha":692,"x_min":56,"x_max":622,"o":"m 622 0 l 563 0 q 500 -70 518 -33 q 482 -133 482 -107 q 499 -176 482 -161 q 549 -192 515 -192 q 622 -172 585 -192 l 594 -281 q 535 -307 567 -297 q 469 -317 504 -317 q 367 -280 407 -317 q 326 -181 326 -243 q 367 -71 326 -122 q 471 13 408 -19 l 456 49 q 413 14 442 28 q 351 0 385 0 l 250 0 q 173 15 208 0 q 111 56 138 29 q 70 118 85 82 q 56 196 56 154 l 56 307 q 70 385 56 349 q 111 447 85 421 q 173 488 138 472 q 250 503 208 503 l 442 503 l 442 574 q 372 644 442 644 l 304 644 q 251 628 267 644 q 233 582 236 613 l 63 625 l 63 638 q 117 771 63 722 q 258 819 172 819 l 428 819 q 505 805 469 819 q 567 765 540 790 q 608 703 593 739 q 622 625 622 667 l 622 0 m 442 244 l 442 326 l 306 326 q 253 310 269 326 q 236 256 236 293 l 236 244 q 306 175 236 175 l 372 175 q 442 244 442 175 z "},"Ę":{"ha":847,"x_min":76,"x_max":771,"o":"m 771 0 l 711 0 q 649 -70 667 -33 q 631 -133 631 -107 q 647 -176 631 -161 q 697 -192 664 -192 q 771 -172 733 -192 l 743 -281 q 684 -307 715 -297 q 618 -317 653 -317 q 515 -280 556 -317 q 475 -181 475 -243 q 509 -80 475 -128 q 596 0 543 -32 l 76 0 l 76 1097 l 771 1097 l 771 908 l 271 908 l 271 643 l 632 643 l 632 454 l 271 454 l 271 189 l 771 189 l 771 0 z "},"ę":{"ha":860,"x_min":69,"x_max":636,"o":"m 636 317 l 250 317 l 250 246 q 321 175 250 175 l 389 175 q 440 191 425 175 q 458 238 456 207 l 629 194 l 629 182 q 597 74 629 117 q 510 11 564 31 q 434 -65 456 -24 q 413 -133 413 -106 q 429 -176 413 -161 q 479 -192 446 -192 q 553 -172 515 -192 l 525 -281 q 466 -307 497 -297 q 400 -317 435 -317 q 297 -280 338 -317 q 257 -181 257 -243 q 291 -80 257 -128 q 378 0 325 -32 l 265 0 q 188 15 224 0 q 125 55 151 29 q 84 117 99 81 q 69 194 69 153 l 69 625 q 84 702 69 667 q 124 764 99 738 q 185 805 150 790 q 263 819 221 819 l 442 819 q 519 805 483 819 q 581 764 556 790 q 622 701 607 738 q 636 624 636 665 l 636 317 m 456 575 q 386 644 457 644 l 321 644 q 267 628 283 644 q 250 575 250 611 l 250 493 l 456 493 l 456 575 z "},"Į":{"ha":347,"x_min":15,"x_max":311,"o":"m 311 -172 l 283 -281 q 224 -307 256 -297 q 158 -317 193 -317 q 56 -280 96 -317 q 15 -181 15 -243 q 49 -80 15 -128 q 136 0 83 -32 l 76 0 l 76 1097 l 271 1097 l 271 0 l 251 0 q 189 -70 207 -33 q 171 -133 171 -107 q 188 -176 171 -161 q 238 -192 204 -192 q 311 -172 274 -192 z "},"į":{"ha":319,"x_min":-6,"x_max":290,"o":"m 250 921 l 69 921 l 69 1096 l 250 1096 l 250 921 m 290 -172 l 263 -281 q 203 -307 235 -297 q 138 -317 172 -317 q 35 -280 75 -317 q -6 -181 -6 -243 q 28 -80 -6 -128 q 115 0 63 -32 l 69 0 l 69 819 l 250 819 l 250 0 l 231 0 q 168 -70 186 -33 q 150 -133 150 -107 q 167 -176 150 -161 q 217 -192 183 -192 q 290 -172 253 -192 z "},"Ų":{"ha":847,"x_min":76,"x_max":771,"o":"m 771 250 q 751 152 771 197 q 698 73 732 107 q 618 19 664 39 q 521 0 572 0 l 517 0 q 454 -70 472 -33 q 436 -133 436 -107 q 453 -176 436 -161 q 503 -192 469 -192 q 576 -172 539 -192 l 549 -281 q 490 -307 521 -297 q 424 -317 458 -317 q 321 -280 361 -317 q 281 -181 281 -243 q 315 -80 281 -128 q 401 0 349 -32 l 326 0 q 228 19 274 0 q 149 73 182 39 q 96 152 115 107 q 76 250 76 197 l 76 1097 l 271 1097 l 271 286 q 368 189 271 189 l 479 189 q 576 286 576 189 l 576 1097 l 771 1097 l 771 250 z "},"ų":{"ha":699,"x_min":69,"x_max":629,"o":"m 629 0 l 567 0 q 504 -70 522 -33 q 486 -133 486 -107 q 503 -176 486 -161 q 553 -192 519 -192 q 626 -172 589 -192 l 599 -281 q 540 -307 571 -297 q 474 -317 508 -317 q 371 -280 411 -317 q 331 -181 331 -243 q 365 -80 331 -128 q 451 0 399 -32 l 449 0 l 449 50 q 397 14 432 29 q 331 -1 363 -1 l 263 -1 q 185 14 221 -1 q 124 56 150 29 q 84 118 99 82 q 69 196 69 154 l 69 819 l 250 819 l 250 244 q 319 175 250 175 l 379 175 q 449 244 449 175 l 449 819 l 629 819 l 629 0 z "},"Ā":{"ha":847,"x_min":76,"x_max":771,"o":"m 633 1168 l 208 1168 l 208 1301 l 633 1301 l 633 1168 m 771 0 l 569 0 l 533 182 l 314 182 l 278 0 l 76 0 l 329 1097 l 518 1097 l 771 0 m 497 371 l 438 681 q 433 694 436 686 q 424 703 431 703 q 414 694 417 703 q 410 681 411 686 l 350 371 l 497 371 z "},"ā":{"ha":692,"x_min":56,"x_max":622,"o":"m 557 896 l 132 896 l 132 1029 l 557 1029 l 557 896 m 622 0 l 476 0 l 456 49 q 413 14 442 28 q 351 0 385 0 l 250 0 q 173 15 208 0 q 111 56 138 29 q 70 118 85 82 q 56 196 56 154 l 56 307 q 70 385 56 349 q 111 447 85 421 q 173 488 138 472 q 250 503 208 503 l 442 503 l 442 574 q 372 644 442 644 l 304 644 q 251 628 267 644 q 233 582 236 613 l 63 625 l 63 638 q 117 771 63 722 q 258 819 172 819 l 428 819 q 505 805 469 819 q 567 765 540 790 q 608 703 593 739 q 622 625 622 667 l 622 0 m 442 244 l 442 326 l 306 326 q 253 310 269 326 q 236 256 236 293 l 236 244 q 306 175 236 175 l 372 175 q 442 244 442 175 z "},"Ē":{"ha":847,"x_min":76,"x_max":771,"o":"m 632 1168 l 207 1168 l 207 1301 l 632 1301 l 632 1168 m 771 0 l 76 0 l 76 1097 l 771 1097 l 771 908 l 271 908 l 271 643 l 632 643 l 632 454 l 271 454 l 271 189 l 771 189 l 771 0 z "},"ē":{"ha":706,"x_min":69,"x_max":636,"o":"m 565 890 l 140 890 l 140 1024 l 565 1024 l 565 890 m 636 317 l 250 317 l 250 246 q 321 175 250 175 l 389 175 q 440 191 425 175 q 458 238 456 207 l 629 194 l 629 182 q 574 49 629 97 q 435 0 519 0 l 265 0 q 188 15 224 0 q 125 55 151 29 q 84 117 99 81 q 69 194 69 153 l 69 625 q 84 702 69 667 q 124 764 99 738 q 185 805 150 790 q 263 819 221 819 l 442 819 q 519 805 483 819 q 581 764 556 790 q 622 701 607 738 q 636 624 636 665 l 636 317 m 456 575 q 386 644 457 644 l 321 644 q 267 628 283 644 q 250 575 250 611 l 250 493 l 456 493 l 456 575 z "},"Ī":{"ha":347,"x_min":-39,"x_max":386,"o":"m 386 1168 l -39 1168 l -39 1301 l 386 1301 l 386 1168 m 271 0 l 76 0 l 76 1097 l 271 1097 l 271 0 z "},"ī":{"ha":319,"x_min":-53,"x_max":372,"o":"m 372 889 l -53 889 l -53 1022 l 372 1022 l 372 889 m 250 0 l 69 0 l 69 819 l 250 819 l 250 0 z "},"Ō":{"ha":847,"x_min":76,"x_max":771,"o":"m 636 1167 l 211 1167 l 211 1300 l 636 1300 l 636 1167 m 771 250 q 751 152 771 197 q 698 73 732 107 q 618 19 664 39 q 521 0 572 0 l 326 0 q 228 19 274 0 q 149 72 183 39 q 96 151 115 106 q 76 250 76 197 l 76 847 q 96 944 76 899 q 149 1024 115 990 q 228 1078 183 1058 q 326 1097 274 1097 l 521 1097 q 618 1078 572 1097 q 698 1024 664 1058 q 751 944 732 990 q 771 847 771 899 l 771 250 m 576 286 l 576 811 q 479 908 576 908 l 368 908 q 271 811 271 908 l 271 286 q 368 189 271 189 l 479 189 q 551 215 526 189 q 576 286 576 240 z "},"ō":{"ha":715,"x_min":69,"x_max":646,"o":"m 572 896 l 147 896 l 147 1029 l 572 1029 l 572 896 m 646 194 q 631 117 646 153 q 590 55 617 81 q 528 15 564 29 q 451 0 493 0 l 264 0 q 187 15 222 0 q 125 55 151 29 q 84 117 99 81 q 69 194 69 153 l 69 625 q 84 703 69 667 q 125 765 99 739 q 187 805 151 790 q 264 819 222 819 l 451 819 q 528 805 493 819 q 590 764 564 790 q 631 701 617 738 q 646 624 646 665 l 646 194 m 465 246 l 465 574 q 396 644 465 644 l 319 644 q 250 574 250 644 l 250 246 q 319 175 250 175 l 396 175 q 465 246 465 175 z "},"Ū":{"ha":847,"x_min":76,"x_max":771,"o":"m 632 1165 l 207 1165 l 207 1299 l 632 1299 l 632 1165 m 771 250 q 751 152 771 197 q 698 73 732 107 q 618 19 664 39 q 521 0 572 0 l 326 0 q 228 19 274 0 q 149 73 182 39 q 96 152 115 107 q 76 250 76 197 l 76 1097 l 271 1097 l 271 286 q 368 189 271 189 l 479 189 q 576 286 576 189 l 576 1097 l 771 1097 l 771 250 z "},"ū":{"ha":699,"x_min":69,"x_max":629,"o":"m 563 889 l 138 889 l 138 1022 l 563 1022 l 563 889 m 629 0 l 449 0 l 449 50 q 397 14 432 29 q 331 -1 363 -1 l 263 -1 q 185 14 221 -1 q 124 56 150 29 q 84 118 99 82 q 69 196 69 154 l 69 819 l 250 819 l 250 244 q 319 175 250 175 l 379 175 q 449 244 449 175 l 449 819 l 629 819 l 629 0 z "},"Đ":{"ha":847,"x_min":76,"x_max":771,"o":"m 771 250 q 751 152 771 197 q 698 73 732 107 q 618 19 664 39 q 521 0 572 0 l 76 0 l 76 189 l 132 189 l 132 454 l 76 454 l 76 643 l 132 643 l 132 908 l 76 908 l 76 1097 l 521 1097 q 618 1078 572 1097 q 698 1024 664 1058 q 751 944 732 990 q 771 847 771 899 l 771 250 m 576 286 l 576 811 q 479 908 576 908 l 326 908 l 326 643 l 438 643 l 438 454 l 326 454 l 326 189 l 479 189 q 576 286 576 189 z "},"đ":{"ha":726,"x_min":69,"x_max":713,"o":"m 713 889 l 657 889 l 657 0 l 513 0 l 492 49 q 375 0 454 0 l 263 0 q 185 15 221 0 q 124 55 150 29 q 84 117 99 81 q 69 194 69 153 l 69 625 q 84 703 69 667 q 124 765 99 739 q 185 805 150 790 q 263 819 221 819 l 358 819 q 425 808 394 819 q 476 769 456 796 l 476 889 l 288 889 l 288 1022 l 476 1022 l 476 1097 l 657 1097 l 657 1022 l 713 1022 l 713 889 m 476 246 l 476 574 q 407 644 476 644 l 319 644 q 250 574 250 644 l 250 246 q 319 175 250 175 l 407 175 q 476 246 476 175 z "},"ĸ":{"ha":726,"x_min":69,"x_max":657,"o":"m 657 0 l 474 -1 l 474 31 q 456 90 474 63 l 296 347 l 250 294 l 250 0 l 69 0 l 69 819 l 250 819 l 250 517 l 442 725 q 467 757 461 744 q 474 792 474 769 l 474 819 l 657 819 l 657 774 q 645 716 657 743 q 606 657 633 689 l 429 467 l 624 149 q 650 97 643 118 q 657 51 657 76 l 657 0 z "},"Ĉ":{"ha":847,"x_min":76,"x_max":771,"o":"m 651 1185 l 510 1150 l 425 1242 l 342 1149 l 200 1183 l 357 1358 l 493 1358 l 651 1185 m 771 226 q 747 141 767 182 q 694 69 726 100 q 617 19 661 38 q 521 0 572 0 l 326 0 q 228 19 274 0 q 149 73 183 39 q 96 152 115 107 q 76 250 76 197 l 76 847 q 96 944 76 899 q 149 1024 115 990 q 228 1078 183 1058 q 326 1097 274 1097 l 521 1097 q 617 1078 572 1097 q 694 1028 661 1060 q 747 956 726 997 q 771 868 767 914 l 576 819 q 551 882 576 856 q 479 908 526 908 l 368 908 q 271 811 271 908 l 271 286 q 368 189 271 189 l 479 189 q 551 212 525 189 q 576 275 576 235 l 771 226 z "},"ĉ":{"ha":715,"x_min":69,"x_max":646,"o":"m 586 910 l 444 875 l 361 967 l 276 874 l 135 908 l 293 1083 l 429 1083 l 586 910 m 646 192 q 631 115 646 150 q 590 54 615 79 q 529 15 564 29 q 453 0 494 0 l 263 0 q 185 15 221 0 q 124 55 150 29 q 84 117 99 81 q 69 194 69 153 l 69 625 q 84 703 69 667 q 124 765 99 739 q 185 805 150 790 q 263 819 221 819 l 453 819 q 530 805 494 819 q 591 765 565 790 q 631 705 617 740 q 646 628 646 669 l 465 582 q 396 644 461 644 l 319 644 q 250 574 250 644 l 250 246 q 319 175 250 175 l 396 175 q 465 238 461 175 l 646 192 z "},"Ĝ":{"ha":847,"x_min":76,"x_max":771,"o":"m 650 1189 l 508 1154 l 424 1246 l 340 1153 l 199 1188 l 356 1363 l 492 1363 l 650 1189 m 771 250 q 751 152 771 197 q 698 73 732 107 q 618 19 664 39 q 521 0 572 0 l 326 0 q 228 19 274 0 q 149 73 183 39 q 96 152 115 107 q 76 250 76 197 l 76 847 q 96 944 76 899 q 149 1024 115 990 q 228 1078 183 1058 q 326 1097 274 1097 l 521 1097 q 615 1080 572 1097 q 691 1032 658 1063 q 744 960 724 1001 q 771 872 764 919 l 576 824 q 551 883 576 857 q 479 908 526 908 l 368 908 q 271 811 271 908 l 271 286 q 368 189 271 189 l 479 189 q 576 286 576 189 l 576 390 l 438 390 l 438 579 l 771 579 l 771 250 z "},"ĝ":{"ha":726,"x_min":69,"x_max":657,"o":"m 597 910 l 456 875 l 372 967 l 288 874 l 146 908 l 304 1083 l 440 1083 l 597 910 m 657 -85 q 642 -162 657 -126 q 602 -223 628 -197 q 540 -263 576 -249 q 463 -278 504 -278 l 285 -278 q 145 -229 200 -278 q 90 -96 90 -181 l 90 -83 l 261 -40 q 279 -87 264 -71 q 332 -103 294 -103 l 407 -103 q 476 -32 476 -103 l 476 89 q 425 53 460 68 q 358 39 390 39 l 263 39 q 185 53 221 39 q 124 94 150 68 q 84 156 99 119 q 69 233 69 192 l 69 626 q 84 703 69 668 q 124 765 99 739 q 185 805 150 790 q 263 819 221 819 l 372 819 q 441 806 408 819 q 490 774 474 793 l 511 819 l 657 819 l 657 -85 m 476 285 l 476 574 q 407 644 476 644 l 319 644 q 250 574 250 644 l 250 285 q 319 215 250 215 l 407 215 q 476 285 476 215 z "},"Ĥ":{"ha":847,"x_min":76,"x_max":771,"o":"m 653 1186 l 511 1151 l 426 1243 l 343 1150 l 201 1185 l 358 1360 l 494 1360 l 653 1186 m 771 0 l 576 0 l 576 454 l 271 454 l 271 0 l 76 0 l 76 1097 l 271 1097 l 271 643 l 576 643 l 576 1097 l 771 1097 l 771 0 z "},"ĥ":{"ha":726,"x_min":69,"x_max":657,"o":"m 594 1188 l 453 1153 l 368 1244 l 285 1151 l 143 1186 l 300 1361 l 436 1361 l 594 1188 m 657 0 l 476 0 l 476 574 q 407 644 476 644 l 319 644 q 250 574 250 644 l 250 0 l 69 0 l 69 1097 l 250 1097 l 250 769 q 301 805 267 790 q 368 819 336 819 l 463 819 q 540 805 504 819 q 601 764 575 790 q 642 701 628 738 q 657 624 657 665 l 657 0 z "},"Ĵ":{"ha":847,"x_min":76,"x_max":897,"o":"m 897 1185 l 756 1150 l 671 1242 l 588 1149 l 446 1183 l 603 1358 l 739 1358 l 897 1185 m 771 250 q 751 152 771 197 q 698 73 732 107 q 618 19 664 39 q 521 0 572 0 l 326 0 q 233 17 276 0 q 156 65 189 35 q 103 137 124 96 q 76 226 82 178 l 271 275 q 296 214 271 239 q 368 189 321 189 l 479 189 q 576 286 576 189 l 576 1097 l 771 1097 l 771 250 z "},"ĵ":{"ha":319,"x_min":-65,"x_max":386,"o":"m 386 914 l 244 879 l 160 971 l 76 878 l -65 913 l 93 1088 l 229 1088 l 386 914 m 250 -103 q 201 -233 250 -187 q 69 -278 153 -278 l -56 -278 l -56 -103 l 0 -103 q 69 -33 69 -103 l 69 819 l 250 819 l 250 -103 z "},"Ŝ":{"ha":847,"x_min":76,"x_max":771,"o":"m 650 1185 l 508 1150 l 424 1242 l 340 1149 l 199 1183 l 356 1358 l 492 1358 l 650 1185 m 771 250 q 751 152 771 197 q 698 73 732 107 q 618 19 664 39 q 521 0 572 0 l 326 0 q 231 18 274 0 q 155 67 188 36 q 102 140 122 99 q 76 231 82 182 l 271 279 q 297 213 274 236 q 368 189 321 189 l 479 189 q 576 286 576 189 l 576 324 q 563 378 576 360 q 514 413 550 397 l 261 514 q 192 549 225 528 q 133 602 160 571 q 92 674 107 633 q 76 765 76 714 l 76 847 q 96 944 76 899 q 149 1024 115 990 q 228 1078 183 1058 q 326 1097 274 1097 l 521 1097 q 617 1078 574 1097 q 694 1028 661 1060 q 747 955 726 996 q 771 869 767 914 l 576 821 q 550 885 574 861 q 479 908 526 908 l 368 908 q 271 811 271 908 l 271 797 q 281 727 271 750 q 328 690 292 704 l 589 586 q 720 499 669 554 q 771 357 771 443 l 771 250 z "},"ŝ":{"ha":715,"x_min":69,"x_max":646,"o":"m 581 910 l 439 875 l 356 967 l 271 874 l 129 908 l 288 1083 l 424 1083 l 581 910 m 646 194 q 631 117 646 153 q 591 55 617 81 q 530 15 565 29 q 453 0 494 0 l 264 0 q 187 15 222 0 q 126 54 151 29 q 85 115 100 79 q 69 192 69 150 l 250 238 q 269 190 253 206 q 321 175 285 175 l 396 175 q 465 239 465 175 l 465 244 q 456 272 465 260 q 421 293 446 283 l 217 368 q 165 395 192 378 q 117 438 139 413 q 83 496 96 463 q 69 569 69 529 l 69 625 q 84 702 69 667 q 124 764 99 738 q 185 805 150 790 q 263 819 221 819 l 453 819 q 530 805 494 819 q 591 765 565 790 q 631 705 617 740 q 646 628 646 669 l 465 582 q 396 644 461 644 l 319 644 q 267 629 283 644 q 250 588 250 614 l 250 579 q 258 548 250 560 q 289 528 265 536 l 504 449 q 558 422 532 439 q 603 381 583 406 q 634 323 622 356 q 646 249 646 290 l 646 194 z "},"Ŵ":{"ha":847,"x_min":76,"x_max":772,"o":"m 651 1185 l 510 1150 l 425 1242 l 342 1149 l 200 1183 l 357 1358 l 493 1358 l 651 1185 m 772 1097 l 711 0 l 528 0 l 439 329 q 435 340 438 335 q 425 344 432 344 q 415 340 418 344 q 411 329 413 335 l 321 0 l 139 0 l 76 1097 l 272 1097 l 303 563 q 304 553 303 558 q 311 547 306 547 q 319 553 317 547 q 324 563 322 558 l 410 881 q 415 891 411 886 q 425 896 418 896 q 435 891 432 896 q 440 881 439 886 l 525 563 q 529 553 526 558 q 538 547 532 547 q 544 553 543 547 q 546 563 546 558 l 576 1097 l 772 1097 z "},"ŵ":{"ha":799,"x_min":28,"x_max":771,"o":"m 626 910 l 485 875 l 401 967 l 317 874 l 175 908 l 333 1083 l 469 1083 l 626 910 m 771 819 l 639 0 l 488 0 l 413 253 q 400 268 407 268 q 388 253 393 268 l 313 0 l 161 0 l 28 819 l 213 819 l 272 401 q 276 391 274 397 q 285 385 279 385 q 294 391 292 385 q 297 401 296 397 l 385 663 q 392 676 388 674 q 400 679 396 679 q 408 676 404 679 q 415 663 413 674 l 501 401 q 506 391 503 397 q 514 385 508 385 q 524 391 521 385 q 526 401 526 397 l 586 819 l 771 819 z "},"Ŷ":{"ha":847,"x_min":76,"x_max":771,"o":"m 649 1185 l 507 1150 l 422 1242 l 339 1149 l 197 1183 l 354 1358 l 490 1358 l 649 1185 m 771 1031 q 736 883 771 961 l 521 404 l 521 0 l 326 0 l 326 404 l 111 883 q 84 960 92 924 q 76 1032 76 996 l 76 1097 l 271 1097 l 271 1054 q 275 1009 271 1033 q 289 964 279 985 l 424 650 l 558 964 q 572 1010 568 986 q 576 1054 576 1033 l 576 1097 l 771 1097 l 771 1031 z "},"ŷ":{"ha":694,"x_min":28,"x_max":667,"o":"m 568 910 l 426 875 l 343 967 l 258 874 l 117 908 l 275 1083 l 411 1083 l 568 910 m 667 819 l 408 -99 q 372 -180 396 -146 q 318 -235 349 -214 q 251 -267 288 -257 q 176 -278 215 -278 l 101 -278 l 101 -103 l 157 -103 q 250 -31 229 -103 l 258 0 l 28 819 l 213 819 l 333 346 q 338 335 335 342 q 346 329 340 329 q 355 335 353 329 q 358 346 357 342 l 482 819 l 667 819 z "},"Ů":{"ha":847,"x_min":76,"x_max":771,"o":"m 579 1311 q 567 1249 579 1279 q 535 1197 556 1219 q 485 1162 514 1175 q 424 1149 457 1149 q 361 1162 390 1149 q 311 1197 332 1175 q 278 1249 290 1219 q 267 1311 267 1278 q 278 1374 267 1344 q 311 1426 290 1404 q 361 1462 332 1449 q 424 1475 390 1475 q 485 1462 457 1475 q 535 1426 514 1449 q 567 1374 556 1403 q 579 1311 579 1344 m 771 250 q 751 152 771 197 q 698 73 732 107 q 618 19 664 39 q 521 0 572 0 l 326 0 q 228 19 274 0 q 149 73 182 39 q 96 152 115 107 q 76 250 76 197 l 76 1097 l 271 1097 l 271 286 q 368 189 271 189 l 479 189 q 576 286 576 189 l 576 1097 l 771 1097 l 771 250 m 478 1313 q 462 1353 478 1336 q 422 1371 446 1371 q 383 1353 399 1371 q 367 1313 367 1336 q 383 1272 367 1289 q 422 1254 399 1254 q 462 1272 446 1254 q 478 1313 478 1289 z "},"ů":{"ha":699,"x_min":69,"x_max":629,"o":"m 508 1038 q 497 975 508 1004 q 464 924 485 946 q 415 888 443 901 q 353 875 386 875 q 290 888 319 875 q 240 924 261 901 q 208 975 219 946 q 196 1038 196 1004 q 208 1100 196 1071 q 240 1152 219 1129 q 290 1188 261 1175 q 353 1201 319 1201 q 415 1188 386 1201 q 464 1152 443 1175 q 497 1100 485 1129 q 508 1038 508 1071 m 629 0 l 449 0 l 449 50 q 397 14 432 29 q 331 -1 363 -1 l 263 -1 q 185 14 221 -1 q 124 56 150 29 q 84 118 99 82 q 69 196 69 154 l 69 819 l 250 819 l 250 244 q 319 175 250 175 l 379 175 q 449 244 449 175 l 449 819 l 629 819 l 629 0 m 407 1039 q 392 1079 407 1063 q 353 1096 376 1096 q 313 1079 329 1096 q 297 1039 297 1063 q 313 998 297 1015 q 353 981 329 981 q 392 998 376 981 q 407 1039 407 1015 z "},"Ő":{"ha":847,"x_min":76,"x_max":771,"o":"m 688 1336 l 540 1140 l 460 1188 l 567 1414 l 688 1336 m 479 1336 l 332 1140 l 251 1188 l 358 1414 l 479 1336 m 771 250 q 751 152 771 197 q 698 73 732 107 q 618 19 664 39 q 521 0 572 0 l 326 0 q 228 19 274 0 q 149 72 183 39 q 96 151 115 106 q 76 250 76 197 l 76 847 q 96 944 76 899 q 149 1024 115 990 q 228 1078 183 1058 q 326 1097 274 1097 l 521 1097 q 618 1078 572 1097 q 698 1024 664 1058 q 751 944 732 990 q 771 847 771 899 l 771 250 m 576 286 l 576 811 q 479 908 576 908 l 368 908 q 271 811 271 908 l 271 286 q 368 189 271 189 l 479 189 q 551 215 526 189 q 576 286 576 240 z "},"ő":{"ha":715,"x_min":69,"x_max":646,"o":"m 618 1071 l 471 874 l 392 921 l 497 1149 l 618 1071 m 410 1071 l 263 874 l 183 921 l 289 1149 l 410 1071 m 646 194 q 631 117 646 153 q 590 55 617 81 q 528 15 564 29 q 451 0 493 0 l 264 0 q 187 15 222 0 q 125 55 151 29 q 84 117 99 81 q 69 194 69 153 l 69 625 q 84 703 69 667 q 125 765 99 739 q 187 805 151 790 q 264 819 222 819 l 451 819 q 528 805 493 819 q 590 764 564 790 q 631 701 617 738 q 646 624 646 665 l 646 194 m 465 246 l 465 574 q 396 644 465 644 l 319 644 q 250 574 250 644 l 250 246 q 319 175 250 175 l 396 175 q 465 246 465 175 z "},"Ű":{"ha":847,"x_min":76,"x_max":771,"o":"m 678 1336 l 531 1140 l 450 1188 l 557 1414 l 678 1336 m 469 1336 l 322 1140 l 242 1188 l 349 1414 l 469 1336 m 771 250 q 751 152 771 197 q 698 73 732 107 q 618 19 664 39 q 521 0 572 0 l 326 0 q 228 19 274 0 q 149 73 182 39 q 96 152 115 107 q 76 250 76 197 l 76 1097 l 271 1097 l 271 286 q 368 189 271 189 l 479 189 q 576 286 576 189 l 576 1097 l 771 1097 l 771 250 z "},"ű":{"ha":699,"x_min":69,"x_max":629,"o":"m 615 1071 l 468 874 l 389 921 l 494 1149 l 615 1071 m 407 1071 l 260 874 l 181 921 l 286 1149 l 407 1071 m 629 0 l 449 0 l 449 50 q 397 14 432 29 q 331 -1 363 -1 l 263 -1 q 185 14 221 -1 q 124 56 150 29 q 84 118 99 82 q 69 196 69 154 l 69 819 l 250 819 l 250 244 q 319 175 250 175 l 379 175 q 449 244 449 175 l 449 819 l 629 819 l 629 0 z "},"Ă":{"ha":847,"x_min":76,"x_max":771,"o":"m 646 1344 q 581 1199 640 1250 q 429 1149 522 1149 q 273 1198 333 1149 q 201 1344 213 1247 l 314 1344 q 354 1289 328 1303 q 422 1275 381 1275 q 497 1287 467 1275 q 539 1344 526 1299 l 646 1344 m 771 0 l 569 0 l 533 182 l 314 182 l 278 0 l 76 0 l 329 1097 l 518 1097 l 771 0 m 497 371 l 438 681 q 433 694 436 686 q 424 703 431 703 q 414 694 417 703 q 410 681 411 686 l 350 371 l 497 371 z "},"ă":{"ha":692,"x_min":56,"x_max":622,"o":"m 571 1072 q 506 926 565 976 q 354 875 447 875 q 198 925 258 875 q 126 1072 138 975 l 239 1072 q 280 1015 254 1029 q 349 1001 306 1001 q 422 1013 392 1001 q 464 1072 451 1025 l 571 1072 m 622 0 l 476 0 l 456 49 q 413 14 442 28 q 351 0 385 0 l 250 0 q 173 15 208 0 q 111 56 138 29 q 70 118 85 82 q 56 196 56 154 l 56 307 q 70 385 56 349 q 111 447 85 421 q 173 488 138 472 q 250 503 208 503 l 442 503 l 442 574 q 372 644 442 644 l 304 644 q 251 628 267 644 q 233 582 236 613 l 63 625 l 63 638 q 117 771 63 722 q 258 819 172 819 l 428 819 q 505 805 469 819 q 567 765 540 790 q 608 703 593 739 q 622 625 622 667 l 622 0 m 442 244 l 442 326 l 306 326 q 253 310 269 326 q 236 256 236 293 l 236 244 q 306 175 236 175 l 372 175 q 442 244 442 175 z "},"Ĕ":{"ha":847,"x_min":76,"x_max":771,"o":"m 651 1344 q 587 1199 646 1250 q 435 1149 528 1149 q 278 1198 339 1149 q 207 1344 218 1247 l 319 1344 q 360 1289 333 1303 q 428 1275 386 1275 q 502 1287 472 1275 q 544 1344 532 1299 l 651 1344 m 771 0 l 76 0 l 76 1097 l 771 1097 l 771 908 l 271 908 l 271 643 l 632 643 l 632 454 l 271 454 l 271 189 l 771 189 l 771 0 z "},"ĕ":{"ha":706,"x_min":69,"x_max":636,"o":"m 582 1072 q 517 926 576 976 q 365 875 458 875 q 209 925 269 875 q 138 1072 149 975 l 250 1072 q 291 1015 265 1029 q 360 1001 317 1001 q 433 1013 403 1001 q 475 1072 463 1025 l 582 1072 m 636 317 l 250 317 l 250 246 q 321 175 250 175 l 389 175 q 440 191 425 175 q 458 238 456 207 l 629 194 l 629 182 q 574 49 629 97 q 435 0 519 0 l 265 0 q 188 15 224 0 q 125 55 151 29 q 84 117 99 81 q 69 194 69 153 l 69 625 q 84 702 69 667 q 124 764 99 738 q 185 805 150 790 q 263 819 221 819 l 442 819 q 519 805 483 819 q 581 764 556 790 q 622 701 607 738 q 636 624 636 665 l 636 317 m 456 575 q 386 644 457 644 l 321 644 q 267 628 283 644 q 250 575 250 611 l 250 493 l 456 493 l 456 575 z "},"Ğ":{"ha":847,"x_min":76,"x_max":771,"o":"m 638 1344 q 573 1199 632 1250 q 421 1149 514 1149 q 265 1198 325 1149 q 193 1344 204 1247 l 306 1344 q 346 1289 319 1303 q 414 1275 372 1275 q 488 1287 458 1275 q 531 1344 518 1299 l 638 1344 m 771 250 q 751 152 771 197 q 698 73 732 107 q 618 19 664 39 q 521 0 572 0 l 326 0 q 228 19 274 0 q 149 73 183 39 q 96 152 115 107 q 76 250 76 197 l 76 847 q 96 944 76 899 q 149 1024 115 990 q 228 1078 183 1058 q 326 1097 274 1097 l 521 1097 q 615 1080 572 1097 q 691 1032 658 1063 q 744 960 724 1001 q 771 872 764 919 l 576 824 q 551 883 576 857 q 479 908 526 908 l 368 908 q 271 811 271 908 l 271 286 q 368 189 271 189 l 479 189 q 576 286 576 189 l 576 390 l 438 390 l 438 579 l 771 579 l 771 250 z "},"ğ":{"ha":726,"x_min":69,"x_max":657,"o":"m 593 1072 q 528 926 588 976 q 376 875 469 875 q 220 925 281 875 q 149 1072 160 975 l 261 1072 q 302 1015 276 1029 q 371 1001 328 1001 q 444 1013 414 1001 q 486 1072 474 1025 l 593 1072 m 657 -85 q 642 -162 657 -126 q 602 -223 628 -197 q 540 -263 576 -249 q 463 -278 504 -278 l 285 -278 q 145 -229 200 -278 q 90 -96 90 -181 l 90 -83 l 261 -40 q 279 -87 264 -71 q 332 -103 294 -103 l 407 -103 q 476 -32 476 -103 l 476 89 q 425 53 460 68 q 358 39 390 39 l 263 39 q 185 53 221 39 q 124 94 150 68 q 84 156 99 119 q 69 233 69 192 l 69 626 q 84 703 69 668 q 124 765 99 739 q 185 805 150 790 q 263 819 221 819 l 372 819 q 441 806 408 819 q 490 774 474 793 l 511 819 l 657 819 l 657 -85 m 476 285 l 476 574 q 407 644 476 644 l 319 644 q 250 574 250 644 l 250 285 q 319 215 250 215 l 407 215 q 476 285 476 215 z "},"Ĭ":{"ha":347,"x_min":-49,"x_max":396,"o":"m 396 1344 q 331 1199 390 1250 q 179 1149 272 1149 q 23 1198 83 1149 q -49 1344 -37 1247 l 64 1344 q 104 1289 78 1303 q 172 1275 131 1275 q 247 1287 217 1275 q 289 1344 276 1299 l 396 1344 m 271 0 l 76 0 l 76 1097 l 271 1097 l 271 0 z "},"ĭ":{"ha":319,"x_min":-64,"x_max":381,"o":"m 381 1072 q 316 926 375 976 q 164 875 257 875 q 8 925 68 875 q -64 1072 -53 975 l 49 1072 q 90 1015 64 1029 q 158 1001 115 1001 q 231 1013 201 1001 q 274 1072 261 1025 l 381 1072 m 250 0 l 69 0 l 69 819 l 250 819 l 250 0 z "},"Ŏ":{"ha":847,"x_min":76,"x_max":771,"o":"m 649 1344 q 584 1199 643 1250 q 432 1149 525 1149 q 276 1198 336 1149 q 204 1344 215 1247 l 317 1344 q 357 1289 331 1303 q 425 1275 383 1275 q 499 1287 469 1275 q 542 1344 529 1299 l 649 1344 m 771 250 q 751 152 771 197 q 698 73 732 107 q 618 19 664 39 q 521 0 572 0 l 326 0 q 228 19 274 0 q 149 72 183 39 q 96 151 115 106 q 76 250 76 197 l 76 847 q 96 944 76 899 q 149 1024 115 990 q 228 1078 183 1058 q 326 1097 274 1097 l 521 1097 q 618 1078 572 1097 q 698 1024 664 1058 q 751 944 732 990 q 771 847 771 899 l 771 250 m 576 286 l 576 811 q 479 908 576 908 l 368 908 q 271 811 271 908 l 271 286 q 368 189 271 189 l 479 189 q 551 215 526 189 q 576 286 576 240 z "},"ŏ":{"ha":715,"x_min":69,"x_max":646,"o":"m 579 1074 q 513 927 572 978 q 361 876 454 876 q 205 926 265 876 q 135 1074 144 976 l 246 1074 q 288 1017 261 1031 q 356 1003 314 1003 q 429 1015 400 1003 q 472 1074 458 1026 l 579 1074 m 646 194 q 631 117 646 153 q 590 55 617 81 q 528 15 564 29 q 451 0 493 0 l 264 0 q 187 15 222 0 q 125 55 151 29 q 84 117 99 81 q 69 194 69 153 l 69 625 q 84 703 69 667 q 125 765 99 739 q 187 805 151 790 q 264 819 222 819 l 451 819 q 528 805 493 819 q 590 764 564 790 q 631 701 617 738 q 646 624 646 665 l 646 194 m 465 246 l 465 574 q 396 644 465 644 l 319 644 q 250 574 250 644 l 250 246 q 319 175 250 175 l 396 175 q 465 246 465 175 z "},"Ŭ":{"ha":847,"x_min":76,"x_max":771,"o":"m 649 1344 q 584 1199 643 1250 q 432 1149 525 1149 q 276 1198 336 1149 q 204 1344 215 1247 l 317 1344 q 357 1289 331 1303 q 425 1275 383 1275 q 499 1287 469 1275 q 542 1344 529 1299 l 649 1344 m 771 250 q 751 152 771 197 q 698 73 732 107 q 618 19 664 39 q 521 0 572 0 l 326 0 q 228 19 274 0 q 149 73 182 39 q 96 152 115 107 q 76 250 76 197 l 76 1097 l 271 1097 l 271 286 q 368 189 271 189 l 479 189 q 576 286 576 189 l 576 1097 l 771 1097 l 771 250 z "},"ŭ":{"ha":699,"x_min":69,"x_max":629,"o":"m 574 1072 q 509 926 568 976 q 357 875 450 875 q 201 925 261 875 q 129 1072 140 975 l 242 1072 q 283 1015 257 1029 q 351 1001 308 1001 q 424 1013 394 1001 q 467 1072 454 1025 l 574 1072 m 629 0 l 449 0 l 449 50 q 397 14 432 29 q 331 -1 363 -1 l 263 -1 q 185 14 221 -1 q 124 56 150 29 q 84 118 99 82 q 69 196 69 154 l 69 819 l 250 819 l 250 244 q 319 175 250 175 l 379 175 q 449 244 449 175 l 449 819 l 629 819 l 629 0 z "},"Ĩ":{"ha":347,"x_min":-51,"x_max":399,"o":"m 399 1340 l 399 1313 q 363 1203 396 1238 q 260 1168 331 1168 q 213 1176 236 1168 q 169 1194 190 1185 q 128 1213 147 1204 q 92 1221 108 1221 q 47 1169 47 1221 l -51 1169 l -51 1196 q -16 1306 -49 1271 q 88 1340 17 1342 q 134 1332 113 1340 q 176 1314 156 1324 q 215 1296 196 1304 q 257 1288 235 1288 q 290 1303 281 1288 q 300 1340 300 1318 l 399 1340 m 271 0 l 76 0 l 76 1097 l 271 1097 l 271 0 z "},"ĩ":{"ha":319,"x_min":-65,"x_max":385,"o":"m 385 1063 l 385 1035 q 349 924 382 960 q 246 889 317 889 q 199 897 222 889 q 155 915 176 906 q 114 934 133 925 q 78 943 94 943 q 33 892 33 943 l -65 892 l -65 918 q -30 1028 -62 993 q 74 1063 3 1063 q 120 1054 99 1063 q 162 1036 142 1046 q 201 1018 182 1026 q 243 1010 221 1010 q 276 1024 267 1010 q 286 1063 286 1039 l 385 1063 m 250 0 l 69 0 l 69 819 l 250 819 l 250 0 z "},"Ũ":{"ha":847,"x_min":76,"x_max":771,"o":"m 649 1338 l 649 1310 q 613 1200 646 1235 q 510 1165 581 1165 q 463 1174 486 1165 q 419 1192 440 1182 q 378 1210 397 1201 q 342 1218 358 1218 q 297 1167 297 1218 l 199 1167 l 199 1193 q 234 1303 201 1268 q 338 1338 267 1339 q 384 1329 363 1338 q 426 1311 406 1321 q 465 1293 446 1301 q 507 1285 485 1285 q 540 1300 531 1285 q 550 1338 550 1315 l 649 1338 m 771 250 q 751 152 771 197 q 698 73 732 107 q 618 19 664 39 q 521 0 572 0 l 326 0 q 228 19 274 0 q 149 73 182 39 q 96 152 115 107 q 76 250 76 197 l 76 1097 l 271 1097 l 271 286 q 368 189 271 189 l 479 189 q 576 286 576 189 l 576 1097 l 771 1097 l 771 250 z "},"ũ":{"ha":699,"x_min":69,"x_max":629,"o":"m 574 1060 l 574 1032 q 538 922 571 957 q 435 886 506 886 q 388 894 411 886 q 344 913 365 903 q 303 931 322 922 q 267 940 283 940 q 222 889 222 940 l 124 889 l 124 915 q 159 1025 126 990 q 263 1060 192 1060 q 309 1051 288 1060 q 351 1033 331 1043 q 390 1015 371 1024 q 432 1007 410 1007 q 465 1022 456 1007 q 475 1060 475 1036 l 574 1060 m 629 0 l 449 0 l 449 50 q 397 14 432 29 q 331 -1 363 -1 l 263 -1 q 185 14 221 -1 q 124 56 150 29 q 84 118 99 82 q 69 196 69 154 l 69 819 l 250 819 l 250 244 q 319 175 250 175 l 379 175 q 449 244 449 175 l 449 819 l 629 819 l 629 0 z "},"Ẁ":{"ha":847,"x_min":76,"x_max":772,"o":"m 558 1218 l 485 1146 l 272 1317 l 382 1433 l 558 1218 m 772 1097 l 711 0 l 528 0 l 439 329 q 435 340 438 335 q 425 344 432 344 q 415 340 418 344 q 411 329 413 335 l 321 0 l 139 0 l 76 1097 l 272 1097 l 303 563 q 304 553 303 558 q 311 547 306 547 q 319 553 317 547 q 324 563 322 558 l 410 881 q 415 891 411 886 q 425 896 418 896 q 435 891 432 896 q 440 881 439 886 l 525 563 q 529 553 526 558 q 538 547 532 547 q 544 553 543 547 q 546 563 546 558 l 576 1097 l 772 1097 z "},"ẁ":{"ha":799,"x_min":28,"x_max":771,"o":"m 538 946 l 464 874 l 251 1044 l 361 1161 l 538 946 m 771 819 l 639 0 l 488 0 l 413 253 q 400 268 407 268 q 388 253 393 268 l 313 0 l 161 0 l 28 819 l 213 819 l 272 401 q 276 391 274 397 q 285 385 279 385 q 294 391 292 385 q 297 401 296 397 l 385 663 q 392 676 388 674 q 400 679 396 679 q 408 676 404 679 q 415 663 413 674 l 501 401 q 506 391 503 397 q 514 385 508 385 q 524 391 521 385 q 526 401 526 397 l 586 819 l 771 819 z "},"Ỳ":{"ha":847,"x_min":76,"x_max":771,"o":"m 554 1218 l 481 1146 l 268 1317 l 378 1433 l 554 1218 m 771 1031 q 736 883 771 961 l 521 404 l 521 0 l 326 0 l 326 404 l 111 883 q 84 960 92 924 q 76 1032 76 996 l 76 1097 l 271 1097 l 271 1054 q 275 1009 271 1033 q 289 964 279 985 l 424 650 l 558 964 q 572 1010 568 986 q 576 1054 576 1033 l 576 1097 l 771 1097 l 771 1031 z "},"ỳ":{"ha":694,"x_min":28,"x_max":667,"o":"m 476 946 l 403 874 l 190 1044 l 300 1161 l 476 946 m 667 819 l 408 -99 q 372 -180 396 -146 q 318 -235 349 -214 q 251 -267 288 -257 q 176 -278 215 -278 l 101 -278 l 101 -103 l 157 -103 q 250 -31 229 -103 l 258 0 l 28 819 l 213 819 l 333 346 q 338 335 335 342 q 346 329 340 329 q 355 335 353 329 q 358 346 357 342 l 482 819 l 667 819 z "},"Ẅ":{"ha":847,"x_min":76,"x_max":772,"o":"m 642 1167 l 474 1167 l 474 1326 l 642 1326 l 642 1167 m 369 1167 l 203 1167 l 203 1326 l 369 1326 l 369 1167 m 772 1097 l 711 0 l 528 0 l 439 329 q 435 340 438 335 q 425 344 432 344 q 415 340 418 344 q 411 329 413 335 l 321 0 l 139 0 l 76 1097 l 272 1097 l 303 563 q 304 553 303 558 q 311 547 306 547 q 319 553 317 547 q 324 563 322 558 l 410 881 q 415 891 411 886 q 425 896 418 896 q 435 891 432 896 q 440 881 439 886 l 525 563 q 529 553 526 558 q 538 547 532 547 q 544 553 543 547 q 546 563 546 558 l 576 1097 l 772 1097 z "},"ẅ":{"ha":799,"x_min":28,"x_max":771,"o":"m 619 889 l 451 889 l 451 1047 l 619 1047 l 619 889 m 347 889 l 182 889 l 182 1047 l 347 1047 l 347 889 m 771 819 l 639 0 l 488 0 l 413 253 q 400 268 407 268 q 388 253 393 268 l 313 0 l 161 0 l 28 819 l 213 819 l 272 401 q 276 391 274 397 q 285 385 279 385 q 294 391 292 385 q 297 401 296 397 l 385 663 q 392 676 388 674 q 400 679 396 679 q 408 676 404 679 q 415 663 413 674 l 501 401 q 506 391 503 397 q 514 385 508 385 q 524 391 521 385 q 526 401 526 397 l 586 819 l 771 819 z "},"Ħ":{"ha":861,"x_min":42,"x_max":819,"o":"m 819 758 l 778 758 l 778 0 l 583 0 l 583 454 l 278 454 l 278 0 l 83 0 l 83 758 l 42 758 l 42 911 l 83 911 l 83 1097 l 278 1097 l 278 911 l 583 911 l 583 1097 l 778 1097 l 778 911 l 819 911 l 819 758 m 583 643 l 583 758 l 278 758 l 278 643 l 583 643 z "},"ħ":{"ha":740,"x_min":15,"x_max":671,"o":"m 671 0 l 490 0 l 490 574 q 421 644 490 644 l 333 644 q 264 574 264 644 l 264 0 l 83 0 l 83 896 l 15 896 l 15 1029 l 83 1029 l 83 1097 l 264 1097 l 264 1029 l 440 1029 l 440 896 l 264 896 l 264 769 q 315 805 281 790 q 382 819 350 819 l 476 819 q 553 805 518 819 q 615 764 589 790 q 656 701 642 738 q 671 624 671 665 l 671 0 z "},"Ŧ":{"ha":847,"x_min":76,"x_max":771,"o":"m 771 908 l 521 908 l 521 715 l 688 715 l 688 549 l 521 549 l 521 0 l 326 0 l 326 549 l 146 549 l 146 715 l 326 715 l 326 908 l 76 908 l 76 1097 l 771 1097 l 771 908 z "},"ŧ":{"ha":497,"x_min":21,"x_max":463,"o":"m 463 0 l 285 0 q 208 15 243 0 q 146 56 172 29 q 105 118 119 82 q 90 196 90 154 l 90 363 l 22 363 l 22 521 l 90 521 l 90 638 l 21 638 l 21 813 l 90 813 l 90 981 l 271 1026 l 271 813 l 449 813 l 449 638 l 271 638 l 271 521 l 447 521 l 447 363 l 271 363 l 271 244 q 340 175 271 175 l 463 175 l 463 0 z "},"Ŋ":{"ha":847,"x_min":76,"x_max":771,"o":"m 771 0 l 771 -161 q 758 -238 771 -201 q 722 -303 746 -275 q 665 -347 699 -331 q 588 -364 631 -364 q 513 -347 547 -364 q 453 -302 478 -331 q 415 -237 428 -274 q 401 -162 401 -201 l 401 -125 l 532 -125 q 532 -137 532 -136 q 533 -137 532 -139 q 533 -137 533 -136 q 533 -150 533 -139 q 546 -214 533 -190 q 586 -237 558 -237 q 627 -214 617 -237 q 639 -146 638 -190 l 640 0 l 589 0 l 271 639 l 271 0 l 76 0 l 76 1097 l 260 1097 l 576 456 l 576 1097 l 771 1097 l 771 29 l 771 0 z "},"ŋ":{"ha":699,"x_min":69,"x_max":629,"o":"m 629 0 l 629 -161 q 617 -238 629 -201 q 583 -303 606 -275 q 528 -347 560 -331 q 456 -364 496 -364 q 385 -347 418 -364 q 329 -302 353 -331 q 292 -237 306 -274 q 279 -161 279 -201 l 279 -132 l 392 -133 l 392 -149 q 406 -222 392 -192 q 454 -251 419 -251 q 503 -221 492 -251 q 517 -144 515 -190 l 518 0 l 449 0 l 449 574 q 379 644 449 644 l 319 644 q 250 574 250 644 l 250 0 l 69 0 l 69 819 l 250 819 l 250 769 q 301 805 267 790 q 368 819 336 819 l 436 819 q 513 805 478 819 q 574 764 549 790 q 615 701 600 738 q 629 624 629 665 l 629 29 l 629 0 z "},"Ĳ":{"ha":1111,"x_min":76,"x_max":1035,"o":"m 1035 250 q 1015 152 1035 197 q 962 73 996 107 q 882 19 928 39 q 785 0 836 0 l 590 0 q 497 17 540 0 q 420 65 453 35 q 367 137 388 96 q 340 226 346 178 l 535 275 q 560 214 535 239 q 632 189 585 189 l 743 189 q 840 286 840 189 l 840 1097 l 1035 1097 l 1035 250 m 271 0 l 76 0 l 76 1097 l 271 1097 l 271 0 z "},"ĳ":{"ha":628,"x_min":69,"x_max":558,"o":"m 558 921 l 378 921 l 378 1096 l 558 1096 l 558 921 m 250 921 l 69 921 l 69 1096 l 250 1096 l 250 921 m 558 -103 q 510 -233 558 -187 q 378 -278 461 -278 l 253 -278 l 253 -103 l 308 -103 q 378 -33 378 -103 l 378 819 l 558 819 l 558 -103 m 250 0 l 69 0 l 69 819 l 250 819 l 250 0 z "},"Ŀ":{"ha":847,"x_min":76,"x_max":771,"o":"m 646 500 l 451 500 l 451 689 l 646 689 l 646 500 m 771 0 l 76 0 l 76 1097 l 271 1097 l 271 189 l 771 189 l 771 0 z "},"ŀ":{"ha":531,"x_min":69,"x_max":565,"o":"m 565 499 l 371 499 l 371 688 l 565 688 l 565 499 m 250 0 l 69 0 l 69 1097 l 250 1097 l 250 0 z "},"Ḃ":{"ha":847,"x_min":76,"x_max":771,"o":"m 503 1165 l 308 1165 l 308 1354 l 503 1354 l 503 1165 m 771 250 q 751 152 771 197 q 698 73 732 107 q 618 19 664 39 q 521 0 572 0 l 76 0 l 76 189 l 132 189 l 132 908 l 76 908 l 76 1097 l 521 1097 q 618 1078 572 1097 q 698 1024 664 1058 q 751 944 732 990 q 771 847 771 899 l 771 732 q 761 655 771 686 q 737 603 751 624 q 706 569 722 582 q 678 550 690 557 q 708 529 692 542 q 738 497 724 517 q 761 446 751 476 q 771 368 771 415 l 771 250 m 576 739 l 576 811 q 479 908 576 908 l 326 908 l 326 642 l 479 642 q 576 739 576 642 m 576 286 l 576 356 q 479 453 576 453 l 326 453 l 326 189 l 479 189 q 551 215 526 189 q 576 286 576 240 z "},"ḃ":{"ha":726,"x_min":69,"x_max":657,"o":"m 524 889 l 329 889 l 329 1078 l 524 1078 l 524 889 m 657 194 q 642 117 657 153 q 602 55 628 81 q 541 15 576 29 q 464 0 506 0 l 354 0 q 286 10 318 0 q 233 47 254 21 l 215 0 l 69 0 l 69 1097 l 250 1097 l 250 769 q 301 808 271 796 q 368 819 332 819 l 464 819 q 541 805 506 819 q 602 765 576 790 q 642 703 628 739 q 657 625 657 667 l 657 194 m 476 246 l 476 574 q 407 644 476 644 l 319 644 q 250 574 250 644 l 250 246 q 319 175 250 175 l 407 175 q 476 246 476 175 z "},"Ċ":{"ha":847,"x_min":76,"x_max":771,"o":"m 532 1167 l 338 1167 l 338 1356 l 532 1356 l 532 1167 m 771 226 q 747 141 767 182 q 694 69 726 100 q 617 19 661 38 q 521 0 572 0 l 326 0 q 228 19 274 0 q 149 73 183 39 q 96 152 115 107 q 76 250 76 197 l 76 847 q 96 944 76 899 q 149 1024 115 990 q 228 1078 183 1058 q 326 1097 274 1097 l 521 1097 q 617 1078 572 1097 q 694 1028 661 1060 q 747 956 726 997 q 771 868 767 914 l 576 819 q 551 882 576 856 q 479 908 526 908 l 368 908 q 271 811 271 908 l 271 286 q 368 189 271 189 l 479 189 q 551 212 525 189 q 576 275 576 235 l 771 226 z "},"ċ":{"ha":715,"x_min":69,"x_max":646,"o":"m 457 889 l 263 889 l 263 1078 l 457 1078 l 457 889 m 646 192 q 631 115 646 150 q 590 54 615 79 q 529 15 564 29 q 453 0 494 0 l 263 0 q 185 15 221 0 q 124 55 150 29 q 84 117 99 81 q 69 194 69 153 l 69 625 q 84 703 69 667 q 124 765 99 739 q 185 805 150 790 q 263 819 221 819 l 453 819 q 530 805 494 819 q 591 765 565 790 q 631 705 617 740 q 646 628 646 669 l 465 582 q 396 644 461 644 l 319 644 q 250 574 250 644 l 250 246 q 319 175 250 175 l 396 175 q 465 238 461 175 l 646 192 z "},"Ḋ":{"ha":847,"x_min":76,"x_max":771,"o":"m 519 1161 l 325 1161 l 325 1350 l 519 1350 l 519 1161 m 771 250 q 751 152 771 197 q 698 73 732 107 q 618 19 664 39 q 521 0 572 0 l 76 0 l 76 189 l 132 189 l 132 908 l 76 908 l 76 1097 l 521 1097 q 618 1078 572 1097 q 698 1024 664 1058 q 751 944 732 990 q 771 847 771 899 l 771 250 m 576 286 l 576 811 q 479 908 576 908 l 326 908 l 326 189 l 479 189 q 576 286 576 189 z "},"ḋ":{"ha":726,"x_min":69,"x_max":657,"o":"m 388 889 l 193 889 l 193 1078 l 388 1078 l 388 889 m 657 0 l 513 0 l 492 49 q 375 0 454 0 l 263 0 q 185 15 221 0 q 124 55 150 29 q 84 117 99 81 q 69 194 69 153 l 69 625 q 84 703 69 667 q 124 765 99 739 q 185 805 150 790 q 263 819 221 819 l 358 819 q 425 808 394 819 q 476 769 456 796 l 476 1097 l 657 1097 l 657 0 m 476 246 l 476 574 q 407 644 476 644 l 319 644 q 250 574 250 644 l 250 246 q 319 175 250 175 l 407 175 q 476 246 476 175 z "},"Ė":{"ha":847,"x_min":76,"x_max":771,"o":"m 524 1160 l 329 1160 l 329 1349 l 524 1349 l 524 1160 m 771 0 l 76 0 l 76 1097 l 771 1097 l 771 908 l 271 908 l 271 643 l 632 643 l 632 454 l 271 454 l 271 189 l 771 189 l 771 0 z "},"ė":{"ha":706,"x_min":69,"x_max":636,"o":"m 449 889 l 254 889 l 254 1078 l 449 1078 l 449 889 m 636 317 l 250 317 l 250 246 q 321 175 250 175 l 389 175 q 440 191 425 175 q 458 238 456 207 l 629 194 l 629 182 q 574 49 629 97 q 435 0 519 0 l 265 0 q 188 15 224 0 q 125 55 151 29 q 84 117 99 81 q 69 194 69 153 l 69 625 q 84 702 69 667 q 124 764 99 738 q 185 805 150 790 q 263 819 221 819 l 442 819 q 519 805 483 819 q 581 764 556 790 q 622 701 607 738 q 636 624 636 665 l 636 317 m 456 575 q 386 644 457 644 l 321 644 q 267 628 283 644 q 250 575 250 611 l 250 493 l 456 493 l 456 575 z "},"Ḟ":{"ha":847,"x_min":76,"x_max":771,"o":"m 524 1167 l 329 1167 l 329 1356 l 524 1356 l 524 1167 m 771 908 l 271 908 l 271 643 l 632 643 l 632 454 l 271 454 l 271 0 l 76 0 l 76 1097 l 771 1097 l 771 908 z "},"ḟ":{"ha":483,"x_min":21,"x_max":463,"o":"m 368 1164 l 174 1164 l 174 1353 l 368 1353 l 368 1164 m 463 921 l 340 921 q 271 851 271 921 l 271 813 l 449 813 l 449 638 l 271 638 l 271 0 l 90 0 l 90 638 l 21 638 l 21 813 l 90 813 l 90 900 q 105 978 90 942 q 146 1040 119 1014 q 208 1081 172 1067 q 285 1096 243 1096 l 463 1096 l 463 921 z "},"Ġ":{"ha":847,"x_min":76,"x_max":771,"o":"m 524 1165 l 329 1165 l 329 1354 l 524 1354 l 524 1165 m 771 250 q 751 152 771 197 q 698 73 732 107 q 618 19 664 39 q 521 0 572 0 l 326 0 q 228 19 274 0 q 149 73 183 39 q 96 152 115 107 q 76 250 76 197 l 76 847 q 96 944 76 899 q 149 1024 115 990 q 228 1078 183 1058 q 326 1097 274 1097 l 521 1097 q 615 1080 572 1097 q 691 1032 658 1063 q 744 960 724 1001 q 771 872 764 919 l 576 824 q 551 883 576 857 q 479 908 526 908 l 368 908 q 271 811 271 908 l 271 286 q 368 189 271 189 l 479 189 q 576 286 576 189 l 576 390 l 438 390 l 438 579 l 771 579 l 771 250 z "},"ġ":{"ha":726,"x_min":69,"x_max":657,"o":"m 465 889 l 271 889 l 271 1078 l 465 1078 l 465 889 m 657 -85 q 642 -162 657 -126 q 602 -223 628 -197 q 540 -263 576 -249 q 463 -278 504 -278 l 285 -278 q 145 -229 200 -278 q 90 -96 90 -181 l 90 -83 l 261 -40 q 279 -87 264 -71 q 332 -103 294 -103 l 407 -103 q 476 -32 476 -103 l 476 89 q 425 53 460 68 q 358 39 390 39 l 263 39 q 185 53 221 39 q 124 94 150 68 q 84 156 99 119 q 69 233 69 192 l 69 626 q 84 703 69 668 q 124 765 99 739 q 185 805 150 790 q 263 819 221 819 l 372 819 q 441 806 408 819 q 490 774 474 793 l 511 819 l 657 819 l 657 -85 m 476 285 l 476 574 q 407 644 476 644 l 319 644 q 250 574 250 644 l 250 285 q 319 215 250 215 l 407 215 q 476 285 476 215 z "},"İ":{"ha":347,"x_min":76,"x_max":271,"o":"m 271 1161 l 76 1161 l 76 1350 l 271 1350 l 271 1161 m 271 0 l 76 0 l 76 1097 l 271 1097 l 271 0 z "},"Ṁ":{"ha":847,"x_min":76,"x_max":771,"o":"m 521 1167 l 326 1167 l 326 1356 l 521 1356 l 521 1167 m 771 0 l 576 0 l 576 522 q 575 533 576 525 q 568 540 574 540 q 560 534 564 540 q 556 525 557 528 l 439 210 q 433 199 436 204 q 424 194 431 194 q 414 199 417 194 q 408 210 411 204 l 292 524 q 288 532 290 526 q 279 538 285 538 q 272 531 274 538 q 271 521 271 525 l 271 0 l 76 0 l 76 1097 l 257 1097 l 411 667 q 416 656 413 664 q 424 649 419 649 q 431 656 428 649 q 436 667 435 664 l 590 1097 l 771 1097 l 771 0 z "},"ṁ":{"ha":1024,"x_min":69,"x_max":954,"o":"m 610 889 l 415 889 l 415 1078 l 610 1078 l 610 889 m 954 0 l 774 0 l 774 574 q 704 644 774 644 l 672 644 q 603 574 603 644 l 603 0 l 421 0 l 421 574 q 351 644 421 644 l 319 644 q 250 574 250 644 l 250 0 l 69 0 l 69 819 l 250 819 l 250 769 q 301 805 267 790 q 368 819 336 819 l 415 819 q 506 799 468 819 q 564 746 543 778 q 623 799 585 778 q 714 819 661 819 l 761 819 q 838 805 803 819 q 899 764 874 790 q 940 701 925 738 q 954 624 954 665 l 954 0 z "},"Ṗ":{"ha":847,"x_min":76,"x_max":771,"o":"m 499 1165 l 304 1165 l 304 1354 l 499 1354 l 499 1165 m 771 704 q 751 606 771 651 q 698 527 732 561 q 618 474 664 493 q 521 454 572 454 l 271 454 l 271 0 l 76 0 l 76 1097 l 521 1097 q 618 1078 572 1097 q 698 1024 664 1058 q 751 944 732 990 q 771 847 771 899 l 771 704 m 576 740 l 576 811 q 479 908 576 908 l 271 908 l 271 643 l 479 643 q 576 740 576 643 z "},"ṗ":{"ha":726,"x_min":69,"x_max":657,"o":"m 464 889 l 269 889 l 269 1078 l 464 1078 l 464 889 m 657 194 q 642 117 657 153 q 602 55 628 81 q 541 15 576 29 q 464 0 506 0 l 368 0 q 301 12 332 0 q 250 50 271 24 l 250 -278 l 69 -278 l 69 819 l 214 819 l 235 771 q 287 808 256 797 q 354 819 318 819 l 464 819 q 541 805 506 819 q 602 765 576 790 q 642 703 628 739 q 657 625 657 667 l 657 194 m 476 246 l 476 574 q 407 644 476 644 l 319 644 q 250 574 250 644 l 250 246 q 319 176 250 176 l 407 176 q 476 246 476 176 z "},"Ṡ":{"ha":847,"x_min":76,"x_max":771,"o":"m 526 1165 l 332 1165 l 332 1354 l 526 1354 l 526 1165 m 771 250 q 751 152 771 197 q 698 73 732 107 q 618 19 664 39 q 521 0 572 0 l 326 0 q 231 18 274 0 q 155 67 188 36 q 102 140 122 99 q 76 231 82 182 l 271 279 q 297 213 274 236 q 368 189 321 189 l 479 189 q 576 286 576 189 l 576 324 q 563 378 576 360 q 514 413 550 397 l 261 514 q 192 549 225 528 q 133 602 160 571 q 92 674 107 633 q 76 765 76 714 l 76 847 q 96 944 76 899 q 149 1024 115 990 q 228 1078 183 1058 q 326 1097 274 1097 l 521 1097 q 617 1078 574 1097 q 694 1028 661 1060 q 747 955 726 996 q 771 869 767 914 l 576 821 q 550 885 574 861 q 479 908 526 908 l 368 908 q 271 811 271 908 l 271 797 q 281 727 271 750 q 328 690 292 704 l 589 586 q 720 499 669 554 q 771 357 771 443 l 771 250 z "},"ṡ":{"ha":715,"x_min":69,"x_max":646,"o":"m 458 889 l 264 889 l 264 1078 l 458 1078 l 458 889 m 646 194 q 631 117 646 153 q 591 55 617 81 q 530 15 565 29 q 453 0 494 0 l 264 0 q 187 15 222 0 q 126 54 151 29 q 85 115 100 79 q 69 192 69 150 l 250 238 q 269 190 253 206 q 321 175 285 175 l 396 175 q 465 239 465 175 l 465 244 q 456 272 465 260 q 421 293 446 283 l 217 368 q 165 395 192 378 q 117 438 139 413 q 83 496 96 463 q 69 569 69 529 l 69 625 q 84 702 69 667 q 124 764 99 738 q 185 805 150 790 q 263 819 221 819 l 453 819 q 530 805 494 819 q 591 765 565 790 q 631 705 617 740 q 646 628 646 669 l 465 582 q 396 644 461 644 l 319 644 q 267 629 283 644 q 250 588 250 614 l 250 579 q 258 548 250 560 q 289 528 265 536 l 504 449 q 558 422 532 439 q 603 381 583 406 q 634 323 622 356 q 646 249 646 290 l 646 194 z "},"Ṫ":{"ha":847,"x_min":76,"x_max":771,"o":"m 521 1167 l 326 1167 l 326 1356 l 521 1356 l 521 1167 m 771 908 l 521 908 l 521 0 l 326 0 l 326 908 l 76 908 l 76 1097 l 771 1097 l 771 908 z "},"ṫ":{"ha":497,"x_min":21,"x_max":463,"o":"m 285 1097 l 90 1097 l 90 1286 l 285 1286 l 285 1097 m 463 0 l 285 0 q 208 15 243 0 q 146 56 172 29 q 105 118 119 82 q 90 196 90 154 l 90 638 l 21 638 l 21 813 l 90 813 l 90 981 l 271 1026 l 271 813 l 449 813 l 449 638 l 271 638 l 271 244 q 340 175 271 175 l 463 175 l 463 0 z "},"Ż":{"ha":847,"x_min":76,"x_max":771,"o":"m 525 1167 l 331 1167 l 331 1356 l 525 1356 l 525 1167 m 771 0 l 76 0 l 76 181 l 543 910 l 76 910 l 76 1099 l 771 1097 l 771 917 l 306 189 l 771 189 l 771 0 z "},"ż":{"ha":711,"x_min":69,"x_max":642,"o":"m 450 889 l 256 889 l 256 1078 l 450 1078 l 450 889 m 642 0 l 69 0 l 69 139 l 413 644 l 69 644 l 69 819 l 642 819 l 642 681 l 300 175 l 642 175 l 642 0 z "},"⁊":{"ha":660,"x_min":69,"x_max":590,"o":"m 590 819 l 590 674 l 439 -142 l 250 -142 l 399 644 l 69 644 l 69 819 l 590 819 z "},"ſ":{"ha":463,"x_min":21,"x_max":463,"o":"m 463 921 l 340 921 q 271 851 271 921 l 271 0 l 90 0 l 90 631 l 21 631 l 21 806 l 90 806 l 90 900 q 105 978 90 942 q 146 1040 119 1014 q 208 1081 172 1067 q 285 1096 243 1096 l 463 1096 l 463 921 z "},"­":{"ha":444,"x_min":28,"x_max":417,"o":"m 417 382 l 28 382 l 28 571 l 417 571 l 417 382 z "},"̦":{"ha":1056,"x_min":386,"x_max":619,"o":"m 619 -118 l 483 -404 l 386 -371 l 457 -61 l 619 -118 z "},"₽":{"ha":861,"x_min":35,"x_max":785,"o":"m 785 711 q 765 613 785 658 q 712 534 746 568 q 632 481 678 500 q 535 461 586 461 l 285 461 l 285 351 l 563 351 l 563 163 l 285 163 l 285 0 l 90 0 l 90 163 l 35 163 l 35 351 l 90 351 l 90 461 l 35 461 l 35 650 l 90 650 l 90 1097 l 535 1097 q 632 1078 586 1097 q 712 1024 678 1058 q 765 944 746 990 q 785 847 785 899 l 785 711 m 590 747 l 590 811 q 493 908 590 908 l 285 908 l 285 650 l 493 650 q 590 747 590 650 z "}}}
